<?xml version="1.0" encoding="UTF-8" standalone="no"?>
<svg
   xmlns:dc="http://purl.org/dc/elements/1.1/"
   xmlns:cc="http://creativecommons.org/ns#"
   xmlns:rdf="http://www.w3.org/1999/02/22-rdf-syntax-ns#"
   xmlns:svg="http://www.w3.org/2000/svg"
   xmlns="http://www.w3.org/2000/svg"
   xmlns:xlink="http://www.w3.org/1999/xlink"
   xmlns:sodipodi="http://sodipodi.sourceforge.net/DTD/sodipodi-0.dtd"
   xmlns:inkscape="http://www.inkscape.org/namespaces/inkscape"
   width="143.99844mm"
   height="144mm"
   viewBox="0 0 143.99844 144"
   version="1.1"
   id="svg846"
   inkscape:version="1.0 (4035a4f, 2020-05-01)"
   sodipodi:docname="moon.svg">
  <defs
     id="defs840">
    <linearGradient
       id="linearGradient4048"
       inkscape:collect="always">
      <stop
         id="stop4036"
         offset="0"
         style="stop-color:#0003ed;stop-opacity:1" />
      <stop
         style="stop-color:#5400ff;stop-opacity:1"
         offset="0.46435714"
         id="stop4038" />
      <stop
         id="stop4040"
         offset="0.57703787"
         style="stop-color:#4700bb;stop-opacity:0.9137255" />
      <stop
         id="stop4042"
         offset="0.74422961"
         style="stop-color:#2017fa;stop-opacity:0.97647059" />
      <stop
         id="stop4044"
         offset="0.8261472"
         style="stop-color:#5e0ac4;stop-opacity:0.97580647" />
      <stop
         id="stop4046"
         offset="1"
         style="stop-color:#00ffce;stop-opacity:1" />
    </linearGradient>
    <linearGradient
       inkscape:collect="always"
       id="linearGradient4012">
      <stop
         style="stop-color:#0003ed;stop-opacity:1"
         offset="0"
         id="stop4008" />
      <stop
         id="stop4016"
         offset="0.41075513"
         style="stop-color:#e904f9;stop-opacity:1" />
      <stop
         style="stop-color:#8463fe;stop-opacity:0.98823529"
         offset="0.54036283"
         id="stop4032" />
      <stop
         style="stop-color:#18f9cd;stop-opacity:0.97647059"
         offset="0.67087948"
         id="stop4030" />
      <stop
         style="stop-color:#28c40a;stop-opacity:0.25490198"
         offset="0.76690286"
         id="stop4018" />
      <stop
         style="stop-color:#00ffce;stop-opacity:1"
         offset="1"
         id="stop4010" />
    </linearGradient>
    <linearGradient
       inkscape:collect="always"
       xlink:href="#linearGradient4048"
       id="linearGradient1502"
       gradientUnits="userSpaceOnUse"
       x1="85.167397"
       y1="36.810986"
       x2="85.57399"
       y2="180.11975" />
    <linearGradient
       y2="180.11975"
       x2="85.57399"
       y1="36.810986"
       x1="85.167397"
       gradientUnits="userSpaceOnUse"
       id="linearGradient1193"
       xlink:href="#linearGradient4012"
       inkscape:collect="always" />
  </defs>
  <sodipodi:namedview
     id="base"
     pagecolor="#ffffff"
     bordercolor="#666666"
     borderopacity="1.0"
     inkscape:pageopacity="0.0"
     inkscape:pageshadow="2"
     inkscape:zoom="0.53865596"
     inkscape:cx="186.34669"
     inkscape:cy="343.85985"
     inkscape:document-units="mm"
     inkscape:current-layer="g1547"
     inkscape:document-rotation="0"
     showgrid="false"
     inkscape:window-width="948"
     inkscape:window-height="855"
     inkscape:window-x="0"
     inkscape:window-y="23"
     inkscape:window-maximized="0"
     inkscape:snap-nodes="true"
     inkscape:snap-bbox="true"
     inkscape:bbox-nodes="false" />
  <metadata
     id="metadata843">
    <rdf:RDF>
      <cc:Work
         rdf:about="">
        <dc:format>image/svg+xml</dc:format>
        <dc:type
           rdf:resource="http://purl.org/dc/dcmitype/StillImage" />
        <dc:title />
      </cc:Work>
    </rdf:RDF>
  </metadata>
  <g
     inkscape:label="Layer 1"
     inkscape:groupmode="layer"
     id="layer1"
     transform="translate(-37.563081,-35.997803)">
    <g
       id="g1547">
      <g
         id="g3958"
         style="mix-blend-mode:normal;fill:url(#linearGradient1193);fill-opacity:1">
        <g
           id="g3936"
           style="fill:url(#linearGradient1193);fill-opacity:1">
          <g
             id="g3915"
             style="fill:url(#linearGradient1193);fill-opacity:1">
            <g
               id="g3895"
               style="fill:url(#linearGradient1193);fill-opacity:1">
              <g
                 id="g3876"
                 style="fill:url(#linearGradient1193);fill-opacity:1">
                <g
                   id="g3858"
                   style="fill:url(#linearGradient1193);fill-opacity:1">
                  <g
                     id="g3841"
                     style="fill:url(#linearGradient1193);fill-opacity:1">
                    <g
                       id="g3825"
                       style="fill:url(#linearGradient1193);fill-opacity:1">
                      <g
                         id="g3810"
                         style="fill:url(#linearGradient1193);fill-opacity:1">
                        <g
                           id="g3796"
                           style="fill:url(#linearGradient1193);fill-opacity:1">
                          <g
                             id="g3783"
                             style="fill:url(#linearGradient1193);fill-opacity:1">
                            <g
                               id="g3771"
                               style="fill:url(#linearGradient1193);fill-opacity:1">
                              <g
                                 id="g3760"
                                 style="fill:url(#linearGradient1193);fill-opacity:1">
                                <g
                                   id="g3750"
                                   style="fill:url(#linearGradient1193);fill-opacity:1">
                                <g
                                   id="g3741"
                                   style="fill:url(#linearGradient1193);fill-opacity:1">
                                <g
                                   id="g3733"
                                   style="fill:url(#linearGradient1193);fill-opacity:1">
                                <g
                                   id="g3726"
                                   style="fill:url(#linearGradient1193);fill-opacity:1">
                                <g
                                   id="g3714"
                                   style="fill:url(#linearGradient1193);fill-opacity:1">
                                <g
                                   style="fill:url(#linearGradient1193);fill-opacity:1"
                                   id="g3709">
                                <g
                                   style="fill:url(#linearGradient1193);fill-opacity:1"
                                   id="g3705">
                                <g
                                   style="fill-opacity:1;fill:url(#linearGradient1193)"
                                   id="g919">
                                <path
                                   id="rect3413"
                                   style="opacity:0.514469;fill:url(#linearGradient1193);fill-opacity:1;fill-rule:evenodd;stroke-width:0.951602"
                                   d="m 407.76953,268.32031 a 178.91176,178.91176 0 0 0 -3.80664,3.1211 h 230.75 a 178.91176,178.91176 0 0 0 -3.80469,-3.1211 z m -8.12109,6.88281 a 178.91176,178.91176 0 0 0 -4.10547,3.8125 h 247.58984 a 178.91176,178.91176 0 0 0 -4.10351,-3.8125 z m -7.91406,7.57422 a 178.91176,178.91176 0 0 0 -4.5254,4.77735 H 651.4668 a 178.91176,178.91176 0 0 0 -4.52539,-4.77735 z m -7.86329,8.53711 a 178.91176,178.91176 0 0 0 -5.17187,6.27735 h 281.27539 a 178.91176,178.91176 0 0 0 -5.16992,-6.27735 z m -8.04882,10.03907 a 178.91176,178.91176 0 0 0 -6.36915,9.13671 h 298.62891 a 272.12629,272.12629 0 0 0 -1.61719,-4.10546 178.91176,178.91176 0 0 0 -3.61132,-5.03125 z M 367.06836,314.25 a 178.91176,178.91176 0 0 0 -13.57227,26.81055 H 677.81445 A 272.12629,272.12629 0 0 0 669.49609,314.25 Z m -15.04883,30.58008 a 178.91176,178.91176 0 0 0 -0.33398,0.88867 h 327.26953 a 272.12629,272.12629 0 0 0 -0.20899,-0.88867 z m -1.93164,5.35937 a 178.91176,178.91176 0 0 0 -0.625,1.85352 h 330.90625 a 272.12629,272.12629 0 0 0 -0.39844,-1.85352 z m -2.29883,7.19922 a 178.91176,178.91176 0 0 0 -1.08203,3.81055 h 335.42969 a 272.12629,272.12629 0 0 0 -0.69727,-3.81055 z m -2.74609,10.41797 a 178.91176,178.91176 0 0 0 -1.17578,5.46289 h 340.10547 a 272.12629,272.12629 0 0 0 -0.76368,-5.46289 z m -2.62109,13.73633 a 178.91176,178.91176 0 0 0 -0.88868,6.77734 h 343.96289 a 272.12629,272.12629 0 0 0 -0.58007,-6.77734 z m -1.74024,17.125 a 178.91176,178.91176 0 0 0 -0.24414,7.73633 h 345.7793 a 272.12629,272.12629 0 0 0 -0.16211,-7.73633 z m 0.0879,20.57617 a 178.91176,178.91176 0 0 0 0.71094,8.32422 h 344.05078 a 272.12629,272.12629 0 0 0 0.4668,-8.32422 z m 3.14453,24.08789 a 178.91176,178.91176 0 0 0 1.92774,8.52735 h 336.85156 a 272.12629,272.12629 0 0 0 1.24805,-8.52735 z m 16.36133,46.75195 a 178.91176,178.91176 0 0 0 4.6875,8.52735 h 305.79297 a 272.12629,272.12629 0 0 0 2.84766,-8.52735 z m 15.07422,24.29102 a 178.91176,178.91176 0 0 0 6.5332,8.32617 h 274.91211 a 178.91176,178.91176 0 0 0 6.5293,-8.32617 z m 18.33594,21.16602 a 178.91176,178.91176 0 0 0 8.35742,7.73632 h 234.58984 a 178.91176,178.91176 0 0 0 8.35938,-7.73632 z m 21.46093,18.08398 a 178.91176,178.91176 0 0 0 10.17969,6.77734 H 613.34961 A 178.91176,178.91176 0 0 0 623.5293,553.625 Z m 25.13086,15.05078 a 178.91176,178.91176 0 0 0 12.2168,5.46289 h 133.68164 a 178.91176,178.91176 0 0 0 12.22656,-5.46289 z m 31.83008,12.07031 a 178.91176,178.91176 0 0 0 17.21094,3.81055 h 60.04297 a 178.91176,178.91176 0 0 0 17.20508,-3.81055 z"
                                   transform="scale(0.26458333)" />
                                <path
                                   id="path1409"
                                   style="opacity:0.62701;fill:url(#linearGradient1193);fill-opacity:1;fill-rule:evenodd;stroke-width:0.268986"
                                   d="M 109.56285,35.997803 A 72.000057,72.00008 0 0 0 47.800745,70.99308 H 107.88853 A 47.337054,47.337069 0 0 1 137.40868,60.660894 47.337054,47.337069 0 0 1 166.9278,70.99308 h 4.39767 A 72.000057,72.00008 0 0 0 109.56285,35.997803 Z M 47.312919,71.818871 a 72.000057,72.00008 0 0 0 -0.567922,0.995288 h 58.995353 a 47.337054,47.337069 0 0 1 1.14153,-0.995288 z m 120.621021,0 a 47.337054,47.337069 0 0 1 1.14154,0.995288 h 3.30522 a 72.000057,72.00008 0 0 0 -0.56741,-0.995288 z m -121.743433,2.00401 a 72.000057,72.00008 0 0 0 -0.526581,0.99529 h 57.982494 a 47.337054,47.337069 0 0 1 1.0082,-0.99529 z m 123.971203,0 a 47.337054,47.337069 0 0 1 1.00821,0.99529 h 2.29185 a 72.000057,72.00008 0 0 0 -0.52658,-0.99529 z M 45.023139,76.082177 a 72.000057,72.00008 0 0 0 -0.482142,0.99477 h 57.025443 a 47.337054,47.337069 0 0 1 0.88263,-0.99477 z m 127.344131,0 a 47.337054,47.337069 0 0 1 0.88263,0.99477 h 1.33532 a 72.000057,72.00008 0 0 0 -0.48266,-0.99477 z M 43.776704,78.737829 a 72.000057,72.00008 0 0 0 -0.434083,0.995289 h 56.093717 a 47.337054,47.337069 0 0 1 0.761192,-0.995289 z m 130.841586,0 a 47.337054,47.337069 0 0 1 0.76119,0.995289 h 0.40359 A 72.000057,72.00008 0 0 0 175.349,78.737829 Z M 42.362837,82.150538 a 72.000057,72.00008 0 0 0 -0.374655,0.994774 h 55.132017 a 47.337054,47.337069 0 0 1 0.630968,-0.994774 z m -2.575035,8.088398 a 72.000057,72.00008 0 0 0 -0.245981,0.997355 h 53.59671 a 47.337054,47.337069 0 0 1 0.390158,-0.997355 z m -0.301792,1.232481 a 72.000057,72.00008 0 0 0 -0.268716,1.182874 h 53.410158 a 47.337054,47.337069 0 0 1 0.422714,-1.182874 z m -0.374137,1.673285 a 72.000057,72.00008 0 0 0 -0.283186,1.414382 H 92.01922 a 47.337054,47.337069 0 0 1 0.443383,-1.414382 z m -0.467156,2.422591 a 72.000057,72.00008 0 0 0 -0.284737,1.748213 h 52.93267 a 47.337054,47.337069 0 0 1 0.440283,-1.748213 z m -0.486791,3.193603 a 72.000057,72.00008 0 0 0 -0.249081,2.189014 h 52.690308 a 47.337054,47.337069 0 0 1 0.382405,-2.189014 z m -0.402557,3.982184 a 72.000057,72.00008 0 0 0 -0.147796,2.73782 h 52.531143 a 47.337054,47.337069 0 0 1 0.225308,-2.73782 z m -0.190688,4.78472 a 72.000057,72.00008 0 0 0 -0.0016,0.47026 72.000057,72.00008 0 0 0 0.05943,2.92695 h 52.539411 a 47.337054,47.337069 0 0 1 -0.09043,-2.92695 47.337054,47.337069 0 0 1 0.0026,-0.47026 z m 0.181385,5.59966 a 72.000057,72.00008 0 0 0 0.420644,4.1708 h 52.827249 a 47.337054,47.337069 0 0 1 -0.64337,-4.1708 z m 0.750858,6.427 a 72.000057,72.00008 0 0 0 2.404503,10.11359 h 54.421466 a 47.337054,47.337069 0 0 1 -3.818886,-10.11359 z m 3.158462,12.36979 a 72.000057,72.00008 0 0 0 1.61644,4.1708 h 56.03997 a 47.337054,47.337069 0 0 1 -2.748152,-4.1708 z m 134.679064,3.00912 a 47.337054,47.337069 0 0 1 -0.82991,1.16168 h 0.34932 a 72.000057,72.00008 0 0 0 0.48059,-1.16168 z m -132.084907,3.36465 a 72.000057,72.00008 0 0 0 1.6862,3.39721 h 58.226917 a 47.337054,47.337069 0 0 1 -3.1228,-3.39721 z m 129.527457,0 a 47.337054,47.337069 0 0 1 -3.12333,3.39721 h 2.5368 a 72.000057,72.00008 0 0 0 1.68569,-3.39721 z m -126.714709,5.44411 a 72.000057,72.00008 0 0 0 1.647959,2.73782 h 61.13114 a 47.337054,47.337069 0 0 1 -3.46749,-2.73782 z m 121.380669,0 a 47.337054,47.337069 0 0 1 -3.46853,2.73782 h 5.44153 a 72.000057,72.00008 0 0 0 1.64745,-2.73782 z m -118.561204,4.53099 a 72.000057,72.00008 0 0 0 1.536855,2.18901 h 65.070939 a 47.337054,47.337069 0 0 1 -3.95531,-2.18901 z m 112.399824,0 a 47.337054,47.337069 0 0 1 -3.95532,2.18901 h 9.38083 a 72.000057,72.00008 0 0 0 1.53737,-2.18901 z m -109.779315,3.6344 a 72.000057,72.00008 0 0 0 1.38958,1.74821 h 71.020965 a 47.337054,47.337069 0 0 1 -5.18987,-1.74821 z m 102.590085,0 a 47.337054,47.337069 0 0 1 -5.18728,1.74821 h 15.32981 a 72.000057,72.00008 0 0 0 1.38855,-1.74821 z m -100.35818,2.75642 a 72.000057,72.00008 0 0 0 1.235067,1.41387 H 163.15646 a 72.000057,72.00008 0 0 0 1.23558,-1.41387 h -19.04225 a 47.337054,47.337069 0 0 1 -7.94111,0.67128 47.337054,47.337069 0 0 1 -7.94421,-0.67128 z m 1.678965,1.90428 a 72.000057,72.00008 0 0 0 53.095455,23.42958 h 0.0543 a 72.000057,72.00008 0 0 0 53.14971,-23.42958 z" />
                                </g>
                                </g>
                                </g>
                                </g>
                                </g>
                                </g>
                                </g>
                                </g>
                              </g>
                            </g>
                          </g>
                        </g>
                      </g>
                    </g>
                  </g>
                </g>
              </g>
            </g>
          </g>
        </g>
        <g
           style="fill:url(#linearGradient1193);fill-opacity:1"
           id="g1017">
          <g
             style="fill:url(#linearGradient1193);fill-opacity:1"
             id="g1015">
            <g
               style="fill:url(#linearGradient1193);fill-opacity:1"
               id="g1013">
              <g
                 style="fill:url(#linearGradient1193);fill-opacity:1"
                 id="g1011">
                <g
                   style="fill:url(#linearGradient1193);fill-opacity:1"
                   id="g1009">
                  <g
                     style="fill:url(#linearGradient1193);fill-opacity:1"
                     id="g1007">
                    <g
                       style="fill:url(#linearGradient1193);fill-opacity:1"
                       id="g1005">
                      <g
                         style="fill:url(#linearGradient1193);fill-opacity:1"
                         id="g1003">
                        <g
                           style="fill:url(#linearGradient1193);fill-opacity:1"
                           id="g1001">
                          <g
                             style="fill:url(#linearGradient1193);fill-opacity:1"
                             id="g999">
                            <g
                               style="fill:url(#linearGradient1193);fill-opacity:1"
                               id="g997">
                              <g
                                 style="fill:url(#linearGradient1193);fill-opacity:1"
                                 id="g995">
                                <g
                                   style="fill:url(#linearGradient1193);fill-opacity:1"
                                   id="g993">
                                <g
                                   style="fill:url(#linearGradient1193);fill-opacity:1"
                                   id="g991">
                                <g
                                   style="fill:url(#linearGradient1193);fill-opacity:1"
                                   id="g989">
                                <g
                                   style="fill:url(#linearGradient1193);fill-opacity:1"
                                   id="g987">
                                <g
                                   style="fill:url(#linearGradient1193);fill-opacity:1"
                                   id="g985">
                                <g
                                   id="g983"
                                   style="fill:url(#linearGradient1193);fill-opacity:1">
                                <g
                                   id="g981"
                                   style="fill:url(#linearGradient1193);fill-opacity:1">
                                <g
                                   id="g979"
                                   style="fill-opacity:1;fill:url(#linearGradient1193)">
                                <path
                                   transform="scale(0.26458333)"
                                   d="m 407.76953,268.32031 a 178.91176,178.91176 0 0 0 -3.80664,3.1211 h 230.75 a 178.91176,178.91176 0 0 0 -3.80469,-3.1211 z m -8.12109,6.88281 a 178.91176,178.91176 0 0 0 -4.10547,3.8125 h 247.58984 a 178.91176,178.91176 0 0 0 -4.10351,-3.8125 z m -7.91406,7.57422 a 178.91176,178.91176 0 0 0 -4.5254,4.77735 H 651.4668 a 178.91176,178.91176 0 0 0 -4.52539,-4.77735 z m -7.86329,8.53711 a 178.91176,178.91176 0 0 0 -5.17187,6.27735 h 281.27539 a 178.91176,178.91176 0 0 0 -5.16992,-6.27735 z m -8.04882,10.03907 a 178.91176,178.91176 0 0 0 -6.36915,9.13671 h 298.62891 a 272.12629,272.12629 0 0 0 -1.61719,-4.10546 178.91176,178.91176 0 0 0 -3.61132,-5.03125 z M 367.06836,314.25 a 178.91176,178.91176 0 0 0 -13.57227,26.81055 H 677.81445 A 272.12629,272.12629 0 0 0 669.49609,314.25 Z m -15.04883,30.58008 a 178.91176,178.91176 0 0 0 -0.33398,0.88867 h 327.26953 a 272.12629,272.12629 0 0 0 -0.20899,-0.88867 z m -1.93164,5.35937 a 178.91176,178.91176 0 0 0 -0.625,1.85352 h 330.90625 a 272.12629,272.12629 0 0 0 -0.39844,-1.85352 z m -2.29883,7.19922 a 178.91176,178.91176 0 0 0 -1.08203,3.81055 h 335.42969 a 272.12629,272.12629 0 0 0 -0.69727,-3.81055 z m -2.74609,10.41797 a 178.91176,178.91176 0 0 0 -1.17578,5.46289 h 340.10547 a 272.12629,272.12629 0 0 0 -0.76368,-5.46289 z m -2.62109,13.73633 a 178.91176,178.91176 0 0 0 -0.88868,6.77734 h 343.96289 a 272.12629,272.12629 0 0 0 -0.58007,-6.77734 z m -1.74024,17.125 a 178.91176,178.91176 0 0 0 -0.24414,7.73633 h 345.7793 a 272.12629,272.12629 0 0 0 -0.16211,-7.73633 z m 0.0879,20.57617 a 178.91176,178.91176 0 0 0 0.71094,8.32422 h 344.05078 a 272.12629,272.12629 0 0 0 0.4668,-8.32422 z m 3.14453,24.08789 a 178.91176,178.91176 0 0 0 1.92774,8.52735 h 336.85156 a 272.12629,272.12629 0 0 0 1.24805,-8.52735 z m 16.36133,46.75195 a 178.91176,178.91176 0 0 0 4.6875,8.52735 h 305.79297 a 272.12629,272.12629 0 0 0 2.84766,-8.52735 z m 15.07422,24.29102 a 178.91176,178.91176 0 0 0 6.5332,8.32617 h 274.91211 a 178.91176,178.91176 0 0 0 6.5293,-8.32617 z m 18.33594,21.16602 a 178.91176,178.91176 0 0 0 8.35742,7.73632 h 234.58984 a 178.91176,178.91176 0 0 0 8.35938,-7.73632 z m 21.46093,18.08398 a 178.91176,178.91176 0 0 0 10.17969,6.77734 H 613.34961 A 178.91176,178.91176 0 0 0 623.5293,553.625 Z m 25.13086,15.05078 a 178.91176,178.91176 0 0 0 12.2168,5.46289 h 133.68164 a 178.91176,178.91176 0 0 0 12.22656,-5.46289 z m 31.83008,12.07031 a 178.91176,178.91176 0 0 0 17.21094,3.81055 h 60.04297 a 178.91176,178.91176 0 0 0 17.20508,-3.81055 z"
                                   style="opacity:0.514469;fill:url(#linearGradient1193);fill-opacity:1;fill-rule:evenodd;stroke-width:0.951602"
                                   id="path975" />
                                <path
                                   d="M 109.56285,35.997803 A 72.000057,72.00008 0 0 0 47.800745,70.99308 H 107.88853 A 47.337054,47.337069 0 0 1 137.40868,60.660894 47.337054,47.337069 0 0 1 166.9278,70.99308 h 4.39767 A 72.000057,72.00008 0 0 0 109.56285,35.997803 Z M 47.312919,71.818871 a 72.000057,72.00008 0 0 0 -0.567922,0.995288 h 58.995353 a 47.337054,47.337069 0 0 1 1.14153,-0.995288 z m 120.621021,0 a 47.337054,47.337069 0 0 1 1.14154,0.995288 h 3.30522 a 72.000057,72.00008 0 0 0 -0.56741,-0.995288 z m -121.743433,2.00401 a 72.000057,72.00008 0 0 0 -0.526581,0.99529 h 57.982494 a 47.337054,47.337069 0 0 1 1.0082,-0.99529 z m 123.971203,0 a 47.337054,47.337069 0 0 1 1.00821,0.99529 h 2.29185 a 72.000057,72.00008 0 0 0 -0.52658,-0.99529 z M 45.023139,76.082177 a 72.000057,72.00008 0 0 0 -0.482142,0.99477 h 57.025443 a 47.337054,47.337069 0 0 1 0.88263,-0.99477 z m 127.344131,0 a 47.337054,47.337069 0 0 1 0.88263,0.99477 h 1.33532 a 72.000057,72.00008 0 0 0 -0.48266,-0.99477 z M 43.776704,78.737829 a 72.000057,72.00008 0 0 0 -0.434083,0.995289 h 56.093717 a 47.337054,47.337069 0 0 1 0.761192,-0.995289 z m 130.841586,0 a 47.337054,47.337069 0 0 1 0.76119,0.995289 h 0.40359 A 72.000057,72.00008 0 0 0 175.349,78.737829 Z M 42.362837,82.150538 a 72.000057,72.00008 0 0 0 -0.374655,0.994774 h 55.132017 a 47.337054,47.337069 0 0 1 0.630968,-0.994774 z m -2.575035,8.088398 a 72.000057,72.00008 0 0 0 -0.245981,0.997355 h 53.59671 a 47.337054,47.337069 0 0 1 0.390158,-0.997355 z m -0.301792,1.232481 a 72.000057,72.00008 0 0 0 -0.268716,1.182874 h 53.410158 a 47.337054,47.337069 0 0 1 0.422714,-1.182874 z m -0.374137,1.673285 a 72.000057,72.00008 0 0 0 -0.283186,1.414382 H 92.01922 a 47.337054,47.337069 0 0 1 0.443383,-1.414382 z m -0.467156,2.422591 a 72.000057,72.00008 0 0 0 -0.284737,1.748213 h 52.93267 a 47.337054,47.337069 0 0 1 0.440283,-1.748213 z m -0.486791,3.193603 a 72.000057,72.00008 0 0 0 -0.249081,2.189014 h 52.690308 a 47.337054,47.337069 0 0 1 0.382405,-2.189014 z m -0.402557,3.982184 a 72.000057,72.00008 0 0 0 -0.147796,2.73782 h 52.531143 a 47.337054,47.337069 0 0 1 0.225308,-2.73782 z m -0.190688,4.78472 a 72.000057,72.00008 0 0 0 -0.0016,0.47026 72.000057,72.00008 0 0 0 0.05943,2.92695 h 52.539411 a 47.337054,47.337069 0 0 1 -0.09043,-2.92695 47.337054,47.337069 0 0 1 0.0026,-0.47026 z m 0.181385,5.59966 a 72.000057,72.00008 0 0 0 0.420644,4.1708 h 52.827249 a 47.337054,47.337069 0 0 1 -0.64337,-4.1708 z m 0.750858,6.427 a 72.000057,72.00008 0 0 0 2.404503,10.11359 h 54.421466 a 47.337054,47.337069 0 0 1 -3.818886,-10.11359 z m 3.158462,12.36979 a 72.000057,72.00008 0 0 0 1.61644,4.1708 h 56.03997 a 47.337054,47.337069 0 0 1 -2.748152,-4.1708 z m 134.679064,3.00912 a 47.337054,47.337069 0 0 1 -0.82991,1.16168 h 0.34932 a 72.000057,72.00008 0 0 0 0.48059,-1.16168 z m -132.084907,3.36465 a 72.000057,72.00008 0 0 0 1.6862,3.39721 h 58.226917 a 47.337054,47.337069 0 0 1 -3.1228,-3.39721 z m 129.527457,0 a 47.337054,47.337069 0 0 1 -3.12333,3.39721 h 2.5368 a 72.000057,72.00008 0 0 0 1.68569,-3.39721 z m -126.714709,5.44411 a 72.000057,72.00008 0 0 0 1.647959,2.73782 h 61.13114 a 47.337054,47.337069 0 0 1 -3.46749,-2.73782 z m 121.380669,0 a 47.337054,47.337069 0 0 1 -3.46853,2.73782 h 5.44153 a 72.000057,72.00008 0 0 0 1.64745,-2.73782 z m -118.561204,4.53099 a 72.000057,72.00008 0 0 0 1.536855,2.18901 h 65.070939 a 47.337054,47.337069 0 0 1 -3.95531,-2.18901 z m 112.399824,0 a 47.337054,47.337069 0 0 1 -3.95532,2.18901 h 9.38083 a 72.000057,72.00008 0 0 0 1.53737,-2.18901 z m -109.779315,3.6344 a 72.000057,72.00008 0 0 0 1.38958,1.74821 h 71.020965 a 47.337054,47.337069 0 0 1 -5.18987,-1.74821 z m 102.590085,0 a 47.337054,47.337069 0 0 1 -5.18728,1.74821 h 15.32981 a 72.000057,72.00008 0 0 0 1.38855,-1.74821 z m -100.35818,2.75642 a 72.000057,72.00008 0 0 0 1.235067,1.41387 H 163.15646 a 72.000057,72.00008 0 0 0 1.23558,-1.41387 h -19.04225 a 47.337054,47.337069 0 0 1 -7.94111,0.67128 47.337054,47.337069 0 0 1 -7.94421,-0.67128 z m 1.678965,1.90428 a 72.000057,72.00008 0 0 0 53.095455,23.42958 h 0.0543 a 72.000057,72.00008 0 0 0 53.14971,-23.42958 z"
                                   style="opacity:0.62701;fill:url(#linearGradient1193);fill-opacity:1;fill-rule:evenodd;stroke-width:0.268986"
                                   id="path977" />
                                </g>
                                </g>
                                </g>
                                </g>
                                </g>
                                </g>
                                </g>
                                </g>
                              </g>
                            </g>
                          </g>
                        </g>
                      </g>
                    </g>
                  </g>
                </g>
              </g>
            </g>
          </g>
        </g>
        <g
           id="g1103"
           style="fill:url(#linearGradient1193);fill-opacity:1">
          <g
             id="g1101"
             style="fill:url(#linearGradient1193);fill-opacity:1">
            <g
               id="g1099"
               style="fill:url(#linearGradient1193);fill-opacity:1">
              <g
                 id="g1097"
                 style="fill:url(#linearGradient1193);fill-opacity:1">
                <g
                   id="g1095"
                   style="fill:url(#linearGradient1193);fill-opacity:1">
                  <g
                     id="g1093"
                     style="fill:url(#linearGradient1193);fill-opacity:1">
                    <g
                       id="g1091"
                       style="fill:url(#linearGradient1193);fill-opacity:1">
                      <g
                         id="g1089"
                         style="fill:url(#linearGradient1193);fill-opacity:1">
                        <g
                           id="g1087"
                           style="fill:url(#linearGradient1193);fill-opacity:1">
                          <g
                             id="g1085"
                             style="fill:url(#linearGradient1193);fill-opacity:1">
                            <g
                               id="g1083"
                               style="fill:url(#linearGradient1193);fill-opacity:1">
                              <g
                                 id="g1081"
                                 style="fill:url(#linearGradient1193);fill-opacity:1">
                                <g
                                   id="g1079"
                                   style="fill:url(#linearGradient1193);fill-opacity:1">
                                <g
                                   id="g1077"
                                   style="fill:url(#linearGradient1193);fill-opacity:1">
                                <g
                                   id="g1075"
                                   style="fill:url(#linearGradient1193);fill-opacity:1">
                                <g
                                   id="g1073"
                                   style="fill:url(#linearGradient1193);fill-opacity:1">
                                <g
                                   id="g1071"
                                   style="fill:url(#linearGradient1193);fill-opacity:1">
                                <g
                                   style="fill:url(#linearGradient1193);fill-opacity:1"
                                   id="g1069">
                                <g
                                   style="fill:url(#linearGradient1193);fill-opacity:1"
                                   id="g1067">
                                <g
                                   style="fill-opacity:1;fill:url(#linearGradient1193)"
                                   id="g1065">
                                <path
                                   id="path1061"
                                   style="opacity:0.514469;fill:url(#linearGradient1193);fill-opacity:1;fill-rule:evenodd;stroke-width:0.951602"
                                   d="m 407.76953,268.32031 a 178.91176,178.91176 0 0 0 -3.80664,3.1211 h 230.75 a 178.91176,178.91176 0 0 0 -3.80469,-3.1211 z m -8.12109,6.88281 a 178.91176,178.91176 0 0 0 -4.10547,3.8125 h 247.58984 a 178.91176,178.91176 0 0 0 -4.10351,-3.8125 z m -7.91406,7.57422 a 178.91176,178.91176 0 0 0 -4.5254,4.77735 H 651.4668 a 178.91176,178.91176 0 0 0 -4.52539,-4.77735 z m -7.86329,8.53711 a 178.91176,178.91176 0 0 0 -5.17187,6.27735 h 281.27539 a 178.91176,178.91176 0 0 0 -5.16992,-6.27735 z m -8.04882,10.03907 a 178.91176,178.91176 0 0 0 -6.36915,9.13671 h 298.62891 a 272.12629,272.12629 0 0 0 -1.61719,-4.10546 178.91176,178.91176 0 0 0 -3.61132,-5.03125 z M 367.06836,314.25 a 178.91176,178.91176 0 0 0 -13.57227,26.81055 H 677.81445 A 272.12629,272.12629 0 0 0 669.49609,314.25 Z m -15.04883,30.58008 a 178.91176,178.91176 0 0 0 -0.33398,0.88867 h 327.26953 a 272.12629,272.12629 0 0 0 -0.20899,-0.88867 z m -1.93164,5.35937 a 178.91176,178.91176 0 0 0 -0.625,1.85352 h 330.90625 a 272.12629,272.12629 0 0 0 -0.39844,-1.85352 z m -2.29883,7.19922 a 178.91176,178.91176 0 0 0 -1.08203,3.81055 h 335.42969 a 272.12629,272.12629 0 0 0 -0.69727,-3.81055 z m -2.74609,10.41797 a 178.91176,178.91176 0 0 0 -1.17578,5.46289 h 340.10547 a 272.12629,272.12629 0 0 0 -0.76368,-5.46289 z m -2.62109,13.73633 a 178.91176,178.91176 0 0 0 -0.88868,6.77734 h 343.96289 a 272.12629,272.12629 0 0 0 -0.58007,-6.77734 z m -1.74024,17.125 a 178.91176,178.91176 0 0 0 -0.24414,7.73633 h 345.7793 a 272.12629,272.12629 0 0 0 -0.16211,-7.73633 z m 0.0879,20.57617 a 178.91176,178.91176 0 0 0 0.71094,8.32422 h 344.05078 a 272.12629,272.12629 0 0 0 0.4668,-8.32422 z m 3.14453,24.08789 a 178.91176,178.91176 0 0 0 1.92774,8.52735 h 336.85156 a 272.12629,272.12629 0 0 0 1.24805,-8.52735 z m 16.36133,46.75195 a 178.91176,178.91176 0 0 0 4.6875,8.52735 h 305.79297 a 272.12629,272.12629 0 0 0 2.84766,-8.52735 z m 15.07422,24.29102 a 178.91176,178.91176 0 0 0 6.5332,8.32617 h 274.91211 a 178.91176,178.91176 0 0 0 6.5293,-8.32617 z m 18.33594,21.16602 a 178.91176,178.91176 0 0 0 8.35742,7.73632 h 234.58984 a 178.91176,178.91176 0 0 0 8.35938,-7.73632 z m 21.46093,18.08398 a 178.91176,178.91176 0 0 0 10.17969,6.77734 H 613.34961 A 178.91176,178.91176 0 0 0 623.5293,553.625 Z m 25.13086,15.05078 a 178.91176,178.91176 0 0 0 12.2168,5.46289 h 133.68164 a 178.91176,178.91176 0 0 0 12.22656,-5.46289 z m 31.83008,12.07031 a 178.91176,178.91176 0 0 0 17.21094,3.81055 h 60.04297 a 178.91176,178.91176 0 0 0 17.20508,-3.81055 z"
                                   transform="scale(0.26458333)" />
                                <path
                                   id="path1063"
                                   style="opacity:0.62701;fill:url(#linearGradient1193);fill-opacity:1;fill-rule:evenodd;stroke-width:0.268986"
                                   d="M 109.56285,35.997803 A 72.000057,72.00008 0 0 0 47.800745,70.99308 H 107.88853 A 47.337054,47.337069 0 0 1 137.40868,60.660894 47.337054,47.337069 0 0 1 166.9278,70.99308 h 4.39767 A 72.000057,72.00008 0 0 0 109.56285,35.997803 Z M 47.312919,71.818871 a 72.000057,72.00008 0 0 0 -0.567922,0.995288 h 58.995353 a 47.337054,47.337069 0 0 1 1.14153,-0.995288 z m 120.621021,0 a 47.337054,47.337069 0 0 1 1.14154,0.995288 h 3.30522 a 72.000057,72.00008 0 0 0 -0.56741,-0.995288 z m -121.743433,2.00401 a 72.000057,72.00008 0 0 0 -0.526581,0.99529 h 57.982494 a 47.337054,47.337069 0 0 1 1.0082,-0.99529 z m 123.971203,0 a 47.337054,47.337069 0 0 1 1.00821,0.99529 h 2.29185 a 72.000057,72.00008 0 0 0 -0.52658,-0.99529 z M 45.023139,76.082177 a 72.000057,72.00008 0 0 0 -0.482142,0.99477 h 57.025443 a 47.337054,47.337069 0 0 1 0.88263,-0.99477 z m 127.344131,0 a 47.337054,47.337069 0 0 1 0.88263,0.99477 h 1.33532 a 72.000057,72.00008 0 0 0 -0.48266,-0.99477 z M 43.776704,78.737829 a 72.000057,72.00008 0 0 0 -0.434083,0.995289 h 56.093717 a 47.337054,47.337069 0 0 1 0.761192,-0.995289 z m 130.841586,0 a 47.337054,47.337069 0 0 1 0.76119,0.995289 h 0.40359 A 72.000057,72.00008 0 0 0 175.349,78.737829 Z M 42.362837,82.150538 a 72.000057,72.00008 0 0 0 -0.374655,0.994774 h 55.132017 a 47.337054,47.337069 0 0 1 0.630968,-0.994774 z m -2.575035,8.088398 a 72.000057,72.00008 0 0 0 -0.245981,0.997355 h 53.59671 a 47.337054,47.337069 0 0 1 0.390158,-0.997355 z m -0.301792,1.232481 a 72.000057,72.00008 0 0 0 -0.268716,1.182874 h 53.410158 a 47.337054,47.337069 0 0 1 0.422714,-1.182874 z m -0.374137,1.673285 a 72.000057,72.00008 0 0 0 -0.283186,1.414382 H 92.01922 a 47.337054,47.337069 0 0 1 0.443383,-1.414382 z m -0.467156,2.422591 a 72.000057,72.00008 0 0 0 -0.284737,1.748213 h 52.93267 a 47.337054,47.337069 0 0 1 0.440283,-1.748213 z m -0.486791,3.193603 a 72.000057,72.00008 0 0 0 -0.249081,2.189014 h 52.690308 a 47.337054,47.337069 0 0 1 0.382405,-2.189014 z m -0.402557,3.982184 a 72.000057,72.00008 0 0 0 -0.147796,2.73782 h 52.531143 a 47.337054,47.337069 0 0 1 0.225308,-2.73782 z m -0.190688,4.78472 a 72.000057,72.00008 0 0 0 -0.0016,0.47026 72.000057,72.00008 0 0 0 0.05943,2.92695 h 52.539411 a 47.337054,47.337069 0 0 1 -0.09043,-2.92695 47.337054,47.337069 0 0 1 0.0026,-0.47026 z m 0.181385,5.59966 a 72.000057,72.00008 0 0 0 0.420644,4.1708 h 52.827249 a 47.337054,47.337069 0 0 1 -0.64337,-4.1708 z m 0.750858,6.427 a 72.000057,72.00008 0 0 0 2.404503,10.11359 h 54.421466 a 47.337054,47.337069 0 0 1 -3.818886,-10.11359 z m 3.158462,12.36979 a 72.000057,72.00008 0 0 0 1.61644,4.1708 h 56.03997 a 47.337054,47.337069 0 0 1 -2.748152,-4.1708 z m 134.679064,3.00912 a 47.337054,47.337069 0 0 1 -0.82991,1.16168 h 0.34932 a 72.000057,72.00008 0 0 0 0.48059,-1.16168 z m -132.084907,3.36465 a 72.000057,72.00008 0 0 0 1.6862,3.39721 h 58.226917 a 47.337054,47.337069 0 0 1 -3.1228,-3.39721 z m 129.527457,0 a 47.337054,47.337069 0 0 1 -3.12333,3.39721 h 2.5368 a 72.000057,72.00008 0 0 0 1.68569,-3.39721 z m -126.714709,5.44411 a 72.000057,72.00008 0 0 0 1.647959,2.73782 h 61.13114 a 47.337054,47.337069 0 0 1 -3.46749,-2.73782 z m 121.380669,0 a 47.337054,47.337069 0 0 1 -3.46853,2.73782 h 5.44153 a 72.000057,72.00008 0 0 0 1.64745,-2.73782 z m -118.561204,4.53099 a 72.000057,72.00008 0 0 0 1.536855,2.18901 h 65.070939 a 47.337054,47.337069 0 0 1 -3.95531,-2.18901 z m 112.399824,0 a 47.337054,47.337069 0 0 1 -3.95532,2.18901 h 9.38083 a 72.000057,72.00008 0 0 0 1.53737,-2.18901 z m -109.779315,3.6344 a 72.000057,72.00008 0 0 0 1.38958,1.74821 h 71.020965 a 47.337054,47.337069 0 0 1 -5.18987,-1.74821 z m 102.590085,0 a 47.337054,47.337069 0 0 1 -5.18728,1.74821 h 15.32981 a 72.000057,72.00008 0 0 0 1.38855,-1.74821 z m -100.35818,2.75642 a 72.000057,72.00008 0 0 0 1.235067,1.41387 H 163.15646 a 72.000057,72.00008 0 0 0 1.23558,-1.41387 h -19.04225 a 47.337054,47.337069 0 0 1 -7.94111,0.67128 47.337054,47.337069 0 0 1 -7.94421,-0.67128 z m 1.678965,1.90428 a 72.000057,72.00008 0 0 0 53.095455,23.42958 h 0.0543 a 72.000057,72.00008 0 0 0 53.14971,-23.42958 z" />
                                </g>
                                </g>
                                </g>
                                </g>
                                </g>
                                </g>
                                </g>
                                </g>
                              </g>
                            </g>
                          </g>
                        </g>
                      </g>
                    </g>
                  </g>
                </g>
              </g>
            </g>
          </g>
        </g>
      </g>
    </g>
  </g>
</svg>
