<?xml version="1.0" encoding="UTF-8" standalone="no"?>
<svg
  preserveAspectRatio="none"
   xmlns:dc="http://purl.org/dc/elements/1.1/"
   xmlns:cc="http://creativecommons.org/ns#"
   xmlns:rdf="http://www.w3.org/1999/02/22-rdf-syntax-ns#"
   xmlns:svg="http://www.w3.org/2000/svg"
   xmlns="http://www.w3.org/2000/svg"
   xmlns:sodipodi="http://sodipodi.sourceforge.net/DTD/sodipodi-0.dtd"
   xmlns:inkscape="http://www.inkscape.org/namespaces/inkscape"
   id="svg1677"
   version="1.1"
   viewBox="0 0 398.93726 132.23616"
   height="132.23616mm"
   width="398.93726mm"
   inkscape:version="1.0 (4035a4f, 2020-05-01)"
   sodipodi:docname="sky2.svg">
  <defs
     id="defs1671" />
  <sodipodi:namedview
     id="base"
     pagecolor="#ffffff"
     bordercolor="#666666"
     borderopacity="1.0"
     inkscape:pageopacity="0.0"
     inkscape:pageshadow="2"
     inkscape:zoom="0.43887858"
     inkscape:cx="863.79992"
     inkscape:cy="404.08943"
     inkscape:document-units="mm"
     inkscape:current-layer="layer1"
     inkscape:document-rotation="0"
     showgrid="false"
     inkscape:window-width="1440"
     inkscape:window-height="855"
     inkscape:window-x="0"
     inkscape:window-y="23"
     inkscape:window-maximized="0"
     inkscape:snap-global="false" />
  <metadata
     id="metadata1674">
    <rdf:RDF>
      <cc:Work
         rdf:about="">
        <dc:format>image/svg+xml</dc:format>
        <dc:type
           rdf:resource="http://purl.org/dc/dcmitype/StillImage" />
        <dc:title></dc:title>
      </cc:Work>
    </rdf:RDF>
  </metadata>
  <g
     transform="translate(18.902804,-30.09009)"
     inkscape:label="Layer 1"
     inkscape:groupmode="layer"
     id="layer1">
    <g
       transform="matrix(3.2639985,0,0,3.2639985,-207.10728,-310.44189)"
       id="g2503">
      <path
         sodipodi:nodetypes="cccccccccccccccccccc"
         id="path3987"
         d="m 57.96943,144.71976 0.55843,-1.39606 1.95448,-2.2337 7.39912,-5.86346 8.51599,-7.11992 5.16543,-4.18818 4.04858,-3.62976 2.6789,-0.89244 2.09808,0.66536 2.28814,1.85324 8.64057,-7.41982 11.58732,-9.35361 2.5142,-0.46407 2.2324,1.15436 11.72691,10.89702 6.61572,0.0748 13.24862,8.54186 3.13809,-0.70764 4.88937,1.62979 22.40962,17.52025"
         style="fill:none;fill-opacity:0.8;stroke:#a57ed9;stroke-width:0.665001;stroke-linecap:butt;stroke-linejoin:miter;stroke-miterlimit:4;stroke-dasharray:none;stroke-opacity:1" />
      <path
         style="fill:none;fill-opacity:0.8;stroke:#a57ed9;stroke-width:0.283534;stroke-linecap:butt;stroke-linejoin:miter;stroke-miterlimit:4;stroke-dasharray:none;stroke-opacity:1"
         d="m 98.35907,144.78674 0.24818,-0.57105 0.86861,-0.91368 3.28834,-2.39841 3.7847,-2.91235 2.29564,-1.71315 1.79928,-1.48473 1.19057,-0.36504 0.93243,0.27216 2.38568,-1.08321 2.47129,-1.19377 4.41265,-2.08167 1.7491,-0.18983 3.72969,1.44127 4.26409,1.35628 4.88109,-2.72392 6.76145,0.78509 3.66334,4.83649 3.13977,3.5671 2.22481,4.99121"
         id="path4021"
         sodipodi:nodetypes="cccccccccccccccccccc" />
      <path
         style="fill:none;fill-opacity:0.8;stroke:#a57ed9;stroke-width:0.664437;stroke-linecap:butt;stroke-linejoin:miter;stroke-miterlimit:4;stroke-dasharray:none;stroke-opacity:1"
         d="m 58.02918,144.71999 c 0,0 0.395,-0.9887 0.521,-1.3012 0.023,-0.0588 0.037,-0.0937 0.037,-0.0937 0,-3e-4 1.346,-1.5381 1.803,-2.0604 0.093,-0.1069 0.15,-0.1713 0.15,-0.1714 10e-4,-5e-4 5.477,-4.3397 7.002,-5.5486 0.247,-0.1959 0.391,-0.3097 0.391,-0.3098 0.001,-9e-4 5.882,-4.9172 7.865,-6.5748 0.402,-0.3364 0.644,-0.5389 0.644,-0.5391 0.001,-7e-4 2.906,-2.3561 4.357,-3.5319 0.482,-0.3914 0.804,-0.6524 0.805,-0.6527 0,-6e-4 1.947,-1.7454 3.138,-2.8139 0.527,-0.472 0.907,-0.8124 0.907,-0.8125 0.001,-1e-4 0.785,-0.2616 1.505,-0.5012 0.609,-0.2029 1.171,-0.3901 1.172,-0.39 0,1e-4 0.433,0.1375 0.906,0.2873 0.566,0.1796 1.19,0.3771 1.19,0.3769 l 2.287,1.8497 c 0,-2e-4 0.516,-0.4429 1.295,-1.1116 1.234,-1.0598 3.133,-2.6895 4.688,-4.0247 1.479,-1.2697 2.65,-2.2752 2.651,-2.2757 0.002,-9e-4 2.923,-2.3576 5.828,-4.7028 1.078,-0.8706 2.158,-1.7401 3.083,-2.4868 1.545,-1.2471 2.667,-2.1522 2.668,-2.1518 l 2.513,-0.4627 2.23,1.1532 c 0,1e-4 0.133,0.1234 0.37,0.3437 1.12,1.0409 4.577,4.2492 7.381,6.8542 2.178,2.0241 3.967,3.6843 3.968,3.6834 l 6.61,0.0726 c 0,-1e-4 0.169,0.1083 0.467,0.3008 2.349,1.5146 12.771,8.2293 12.772,8.2294 0.001,0 0.046,-0.0102 0.125,-0.0282 0.583,-0.1314 3.009,-0.6777 3.01,-0.6768 l 4.884,1.6301 c 0.002,0.001 1.752,1.3705 4.272,3.341 2.392,1.8698 5.482,4.2877 8.427,6.5897 5.05,3.9486 9.688,7.5791 9.688,7.5791"
         id="path4508" />
      <path
         style="fill:none;fill-opacity:0.8;stroke:#a57ed9;stroke-width:0.662744;stroke-linecap:butt;stroke-linejoin:miter;stroke-miterlimit:4;stroke-dasharray:none;stroke-opacity:1"
         d="m 58.20818,144.7201 c 0,0 0.395,-0.9868 0.52,-1.298 0.023,-0.0585 0.037,-0.0933 0.037,-0.0934 10e-4,-9e-4 1.344,-1.5352 1.799,-2.0551 0.093,-0.1065 0.149,-0.1707 0.149,-0.1709 0.003,-0.002 5.467,-4.3308 6.986,-5.5344 0.246,-0.195 0.389,-0.3085 0.39,-0.309 0.004,-0.003 5.871,-4.9076 7.845,-6.5579 0.401,-0.3349 0.642,-0.5369 0.643,-0.5377 0.004,-0.003 2.903,-2.3522 4.346,-3.5228 0.481,-0.3897 0.802,-0.6501 0.803,-0.6511 0.003,-0.003 1.945,-1.743 3.131,-2.8067 0.525,-0.4699 0.904,-0.8091 0.905,-0.8096 0.002,-6e-4 0.785,-0.2614 1.501,-0.4999 0.607,-0.202 1.168,-0.388 1.17,-0.3876 0.001,4e-4 0.433,0.1374 0.903,0.2865 0.564,0.1789 1.186,0.3751 1.188,0.3743 0.002,-9e-4 2.279,1.8401 2.281,1.8391 0.003,-0.001 0.517,-0.4424 1.293,-1.1081 1.228,-1.0551 3.13,-2.6829 4.678,-4.0121 1.472,-1.2641 2.641,-2.2664 2.646,-2.2686 0.007,-0.004 2.923,-2.3534 5.815,-4.6882 1.074,-0.8667 2.156,-1.7331 3.077,-2.4765 1.538,-1.2416 2.659,-2.1416 2.663,-2.1398 l 2.506,-0.4589 c 0.002,0.001 2.224,1.1494 2.225,1.1499 0.001,3e-4 0.133,0.1232 0.369,0.3426 1.116,1.0361 4.576,4.2363 7.367,6.8297 2.168,2.0151 3.954,3.6654 3.96,3.6618 0.006,-0.003 6.589,0.0674 6.592,0.0659 10e-4,-5e-4 0.169,0.1073 0.466,0.299 2.339,1.5078 12.742,8.1957 12.745,8.1962 0.001,0 0.046,-0.0101 0.125,-0.028 0.58,-0.1308 2.997,-0.6727 3,-0.669 0.003,0.003 4.866,1.6273 4.869,1.631 0.004,0.006 1.75,1.3729 4.259,3.3347 2.381,1.8615 5.472,4.2845 8.403,6.5763 5.028,3.931 9.655,7.5676 9.655,7.5676"
         id="path4510" />
      <path
         style="fill:none;fill-opacity:0.8;stroke:#a57ed9;stroke-width:0.659922;stroke-linecap:butt;stroke-linejoin:miter;stroke-miterlimit:4;stroke-dasharray:none;stroke-opacity:1"
         d="m 58.50718,144.72056 c 0,0 0.394,-0.9837 0.517,-1.2925 0.023,-0.0581 0.037,-0.0927 0.038,-0.093 0.002,-0.002 1.34,-1.5303 1.791,-2.0464 0.093,-0.1056 0.149,-0.1695 0.149,-0.1701 0.007,-0.005 5.45,-4.3159 6.958,-5.5105 0.244,-0.1936 0.387,-0.3066 0.388,-0.3078 0.01,-0.008 5.855,-4.8917 7.814,-6.5297 0.398,-0.3325 0.638,-0.5336 0.641,-0.5354 0.008,-0.006 2.895,-2.3458 4.328,-3.5077 0.477,-0.3867 0.797,-0.6461 0.8,-0.6484 0.007,-0.006 1.941,-1.7389 3.118,-2.7947 0.521,-0.4664 0.899,-0.8036 0.902,-0.8047 0.005,-10e-4 0.784,-0.261 1.495,-0.4978 0.602,-0.2004 1.161,-0.3845 1.165,-0.3835 0.002,8e-4 0.433,0.1373 0.9,0.2852 0.559,0.1776 1.178,0.3716 1.182,0.3698 0.005,-0.002 2.268,1.8237 2.273,1.8214 0.006,-0.002 0.519,-0.4414 1.288,-1.1022 1.22,-1.0472 3.126,-2.6717 4.662,-3.9911 1.462,-1.2547 2.626,-2.2517 2.637,-2.2566 0.017,-0.008 2.923,-2.3465 5.794,-4.6639 1.066,-0.8603 2.153,-1.7217 3.067,-2.4595 1.527,-1.2324 2.644,-2.1237 2.654,-2.1198 0.005,0.002 2.49,-0.4542 2.495,-0.4525 0.006,0.002 2.213,1.1432 2.216,1.1444 0.002,7e-4 0.134,0.1229 0.369,0.3406 1.106,1.0285 4.573,4.2149 7.343,6.789 2.152,2.0001 3.932,3.634 3.947,3.6259 0.013,-0.008 6.555,0.0581 6.562,0.0547 0.001,-0.001 0.169,0.1056 0.464,0.2959 2.321,1.4965 12.691,8.14 12.7,8.141 0,1e-4 0.045,-0.01 0.124,-0.0277 0.576,-0.1299 2.978,-0.6643 2.984,-0.6559 0.005,0.007 4.836,1.6241 4.843,1.6324 0.01,0.0136 1.748,1.377 4.238,3.3242 2.363,1.8476 5.455,4.2791 8.364,6.5539 4.991,3.9018 9.6,7.5484 9.6,7.5484"
         id="path4512" />
      <path
         style="fill:none;fill-opacity:0.8;stroke:#a57ed9;stroke-width:0.655972;stroke-linecap:butt;stroke-linejoin:miter;stroke-miterlimit:4;stroke-dasharray:none;stroke-opacity:1"
         d="m 58.92518,144.72136 c 0,0 0.392,-0.9793 0.515,-1.285 0.023,-0.0574 0.037,-0.0918 0.037,-0.0923 0.004,-0.004 1.335,-1.5235 1.782,-2.0342 0.091,-0.1045 0.147,-0.168 0.148,-0.1689 0.012,-0.009 5.426,-4.2952 6.918,-5.4773 0.242,-0.1915 0.383,-0.3039 0.386,-0.3059 0.018,-0.0135 5.831,-4.8696 7.77,-6.4904 0.393,-0.3289 0.633,-0.5288 0.637,-0.532 0.015,-0.011 2.886,-2.3369 4.304,-3.4865 0.472,-0.3828 0.79,-0.6407 0.795,-0.6448 0.012,-0.0102 1.936,-1.7331 3.101,-2.7778 0.515,-0.4615 0.892,-0.796 0.898,-0.798 0.008,-0.002 0.783,-0.2604 1.486,-0.4946 0.596,-0.1984 1.152,-0.3797 1.158,-0.3779 0.005,0.001 0.433,0.137 0.895,0.2834 0.554,0.1757 1.168,0.3667 1.175,0.3635 0.008,-0.004 2.253,1.8007 2.262,1.7966 0.009,-0.004 0.52,-0.44 1.282,-1.0939 1.206,-1.0362 3.118,-2.6562 4.639,-3.9618 1.446,-1.2415 2.605,-2.2311 2.623,-2.2398 0.031,-0.0144 2.925,-2.3368 5.765,-4.6298 1.055,-0.8513 2.149,-1.7056 3.053,-2.4358 1.511,-1.2194 2.623,-2.0987 2.641,-2.0917 0.009,0.003 2.472,-0.4466 2.48,-0.4434 0.01,0.004 2.199,1.1345 2.204,1.1365 0.004,0.001 0.135,0.1225 0.367,0.3379 1.095,1.0177 4.57,4.1849 7.311,6.732 2.13,1.9791 3.901,3.59 3.927,3.5755 0.024,-0.0134 6.509,0.0451 6.52,0.0391 0.003,-0.002 0.17,0.1033 0.462,0.2916 2.297,1.4808 12.622,8.0619 12.637,8.0637 0.001,1e-4 0.046,-0.01 0.123,-0.0274 0.57,-0.1284 2.95,-0.6525 2.962,-0.6375 0.009,0.0128 4.795,1.6197 4.806,1.6344 0.018,0.0242 1.745,1.3827 4.209,3.3095 2.339,1.8282 5.431,4.2717 8.31,6.5225 4.938,3.8608 9.522,7.5216 9.522,7.5216"
         id="path4514" />
      <path
         style="fill:none;fill-opacity:0.8;stroke:#a57ed9;stroke-width:0.650894;stroke-linecap:butt;stroke-linejoin:miter;stroke-miterlimit:4;stroke-dasharray:none;stroke-opacity:1"
         d="m 59.46318,144.72225 c 0,0 0.39,-0.9738 0.511,-1.2753 0.022,-0.0566 0.036,-0.0907 0.037,-0.0915 0.006,-0.006 1.328,-1.5147 1.769,-2.0184 0.09,-0.1032 0.145,-0.166 0.147,-0.1675 0.019,-0.0136 5.396,-4.2685 6.868,-5.4345 0.238,-0.1888 0.379,-0.3004 0.383,-0.3036 0.027,-0.0211 5.801,-4.841 7.713,-6.4397 0.388,-0.3245 0.626,-0.5228 0.632,-0.5278 0.023,-0.0172 2.874,-2.3254 4.273,-3.4593 0.465,-0.3776 0.781,-0.6336 0.789,-0.64 0.019,-0.016 1.929,-1.7257 3.078,-2.7562 0.508,-0.4552 0.883,-0.7862 0.893,-0.7892 0.012,-0.004 0.782,-0.2597 1.475,-0.4908 0.588,-0.1956 1.14,-0.3733 1.149,-0.3706 0.008,0.002 0.433,0.1368 0.888,0.2812 0.547,0.1733 1.156,0.3604 1.167,0.3554 0.012,-0.006 2.233,1.7712 2.247,1.7648 0.014,-0.007 0.523,-0.4384 1.274,-1.0833 1.19,-1.0221 3.11,-2.6363 4.609,-3.9241 1.426,-1.2245 2.578,-2.2047 2.607,-2.2183 0.048,-0.0225 2.925,-2.3243 5.727,-4.586 1.041,-0.8397 2.144,-1.685 3.036,-2.4051 1.49,-1.2028 2.596,-2.0667 2.624,-2.0558 0.013,0.005 2.448,-0.4366 2.461,-0.4318 0.016,0.006 2.18,1.1233 2.188,1.1266 0.005,0.002 0.136,0.1219 0.364,0.3344 1.081,1.0038 4.566,4.1463 7.27,6.6586 2.101,1.9522 3.862,3.5334 3.902,3.5108 0.038,-0.021 6.449,0.0285 6.466,0.0191 0.005,-0.003 0.17,0.1002 0.459,0.2859 2.265,1.4606 12.532,7.9616 12.556,7.9644 0.001,1e-4 0.045,-0.01 0.122,-0.0269 0.562,-0.1268 2.915,-0.6374 2.933,-0.6139 0.015,0.0199 4.742,1.614 4.759,1.6369 0.029,0.0378 1.741,1.3901 4.172,3.2905 2.306,1.8034 5.399,4.2621 8.239,6.4823 4.87,3.8082 9.422,7.4871 9.422,7.4871"
         id="path4516" />
      <path
         style="fill:none;fill-opacity:0.8;stroke:#a57ed9;stroke-width:0.644686;stroke-linecap:butt;stroke-linejoin:miter;stroke-miterlimit:4;stroke-dasharray:none;stroke-opacity:1"
         d="m 60.12018,144.72321 c 0,0 0.388,-0.967 0.507,-1.2633 0.022,-0.0557 0.036,-0.0894 0.037,-0.0905 0.008,-0.009 1.319,-1.5041 1.753,-1.9993 0.088,-0.1013 0.143,-0.1635 0.146,-0.1655 0.027,-0.0197 5.359,-4.236 6.805,-5.3823 0.235,-0.1856 0.374,-0.2961 0.38,-0.3007 0.04,-0.0305 5.764,-4.8062 7.644,-6.3779 0.382,-0.3189 0.617,-0.5154 0.627,-0.5226 0.033,-0.0248 2.859,-2.3112 4.234,-3.4261 0.458,-0.3711 0.77,-0.6249 0.782,-0.6341 0.027,-0.023 1.92,-1.7166 3.05,-2.7297 0.5,-0.4476 0.873,-0.7742 0.887,-0.7786 0.017,-0.005 0.779,-0.2588 1.461,-0.4859 0.578,-0.1924 1.126,-0.3657 1.139,-0.3618 0.011,0.003 0.432,0.1365 0.88,0.2785 0.537,0.1703 1.139,0.3526 1.155,0.3455 0.018,-0.008 2.209,1.735 2.23,1.7258 0.02,-0.009 0.525,-0.4363 1.263,-1.0703 1.17,-1.0048 3.099,-2.6119 4.574,-3.8779 1.402,-1.2039 2.545,-2.1725 2.586,-2.1921 0.069,-0.0324 2.927,-2.3089 5.682,-4.5325 1.022,-0.8254 2.136,-1.6597 3.013,-2.3677 1.465,-1.1824 2.564,-2.0274 2.604,-2.0117 0.019,0.007 2.419,-0.4246 2.437,-0.4176 0.023,0.009 2.157,1.1097 2.169,1.1143 0.007,0.003 0.137,0.1212 0.362,0.3301 1.062,0.9869 4.561,4.0992 7.219,6.5691 2.065,1.9192 3.813,3.4642 3.872,3.4316 0.054,-0.0301 6.375,0.008 6.4,-0.005 0.007,-0.004 0.171,0.0964 0.454,0.279 2.227,1.4359 12.423,7.8389 12.457,7.843 0.002,2e-4 0.046,-0.009 0.121,-0.0264 0.553,-0.1246 2.872,-0.6188 2.897,-0.5851 0.022,0.0287 4.678,1.6072 4.703,1.6402 0.041,0.0544 1.736,1.399 4.126,3.2673 2.267,1.7729 5.36,4.2503 8.152,6.433 4.789,3.7438 9.301,7.4449 9.301,7.4449"
         id="path4518" />
      <path
         style="fill:none;fill-opacity:0.8;stroke:#a57ed9;stroke-width:0.63735;stroke-linecap:butt;stroke-linejoin:miter;stroke-miterlimit:4;stroke-dasharray:none;stroke-opacity:1"
         d="m 60.89718,144.72452 c 0,0 0.385,-0.959 0.501,-1.2493 0.022,-0.0546 0.036,-0.0878 0.037,-0.0894 0.011,-0.0118 1.31,-1.4914 1.734,-1.9765 0.087,-0.0993 0.142,-0.1606 0.146,-0.1634 0.036,-0.0268 5.315,-4.1974 6.732,-5.3204 0.229,-0.1819 0.367,-0.2912 0.375,-0.2974 0.054,-0.0415 5.721,-4.7649 7.562,-6.3047 0.374,-0.3125 0.607,-0.5068 0.62,-0.5166 0.046,-0.0336 2.842,-2.2945 4.189,-3.3867 0.448,-0.3636 0.758,-0.6147 0.773,-0.6272 0.038,-0.0313 1.911,-1.706 3.018,-2.6985 0.489,-0.4384 0.86,-0.76 0.879,-0.766 0.024,-0.007 0.778,-0.2577 1.446,-0.4802 0.565,-0.1885 1.108,-0.3567 1.126,-0.3514 0.015,0.004 0.432,0.1361 0.87,0.2753 0.526,0.1669 1.121,0.3436 1.142,0.3338 0.025,-0.0113 2.181,1.6923 2.208,1.6798 0.029,-0.0128 0.529,-0.4338 1.253,-1.0549 1.146,-0.9844 3.086,-2.5831 4.53,-3.8234 1.374,-1.1794 2.506,-2.1343 2.563,-2.161 0.093,-0.0442 2.928,-2.2909 5.627,-4.4693 1.002,-0.8087 2.129,-1.6298 2.988,-2.3234 1.435,-1.1584 2.525,-1.9811 2.58,-1.9598 0.025,0.01 2.384,-0.4102 2.409,-0.4007 0.031,0.0121 2.129,1.0935 2.146,1.0998 0.009,0.004 0.138,0.1204 0.358,0.3251 1.041,0.9668 4.555,4.0434 7.159,6.4632 2.023,1.8801 3.757,3.3824 3.836,3.338 0.074,-0.041 6.289,-0.0159 6.322,-0.0343 0.01,-0.005 0.172,0.0921 0.45,0.2709 2.182,1.4068 12.293,7.694 12.34,7.6995 0.003,3e-4 0.046,-0.009 0.12,-0.0257 0.541,-0.122 2.82,-0.5969 2.855,-0.5509 0.029,0.039 4.601,1.5989 4.635,1.6438 0.056,0.0741 1.73,1.4096 4.072,3.24 2.221,1.7368 5.315,4.2364 8.05,6.3747 4.692,3.6678 9.157,7.3951 9.157,7.3951"
         id="path4520" />
      <path
         style="fill:none;fill-opacity:0.8;stroke:#a57ed9;stroke-width:0.628886;stroke-linecap:butt;stroke-linejoin:miter;stroke-miterlimit:4;stroke-dasharray:none;stroke-opacity:1"
         d="m 61.79318,144.7259 c 0,0 0.382,-0.9497 0.495,-1.233 0.022,-0.0533 0.035,-0.086 0.037,-0.088 0.015,-0.0154 1.299,-1.4768 1.713,-1.9503 0.085,-0.097 0.139,-0.1574 0.144,-0.161 0.047,-0.0349 5.264,-4.1529 6.648,-5.2491 0.224,-0.1775 0.36,-0.2853 0.37,-0.2934 0.071,-0.0542 5.67,-4.7174 7.468,-6.2204 0.364,-0.305 0.595,-0.4967 0.612,-0.5096 0.059,-0.0439 2.821,-2.2752 4.136,-3.3413 0.438,-0.3549 0.743,-0.6028 0.763,-0.6192 0.05,-0.0409 1.9,-1.6937 2.981,-2.6624 0.477,-0.428 0.845,-0.7437 0.87,-0.7515 0.031,-0.009 0.775,-0.2564 1.427,-0.4737 0.552,-0.1839 1.088,-0.3462 1.112,-0.3392 0.02,0.006 0.431,0.1357 0.859,0.2714 0.514,0.163 1.099,0.3331 1.127,0.3205 0.032,-0.0149 2.148,1.643 2.184,1.6266 0.037,-0.0167 0.532,-0.4309 1.239,-1.0372 1.118,-0.9609 3.071,-2.5499 4.481,-3.7605 1.341,-1.1512 2.461,-2.0903 2.535,-2.1251 0.122,-0.0577 2.93,-2.27 5.564,-4.3963 0.978,-0.7894 2.12,-1.5954 2.959,-2.2724 1.4,-1.1307 2.48,-1.9276 2.552,-1.8997 0.033,0.0127 2.344,-0.3939 2.376,-0.3814 0.041,0.0158 2.099,1.0749 2.12,1.0831 0.012,0.005 0.14,0.1195 0.355,0.3192 1.016,0.9437 4.548,3.9792 7.09,6.3411 1.974,1.8351 3.69,3.2881 3.794,3.2301 0.096,-0.0536 6.189,-0.0437 6.232,-0.0677 0.013,-0.007 0.173,0.087 0.444,0.2615 2.13,1.3732 12.144,7.5268 12.206,7.5339 0.003,4e-4 0.046,-0.009 0.118,-0.0248 0.529,-0.1192 2.761,-0.5718 2.806,-0.5117 0.039,0.051 4.513,1.5894 4.558,1.6481 0.073,0.0968 1.723,1.4218 4.009,3.2084 2.168,1.6953 5.263,4.2205 7.933,6.3076 4.579,3.5801 8.991,7.3376 8.991,7.3376"
         id="path4522" />
      <path
         style="fill:none;fill-opacity:0.8;stroke:#a57ed9;stroke-width:0.619293;stroke-linecap:butt;stroke-linejoin:miter;stroke-miterlimit:4;stroke-dasharray:none;stroke-opacity:1"
         d="m 62.80918,144.72762 c 0,0 0.378,-0.9391 0.488,-1.2147 0.021,-0.0517 0.034,-0.0839 0.037,-0.0864 0.018,-0.0195 1.286,-1.4602 1.688,-1.9206 0.083,-0.0943 0.136,-0.1535 0.142,-0.1581 0.061,-0.0443 5.208,-4.1026 6.553,-5.1683 0.217,-0.1726 0.352,-0.2788 0.365,-0.289 0.089,-0.0687 5.612,-4.6636 7.36,-6.1248 0.355,-0.2965 0.582,-0.4853 0.604,-0.5016 0.074,-0.0556 2.798,-2.2534 4.077,-3.2899 0.425,-0.345 0.726,-0.5894 0.751,-0.6101 0.063,-0.0519 1.888,-1.6798 2.938,-2.6216 0.464,-0.4161 0.828,-0.7251 0.861,-0.735 0.038,-0.0118 0.772,-0.2551 1.406,-0.4663 0.537,-0.1788 1.065,-0.3343 1.095,-0.3255 0.026,0.007 0.431,0.1352 0.847,0.2672 0.499,0.1584 1.074,0.3212 1.109,0.3052 0.042,-0.0189 2.111,1.5871 2.157,1.5664 0.046,-0.0212 0.537,-0.4277 1.223,-1.0171 1.088,-0.9342 3.055,-2.5122 4.426,-3.6892 1.303,-1.1192 2.41,-2.0404 2.503,-2.0845 0.155,-0.073 2.933,-2.2464 5.494,-4.3136 0.95,-0.7674 2.109,-1.5563 2.924,-2.2145 1.362,-1.0993 2.43,-1.8671 2.521,-1.8317 0.042,0.0161 2.299,-0.3752 2.34,-0.3595 0.052,0.02 2.063,1.0538 2.09,1.0642 0.016,0.006 0.142,0.1184 0.351,0.3126 0.987,0.9175 4.54,3.9063 7.011,6.2026 1.92,1.7842 3.616,3.1813 3.747,3.1079 0.122,-0.0679 6.076,-0.0753 6.13,-0.1056 0.017,-0.009 0.175,0.0812 0.438,0.2509 2.071,1.335 11.975,7.3372 12.053,7.3463 0.004,5e-4 0.047,-0.008 0.117,-0.0241 0.513,-0.1158 2.693,-0.5431 2.751,-0.467 0.049,0.0645 4.413,1.5787 4.469,1.6529 0.093,0.1225 1.716,1.4357 3.938,3.1727 2.108,1.6482 5.205,4.2023 7.8,6.2314 4.452,3.4807 8.803,7.2724 8.803,7.2724"
         id="path4524" />
      <path
         style="fill:none;fill-opacity:0.8;stroke:#a57ed9;stroke-width:0.608571;stroke-linecap:butt;stroke-linejoin:miter;stroke-miterlimit:4;stroke-dasharray:none;stroke-opacity:1"
         d="m 63.94418,144.72945 c 0,0 0.374,-0.9275 0.481,-1.1942 0.02,-0.0501 0.033,-0.0816 0.036,-0.0847 0.023,-0.024 1.272,-1.4417 1.662,-1.8874 0.079,-0.0912 0.132,-0.1493 0.139,-0.155 0.075,-0.0546 5.144,-4.0462 6.446,-5.0779 0.211,-0.1671 0.343,-0.2714 0.359,-0.2841 0.11,-0.0847 5.549,-4.6033 7.241,-6.0179 0.343,-0.287 0.567,-0.4726 0.594,-0.4927 0.092,-0.0686 2.772,-2.2291 4.01,-3.2324 0.412,-0.334 0.708,-0.5745 0.739,-0.6 0.078,-0.064 1.873,-1.6642 2.89,-2.5759 0.449,-0.4028 0.81,-0.7044 0.85,-0.7166 0.047,-0.0146 0.769,-0.2535 1.382,-0.458 0.52,-0.1731 1.041,-0.3211 1.078,-0.3103 0.031,0.009 0.429,0.1347 0.832,0.2625 0.484,0.1534 1.047,0.3079 1.09,0.2881 0.051,-0.0232 2.07,1.5247 2.126,1.4992 0.058,-0.0261 0.542,-0.424 1.206,-0.9947 1.054,-0.9043 3.037,-2.4701 4.364,-3.6094 1.261,-1.0835 2.353,-1.9847 2.468,-2.0391 0.191,-0.0902 2.935,-2.22 5.414,-4.2212 0.92,-0.7429 2.098,-1.5127 2.887,-2.1499 1.319,-1.0642 2.373,-1.7993 2.486,-1.7557 0.052,0.0199 2.249,-0.3543 2.299,-0.3349 0.064,0.0247 2.023,1.0302 2.056,1.0431 0.02,0.007 0.144,0.1172 0.347,0.3052 0.955,0.8882 4.531,3.8249 6.923,6.0478 1.859,1.7272 3.533,3.0618 3.695,2.9712 0.15,-0.0838 5.949,-0.1104 6.016,-0.1479 0.02,-0.0114 0.176,0.0747 0.431,0.239 2.004,1.2924 11.786,7.1254 11.882,7.1366 0.005,6e-4 0.047,-0.008 0.115,-0.0231 0.497,-0.1121 2.618,-0.5111 2.689,-0.4172 0.061,0.0796 4.301,1.5667 4.371,1.6584 0.114,0.1512 1.708,1.4511 3.859,3.1326 2.04,1.5956 5.138,4.182 7.651,6.1464 4.31,3.3695 8.593,7.1995 8.593,7.1995"
         id="path4526" />
      <path
         style="fill:none;fill-opacity:0.8;stroke:#a57ed9;stroke-width:0.596721;stroke-linecap:butt;stroke-linejoin:miter;stroke-miterlimit:4;stroke-dasharray:none;stroke-opacity:1"
         d="m 65.19918,144.73159 c 0,0 0.369,-0.9144 0.472,-1.1714 0.019,-0.0483 0.033,-0.0791 0.036,-0.0828 0.028,-0.0291 1.256,-1.4213 1.632,-1.8507 0.076,-0.0879 0.128,-0.1446 0.137,-0.1515 0.091,-0.0661 5.073,-3.984 6.328,-4.978 0.203,-0.1611 0.333,-0.2634 0.352,-0.2787 0.134,-0.1025 5.478,-4.5368 7.108,-5.8997 0.331,-0.2766 0.551,-0.4587 0.584,-0.4829 0.111,-0.0831 2.744,-2.2022 3.936,-3.1689 0.397,-0.3219 0.688,-0.558 0.726,-0.5889 0.093,-0.0774 1.857,-1.6469 2.837,-2.5254 0.433,-0.3881 0.789,-0.6815 0.837,-0.6963 0.058,-0.0176 0.766,-0.2518 1.357,-0.4488 0.501,-0.1668 1.013,-0.3065 1.058,-0.2933 0.037,0.011 0.428,0.1341 0.817,0.2572 0.465,0.1478 1.015,0.2932 1.068,0.2693 0.062,-0.0282 2.024,1.4557 2.092,1.4248 0.069,-0.0316 0.547,-0.42 1.187,-0.9698 1.015,-0.8714 3.016,-2.4236 4.295,-3.5215 1.215,-1.044 2.29,-1.923 2.429,-1.9888 0.231,-0.1091 2.938,-2.1909 5.327,-4.1191 0.886,-0.7158 2.085,-1.4645 2.845,-2.0784 1.271,-1.0254 2.311,-1.7245 2.447,-1.6717 0.063,0.0241 2.193,-0.3313 2.254,-0.3078 0.077,0.03 1.979,1.0042 2.019,1.0197 0.024,0.009 0.147,0.1159 0.342,0.2971 0.921,0.8558 4.521,3.7349 6.826,5.8767 1.791,1.6643 3.44,2.9298 3.637,2.8202 0.181,-0.1014 5.809,-0.1494 5.89,-0.1947 0.025,-0.0137 0.177,0.0676 0.423,0.2259 1.931,1.2453 11.577,6.8912 11.693,6.9048 0.007,7e-4 0.047,-0.007 0.113,-0.022 0.479,-0.1081 2.536,-0.4758 2.622,-0.3622 0.073,0.0964 4.177,1.5535 4.261,1.6644 0.139,0.183 1.699,1.4682 3.771,3.0884 1.967,1.5374 5.066,4.1597 7.487,6.0524 4.153,3.2466 8.361,7.119 8.361,7.119"
         id="path4528" />
      <path
         style="fill:none;fill-opacity:0.8;stroke:#a57ed9;stroke-width:0.583742;stroke-linecap:butt;stroke-linejoin:miter;stroke-miterlimit:4;stroke-dasharray:none;stroke-opacity:1"
         d="m 66.57318,144.73383 c 0,0 0.364,-0.9002 0.463,-1.1466 0.018,-0.0463 0.032,-0.0763 0.036,-0.0807 0.033,-0.0347 1.238,-1.3989 1.598,-1.8106 0.074,-0.0842 0.125,-0.1395 0.136,-0.1476 0.108,-0.0787 4.996,-3.9158 6.198,-4.8687 0.195,-0.1543 0.322,-0.2545 0.345,-0.2727 0.159,-0.122 5.401,-4.4639 6.963,-5.7703 0.317,-0.2652 0.533,-0.4433 0.572,-0.4722 0.132,-0.0988 2.713,-2.1726 3.856,-3.0993 0.381,-0.3085 0.665,-0.5398 0.71,-0.5766 0.112,-0.0922 1.84,-1.628 2.78,-2.4702 0.415,-0.372 0.766,-0.6563 0.824,-0.6739 0.068,-0.021 0.761,-0.2499 1.328,-0.4388 0.48,-0.1599 0.982,-0.2904 1.036,-0.2748 0.045,0.0131 0.427,0.1335 0.8,0.2515 0.446,0.1416 0.982,0.2771 1.045,0.2486 0.073,-0.0335 1.973,1.3802 2.054,1.3434 0.083,-0.0377 0.553,-0.4156 1.167,-0.9427 0.973,-0.8352 2.993,-2.3726 4.219,-3.4249 1.165,-1.0008 2.221,-1.8556 2.387,-1.9339 0.275,-0.1299 2.94,-2.1589 5.23,-4.0072 0.85,-0.6862 2.071,-1.4117 2.8,-2.0002 1.218,-0.9829 2.242,-1.6424 2.405,-1.5796 0.074,0.0287 2.132,-0.3061 2.204,-0.2781 0.092,0.0356 1.931,0.9756 1.978,0.9941 0.029,0.0109 0.15,0.1145 0.337,0.2881 0.882,0.8203 4.51,3.6363 6.72,5.6895 1.716,1.5952 3.339,2.785 3.573,2.6546 0.216,-0.1206 5.656,-0.1919 5.752,-0.2459 0.03,-0.0163 0.179,0.0598 0.415,0.2116 1.851,1.1936 11.348,6.6347 11.486,6.6508 0.008,9e-4 0.048,-0.007 0.111,-0.0207 0.459,-0.1036 2.445,-0.4371 2.547,-0.302 0.087,0.1147 4.042,1.5391 4.142,1.6711 0.165,0.2177 1.689,1.4869 3.675,3.04 1.885,1.4737 4.986,4.135 7.307,5.9494 3.98,3.112 8.107,7.0308 8.107,7.0308"
         id="path4530" />
      <path
         style="fill:none;fill-opacity:0.8;stroke:#a57ed9;stroke-width:0.569634;stroke-linecap:butt;stroke-linejoin:miter;stroke-miterlimit:4;stroke-dasharray:none;stroke-opacity:1"
         d="m 68.06718,144.73641 c 0,0 0.358,-0.8847 0.452,-1.1195 0.018,-0.0441 0.031,-0.0732 0.036,-0.0784 0.039,-0.0407 1.22,-1.3746 1.563,-1.7669 0.07,-0.0803 0.12,-0.134 0.133,-0.1435 0.126,-0.0923 4.912,-3.8418 6.058,-4.7498 0.185,-0.1471 0.309,-0.2449 0.337,-0.2662 0.186,-0.1432 5.316,-4.3847 6.805,-5.6298 0.302,-0.2526 0.513,-0.4265 0.559,-0.4604 0.155,-0.116 2.68,-2.1405 3.769,-3.0237 0.362,-0.294 0.641,-0.5201 0.693,-0.5633 0.131,-0.1081 1.822,-1.6075 2.717,-2.41 0.395,-0.3546 0.742,-0.6291 0.81,-0.6498 0.08,-0.0246 0.757,-0.2479 1.297,-0.4278 0.458,-0.1524 0.949,-0.2731 1.012,-0.2547 0.053,0.0154 0.426,0.1327 0.781,0.2452 0.426,0.135 0.946,0.2597 1.02,0.2262 0.086,-0.0393 1.918,1.298 2.013,1.2549 0.098,-0.0442 0.56,-0.4109 1.145,-0.9132 0.927,-0.796 2.969,-2.3172 4.137,-3.3201 1.111,-0.9537 2.146,-1.7822 2.341,-1.8741 0.323,-0.1524 2.944,-2.1241 5.126,-3.8856 0.81,-0.6539 2.056,-1.3542 2.751,-1.9151 1.16,-0.9367 2.167,-1.5533 2.358,-1.4796 0.087,0.0337 2.065,-0.2786 2.15,-0.2458 0.108,0.0418 1.878,0.9446 1.934,0.9663 0.034,0.0128 0.153,0.1129 0.331,0.2784 0.841,0.7818 4.499,3.5292 6.604,5.4858 1.636,1.5203 3.23,2.6279 3.504,2.4748 0.254,-0.1416 5.49,-0.2382 5.603,-0.3016 0.035,-0.0191 0.181,0.0514 0.405,0.196 1.764,1.1376 11.099,6.356 11.262,6.3749 0.009,0.001 0.048,-0.006 0.108,-0.0195 0.437,-0.0987 2.346,-0.395 2.467,-0.2364 0.102,0.1347 3.895,1.5233 4.012,1.6782 0.193,0.2556 1.677,1.5073 3.571,2.9874 1.796,1.4044 4.899,4.1084 7.11,5.8374 3.794,2.9659 7.831,6.935 7.831,6.935"
         id="path4532" />
      <path
         style="fill:none;fill-opacity:0.8;stroke:#a57ed9;stroke-width:0.554398;stroke-linecap:butt;stroke-linejoin:miter;stroke-miterlimit:4;stroke-dasharray:none;stroke-opacity:1"
         d="m 69.68018,144.73882 c 0,0 0.353,-0.868 0.442,-1.0903 0.016,-0.0417 0.03,-0.0699 0.035,-0.076 0.045,-0.0472 1.199,-1.3483 1.524,-1.7197 0.067,-0.076 0.115,-0.1279 0.131,-0.139 0.146,-0.1071 4.821,-3.7617 5.905,-4.6214 0.176,-0.1393 0.297,-0.2344 0.329,-0.2592 0.216,-0.1661 5.225,-4.2991 6.635,-5.4779 0.286,-0.2392 0.492,-0.4085 0.545,-0.4478 0.18,-0.1345 2.643,-2.1059 3.675,-2.942 0.343,-0.2783 0.614,-0.4988 0.675,-0.5489 0.152,-0.1255 1.801,-1.5854 2.649,-2.3452 0.374,-0.3356 0.716,-0.5996 0.794,-0.6235 0.093,-0.0286 0.753,-0.2457 1.265,-0.4161 0.433,-0.1443 0.912,-0.2542 0.985,-0.233 0.061,0.0179 0.426,0.132 0.762,0.2385 0.403,0.1278 0.906,0.2408 0.992,0.2019 0.1,-0.0455 1.859,1.2094 1.97,1.1593 0.112,-0.0512 0.567,-0.4057 1.12,-0.8812 0.878,-0.7536 2.943,-2.2574 4.048,-3.2069 1.052,-0.9029 2.065,-1.703 2.291,-1.8095 0.375,-0.1767 2.947,-2.0866 5.013,-3.7543 0.767,-0.6191 2.04,-1.2922 2.698,-1.8232 1.098,-0.8868 2.087,-1.4571 2.308,-1.3716 0.101,0.0391 1.994,-0.249 2.092,-0.2109 0.126,0.0485 1.822,0.9111 1.887,0.9362 0.038,0.0149 0.155,0.1112 0.324,0.2679 0.796,0.7402 4.486,3.4135 6.48,5.2659 1.549,1.4394 3.111,2.4581 3.429,2.2806 0.294,-0.1642 5.309,-0.2883 5.441,-0.3617 0.04,-0.0223 0.183,0.0421 0.395,0.1791 1.67,1.077 10.831,6.0549 11.019,6.0768 0.011,0.001 0.049,-0.005 0.105,-0.0181 0.415,-0.0934 2.24,-0.3495 2.38,-0.1655 0.118,0.1561 3.736,1.5062 3.872,1.6859 0.224,0.2963 1.666,1.5293 3.458,2.9305 1.701,1.3297 4.805,4.0796 6.899,5.7166 3.592,2.8078 7.532,6.8314 7.532,6.8314"
         id="path4534" />
      <path
         style="fill:none;fill-opacity:0.8;stroke:#a57ed9;stroke-width:0.538033;stroke-linecap:butt;stroke-linejoin:miter;stroke-miterlimit:4;stroke-dasharray:none;stroke-opacity:1"
         d="m 71.41318,144.74183 c 0,0 0.346,-0.8501 0.43,-1.0589 0.015,-0.0393 0.028,-0.0665 0.035,-0.0734 0.052,-0.0542 1.177,-1.3201 1.483,-1.6691 0.062,-0.0714 0.109,-0.1215 0.127,-0.1342 0.168,-0.1229 4.723,-3.6757 5.743,-4.4835 0.165,-0.1309 0.282,-0.2232 0.319,-0.2517 0.248,-0.1906 5.128,-4.2071 6.452,-5.3147 0.269,-0.2248 0.47,-0.3891 0.53,-0.4342 0.207,-0.1544 2.605,-2.0687 3.574,-2.8543 0.322,-0.2616 0.586,-0.476 0.655,-0.5335 0.175,-0.144 1.78,-1.5615 2.577,-2.2755 0.351,-0.3153 0.687,-0.5679 0.777,-0.5954 0.107,-0.0328 0.748,-0.2433 1.229,-0.4034 0.407,-0.1356 0.874,-0.2341 0.958,-0.2096 0.07,0.0205 0.424,0.1312 0.74,0.2312 0.378,0.1201 0.864,0.2205 0.963,0.1759 0.115,-0.0523 1.796,1.1141 1.922,1.0566 0.13,-0.0588 0.575,-0.4001 1.095,-0.8469 0.824,-0.7081 2.914,-2.1932 3.953,-3.0853 0.988,-0.8483 1.977,-1.6179 2.237,-1.7403 0.43,-0.2028 2.951,-2.0462 4.892,-3.6131 0.721,-0.5817 2.022,-1.2257 2.64,-1.7246 1.032,-0.8332 2.001,-1.3536 2.255,-1.2555 0.116,0.0448 1.916,-0.2172 2.03,-0.1735 0.144,0.0557 1.76,0.8751 1.835,0.904 0.044,0.017 0.159,0.1094 0.317,0.2566 0.749,0.6954 4.473,3.2892 6.346,5.0297 1.456,1.3524 2.984,2.2757 3.349,2.0719 0.338,-0.1885 5.116,-0.3419 5.267,-0.4263 0.046,-0.0255 0.185,0.0324 0.384,0.161 1.57,1.0119 10.543,5.7316 10.759,5.7568 0.012,0.001 0.049,-0.005 0.102,-0.0166 0.39,-0.0879 2.126,-0.3008 2.286,-0.0896 0.136,0.1792 3.565,1.488 3.722,1.6943 0.257,0.3402 1.653,1.5528 3.337,2.8694 1.598,1.2494 4.704,4.0486 6.672,5.5867 3.374,2.6382 7.211,6.7203 7.211,6.7203"
         id="path4536" />
      <path
         style="fill:none;fill-opacity:0.8;stroke:#a57ed9;stroke-width:0.52054;stroke-linecap:butt;stroke-linejoin:miter;stroke-miterlimit:4;stroke-dasharray:none;stroke-opacity:1"
         d="m 73.26518,144.74468 c 0,0 0.34,-0.8309 0.417,-1.0254 0.015,-0.0366 0.028,-0.0627 0.035,-0.0706 0.059,-0.0616 1.154,-1.2899 1.439,-1.6149 0.058,-0.0665 0.104,-0.1146 0.124,-0.129 0.191,-0.1399 4.619,-3.5839 5.568,-4.3362 0.154,-0.1218 0.267,-0.2112 0.31,-0.2436 0.281,-0.2169 5.023,-4.1089 6.257,-5.1403 0.25,-0.2094 0.445,-0.3684 0.514,-0.4197 0.235,-0.1757 2.562,-2.029 3.465,-2.7606 0.3,-0.2435 0.556,-0.4516 0.635,-0.5169 0.198,-0.1639 1.757,-1.5361 2.498,-2.201 0.328,-0.2937 0.658,-0.5341 0.76,-0.5654 0.121,-0.0373 0.743,-0.2408 1.19,-0.3899 0.379,-0.1262 0.833,-0.2124 0.929,-0.1846 0.08,0.0233 0.423,0.1303 0.717,0.2235 0.352,0.1118 0.819,0.1987 0.931,0.148 0.131,-0.0595 1.728,1.0123 1.872,0.9469 0.148,-0.067 0.583,-0.3943 1.067,-0.8103 0.768,-0.6595 2.884,-2.1245 3.851,-2.9553 0.92,-0.79 1.885,-1.5269 2.18,-1.6661 0.489,-0.2308 2.955,-2.0032 4.763,-3.4624 0.671,-0.5418 2.003,-1.1545 2.579,-1.6191 0.961,-0.776 1.908,-1.2431 2.197,-1.1315 0.132,0.051 1.834,-0.1831 1.963,-0.1334 0.164,0.0633 1.696,0.8366 1.781,0.8695 0.05,0.0194 0.162,0.1074 0.31,0.2445 0.696,0.6476 4.458,3.1563 6.203,4.7772 1.355,1.2594 2.847,2.0808 3.263,1.8489 0.384,-0.2144 4.909,-0.3993 5.081,-0.4953 0.052,-0.0291 0.187,0.0218 0.373,0.1416 1.461,0.9424 10.233,5.386 10.48,5.4146 0.014,0.002 0.049,-0.004 0.099,-0.015 0.362,-0.0818 2.003,-0.2486 2.185,-0.008 0.155,0.2039 3.383,1.4685 3.561,1.7031 0.293,0.3871 1.639,1.5782 3.207,2.8043 1.489,1.1634 4.598,4.0154 6.43,5.4478 3.142,2.4569 6.868,6.6014 6.868,6.6014"
         id="path4538" />
      <path
         style="fill:none;fill-opacity:0.8;stroke:#a57ed9;stroke-width:0.501918;stroke-linecap:butt;stroke-linejoin:miter;stroke-miterlimit:4;stroke-dasharray:none;stroke-opacity:1"
         d="m 75.23618,144.74787 c 0,0 0.333,-0.8105 0.405,-0.9897 0.013,-0.0337 0.026,-0.0587 0.034,-0.0676 0.067,-0.0696 1.13,-1.2578 1.392,-1.5572 0.053,-0.0613 0.098,-0.1073 0.12,-0.1236 0.217,-0.1579 4.508,-3.4861 5.383,-4.1792 0.142,-0.1123 0.251,-0.1985 0.299,-0.2351 0.318,-0.2449 4.912,-4.0043 6.049,-4.9547 0.231,-0.1929 0.42,-0.3463 0.497,-0.4042 0.266,-0.1984 2.518,-1.9866 3.35,-2.6608 0.277,-0.2244 0.524,-0.4255 0.613,-0.4993 0.224,-0.185 1.732,-1.5091 2.416,-2.1217 0.301,-0.2706 0.625,-0.4981 0.74,-0.5334 0.137,-0.0421 0.738,-0.2381 1.15,-0.3755 0.349,-0.1163 0.789,-0.1894 0.897,-0.1581 0.09,0.0264 0.421,0.1294 0.692,0.2153 0.325,0.103 0.772,0.1756 0.898,0.1184 0.148,-0.0672 1.656,0.9039 1.819,0.83 0.166,-0.0755 0.591,-0.3879 1.037,-0.7713 0.708,-0.6076 2.851,-2.0513 3.743,-2.8168 0.847,-0.728 1.785,-1.4302 2.118,-1.5873 0.553,-0.2606 2.96,-1.9573 4.625,-3.3019 0.619,-0.4991 1.984,-1.0786 2.514,-1.5067 0.886,-0.715 1.81,-1.1256 2.136,-0.9995 0.149,0.0576 1.747,-0.1469 1.892,-0.0908 0.185,0.0715 1.627,0.7956 1.723,0.8327 0.057,0.0219 0.166,0.1054 0.302,0.2317 0.642,0.5968 4.443,3.0149 6.051,4.5085 1.249,1.1604 2.703,1.8733 3.172,1.6115 0.434,-0.2421 4.689,-0.4605 4.883,-0.5688 0.059,-0.0328 0.189,0.0106 0.36,0.121 1.347,0.8683 9.906,5.018 10.184,5.0503 0.015,0.002 0.05,-0.003 0.095,-0.0133 0.334,-0.0754 1.874,-0.1931 2.079,0.0782 0.175,0.2302 3.189,1.4477 3.39,1.7126 0.331,0.437 1.624,1.605 3.07,2.7348 1.371,1.072 4.482,3.9802 6.17,5.3 2.896,2.2639 6.504,6.475 6.504,6.475"
         id="path4540" />
      <path
         style="fill:none;fill-opacity:0.8;stroke:#a57ed9;stroke-width:0.482168;stroke-linecap:butt;stroke-linejoin:miter;stroke-miterlimit:4;stroke-dasharray:none;stroke-opacity:1"
         d="m 77.32818,144.7514 c 0,0 0.325,-0.7888 0.39,-0.9518 0.012,-0.0306 0.025,-0.0544 0.034,-0.0644 0.074,-0.078 1.103,-1.2237 1.341,-1.4961 0.049,-0.0557 0.092,-0.0994 0.117,-0.1177 0.243,-0.1771 4.391,-3.3824 5.186,-4.0129 0.129,-0.1021 0.235,-0.185 0.288,-0.2259 0.357,-0.2746 4.795,-3.8934 5.829,-4.7579 0.209,-0.1754 0.392,-0.3229 0.479,-0.3878 0.298,-0.2224 2.471,-1.9417 3.227,-2.5549 0.252,-0.2041 0.49,-0.398 0.59,-0.4807 0.251,-0.2074 1.706,-1.4803 2.328,-2.0375 0.274,-0.2461 0.591,-0.46 0.72,-0.4996 0.154,-0.0472 0.732,-0.2352 1.107,-0.3602 0.317,-0.1058 0.742,-0.165 0.863,-0.1298 0.101,0.0296 0.42,0.1284 0.667,0.2065 0.295,0.0937 0.72,0.1512 0.862,0.087 0.166,-0.0753 1.579,0.7888 1.761,0.7061 0.187,-0.0847 0.601,-0.3813 1.007,-0.73 0.643,-0.5526 2.816,-1.9737 3.627,-2.67 0.771,-0.6622 1.681,-1.3275 2.054,-1.5036 0.62,-0.2922 2.964,-1.9087 4.479,-3.1317 0.563,-0.454 1.962,-0.9982 2.445,-1.3876 0.806,-0.6504 1.706,-1.0008 2.071,-0.8594 0.167,0.0645 1.654,-0.1086 1.817,-0.0456 0.207,0.0801 1.553,0.7521 1.661,0.7938 0.064,0.0245 0.17,0.1031 0.294,0.218 0.584,0.5428 4.427,2.8649 5.889,4.2234 1.136,1.0555 2.549,1.6532 3.075,1.3597 0.486,-0.2714 4.456,-0.5253 4.673,-0.6468 0.066,-0.0367 0.192,-10e-4 0.348,0.0992 1.225,0.7898 9.557,4.6278 9.868,4.664 0.018,0.002 0.051,-0.002 0.093,-0.0116 0.303,-0.0685 1.735,-0.1341 1.965,0.1701 0.196,0.258 2.983,1.4256 3.208,1.7226 0.371,0.4899 1.609,1.6335 2.924,2.6611 1.247,0.975 4.361,3.9429 5.897,5.1433 2.633,2.0591 6.116,6.3407 6.116,6.3407"
         id="path4542" />
      <path
         style="fill:none;fill-opacity:0.8;stroke:#a57ed9;stroke-width:0.461289;stroke-linecap:butt;stroke-linejoin:miter;stroke-miterlimit:4;stroke-dasharray:none;stroke-opacity:1"
         d="m 79.53818,144.75505 c 0,0 0.317,-0.766 0.376,-0.9118 0.011,-0.0274 0.023,-0.05 0.034,-0.0611 0.082,-0.0869 1.074,-1.1877 1.288,-1.4315 0.043,-0.0499 0.085,-0.0912 0.113,-0.1116 0.27,-0.1972 4.266,-3.2727 4.978,-3.8369 0.115,-0.0913 0.217,-0.1707 0.276,-0.2163 0.397,-0.3059 4.67,-3.7761 5.595,-4.5497 0.188,-0.157 0.364,-0.2982 0.46,-0.3706 0.333,-0.2477 2.422,-1.8942 3.098,-2.4429 0.226,-0.1826 0.454,-0.3689 0.566,-0.461 0.28,-0.2311 1.678,-1.45 2.234,-1.9486 0.246,-0.2203 0.555,-0.4196 0.699,-0.4637 0.172,-0.0526 0.726,-0.2322 1.062,-0.344 0.284,-0.0947 0.693,-0.1393 0.827,-0.1001 0.113,0.0329 0.419,0.1274 0.64,0.1973 0.264,0.0838 0.667,0.1252 0.824,0.0537 0.185,-0.0839 1.499,0.6673 1.702,0.5751 0.208,-0.0944 0.61,-0.3741 0.973,-0.6862 0.576,-0.4946 2.78,-1.8918 3.506,-2.5149 0.69,-0.5925 1.57,-1.2189 1.986,-1.4152 0.69,-0.3254 2.968,-1.8572 4.324,-2.9516 0.503,-0.4063 1.94,-0.9133 2.372,-1.2618 0.721,-0.5819 1.595,-0.8688 2.003,-0.7113 0.186,0.0719 1.555,-0.0679 1.737,0.002 0.231,0.0893 1.475,0.7062 1.595,0.7526 0.071,0.0273 0.175,0.1009 0.285,0.2037 0.523,0.4857 4.41,2.7063 5.718,3.9219 1.017,0.9446 2.387,1.4206 2.973,1.0936 0.542,-0.3024 4.21,-0.5938 4.452,-0.7292 0.074,-0.041 0.194,-0.0138 0.333,0.0761 1.097,0.7067 9.189,4.2152 9.537,4.2555 0.019,0.002 0.051,-10e-4 0.088,-0.01 0.272,-0.0613 1.59,-0.0718 1.846,0.2671 0.218,0.2875 2.765,1.4022 3.016,1.7332 0.414,0.5458 1.593,1.6636 2.769,2.5832 1.116,0.8725 4.233,3.9033 5.607,4.9776 2.357,1.8427 5.708,6.1989 5.708,6.1989"
         id="path4544" />
      <path
         style="fill:none;fill-opacity:0.8;stroke:#a57ed9;stroke-width:0.439281;stroke-linecap:butt;stroke-linejoin:miter;stroke-miterlimit:4;stroke-dasharray:none;stroke-opacity:1"
         d="m 81.86818,144.75879 c 0,0 0.309,-0.7418 0.36,-0.8696 0.01,-0.024 0.022,-0.0452 0.034,-0.0575 0.091,-0.0963 1.045,-1.1498 1.232,-1.3634 0.038,-0.0437 0.078,-0.0825 0.109,-0.1051 0.3,-0.2185 4.135,-3.1571 4.759,-3.6514 0.101,-0.0801 0.198,-0.1557 0.263,-0.2063 0.441,-0.3389 4.539,-3.6525 5.35,-4.3303 0.164,-0.1375 0.333,-0.2721 0.44,-0.3523 0.368,-0.2745 2.369,-1.8442 2.962,-2.3249 0.197,-0.1601 0.415,-0.3382 0.539,-0.4403 0.31,-0.256 1.65,-1.4179 2.137,-1.8548 0.215,-0.193 0.517,-0.3771 0.676,-0.4259 0.19,-0.0583 0.72,-0.2291 1.014,-0.3271 0.249,-0.0829 0.641,-0.112 0.79,-0.0686 0.125,0.0365 0.417,0.1263 0.61,0.1875 0.232,0.0735 0.611,0.098 0.785,0.0187 0.205,-0.0929 1.414,0.5392 1.639,0.4371 0.23,-0.1046 0.619,-0.3668 0.938,-0.6402 0.504,-0.4333 2.742,-1.8053 3.378,-2.3513 0.604,-0.5192 1.452,-1.1044 1.914,-1.3219 0.764,-0.3607 2.973,-1.8031 4.161,-2.762 0.441,-0.356 1.916,-0.8237 2.294,-1.129 0.632,-0.51 1.48,-0.7298 1.931,-0.5554 0.207,0.0797 1.452,-0.0251 1.653,0.0526 0.256,0.099 1.394,0.6579 1.527,0.7092 0.079,0.0303 0.179,0.0985 0.276,0.1886 0.458,0.4255 4.392,2.5391 5.538,3.6043 0.891,0.8276 2.216,1.1753 2.865,0.813 0.6,-0.3351 3.949,-0.6661 4.218,-0.8161 0.081,-0.0454 0.197,-0.027 0.319,0.0517 0.96,0.6193 8.801,3.7804 9.186,3.8251 0.022,0.002 0.052,-3e-4 0.084,-0.008 0.238,-0.0538 1.436,-0.006 1.72,0.3693 0.241,0.3186 2.536,1.3777 2.814,1.7443 0.458,0.6048 1.576,1.6954 2.606,2.5011 0.978,0.7646 4.098,3.8618 5.302,4.8031 2.065,1.6145 5.276,6.0493 5.276,6.0493"
         id="path4546" />
      <path
         style="fill:none;fill-opacity:0.8;stroke:#a57ed9;stroke-width:0.416145;stroke-linecap:butt;stroke-linejoin:miter;stroke-miterlimit:4;stroke-dasharray:none;stroke-opacity:1"
         d="m 84.31818,144.76287 c 0,0 0.3,-0.7164 0.343,-0.8253 0.008,-0.0204 0.02,-0.0402 0.033,-0.0538 0.101,-0.1061 1.015,-1.1098 1.174,-1.2917 0.033,-0.0372 0.071,-0.0734 0.105,-0.0983 0.331,-0.2409 3.997,-3.0356 4.529,-3.4565 0.086,-0.0682 0.177,-0.1398 0.25,-0.1956 0.485,-0.3737 4.4,-3.5226 5.091,-4.0997 0.14,-0.1171 0.301,-0.2447 0.419,-0.3331 0.406,-0.3026 2.313,-1.7915 2.818,-2.2009 0.168,-0.1363 0.376,-0.3058 0.512,-0.4184 0.342,-0.2823 1.619,-1.3843 2.034,-1.7563 0.183,-0.1643 0.477,-0.3323 0.653,-0.3862 0.209,-0.0643 0.712,-0.2257 0.963,-0.3091 0.212,-0.0707 0.587,-0.0835 0.751,-0.0357 0.138,0.0403 0.416,0.1252 0.58,0.1773 0.197,0.0626 0.551,0.0693 0.743,-0.0181 0.226,-0.1024 1.324,0.4046 1.572,0.2919 0.254,-0.1153 0.63,-0.3589 0.901,-0.5917 0.43,-0.3689 2.702,-1.7145 3.244,-2.1793 0.514,-0.4421 1.329,-0.9842 1.838,-1.224 0.842,-0.3976 2.978,-1.7461 3.99,-2.5625 0.375,-0.3031 1.891,-0.7296 2.213,-0.9895 0.538,-0.4342 1.358,-0.5837 1.856,-0.3913 0.227,0.0878 1.342,0.0199 1.564,0.1055 0.282,0.1091 1.308,0.607 1.455,0.6636 0.086,0.0334 0.183,0.0959 0.266,0.1726 0.39,0.3623 4.373,2.3634 5.349,3.2703 0.758,0.7047 2.035,0.9176 2.751,0.5181 0.662,-0.3695 3.676,-0.742 3.972,-0.9074 0.09,-0.05 0.2,-0.0409 0.304,0.0261 0.818,0.5273 8.393,3.3233 8.817,3.3725 0.024,0.003 0.053,8e-4 0.081,-0.005 0.202,-0.0457 1.273,0.0628 1.587,0.4768 0.266,0.3513 2.295,1.3519 2.601,1.7561 0.505,0.6668 1.558,1.7288 2.435,2.4148 0.833,0.651 3.955,3.818 4.98,4.6194 1.759,1.3747 4.824,5.8922 4.824,5.8922"
         id="path4548" />
      <path
         style="fill:none;fill-opacity:0.8;stroke:#a57ed9;stroke-width:0.39188;stroke-linecap:butt;stroke-linejoin:miter;stroke-miterlimit:4;stroke-dasharray:none;stroke-opacity:1"
         d="m 86.88718,144.76731 c 0,0 0.29,-0.6898 0.326,-0.7787 0.007,-0.0167 0.019,-0.035 0.033,-0.0499 0.11,-0.1166 0.982,-1.0681 1.112,-1.2166 0.027,-0.0304 0.063,-0.0638 0.101,-0.0912 0.362,-0.2644 3.852,-2.9081 4.286,-3.252 0.071,-0.0557 0.157,-0.1233 0.237,-0.1845 0.533,-0.4101 4.256,-3.3863 4.82,-3.8578 0.114,-0.0957 0.267,-0.2159 0.397,-0.3129 0.445,-0.3322 2.255,-1.7364 2.668,-2.0709 0.137,-0.1113 0.333,-0.272 0.483,-0.3955 0.376,-0.3098 1.587,-1.349 1.926,-1.6529 0.15,-0.1343 0.435,-0.2854 0.628,-0.3446 0.23,-0.0705 0.705,-0.2222 0.91,-0.2903 0.173,-0.0577 0.53,-0.0536 0.71,-0.001 0.151,0.0442 0.414,0.124 0.548,0.1666 0.161,0.0511 0.489,0.0392 0.7,-0.0567 0.248,-0.1125 1.229,0.2633 1.501,0.1396 0.279,-0.1265 0.642,-0.3506 0.864,-0.5408 0.351,-0.3015 2.659,-1.6193 3.102,-1.9991 0.42,-0.3611 1.2,-0.8579 1.758,-1.1211 0.925,-0.4364 2.985,-1.6863 3.811,-2.3534 0.307,-0.2476 1.865,-0.6308 2.128,-0.8432 0.44,-0.3547 1.23,-0.4303 1.776,-0.2192 0.25,0.0964 1.229,0.0671 1.472,0.1611 0.31,0.1197 1.218,0.5535 1.379,0.6157 0.095,0.0367 0.188,0.0932 0.256,0.1558 0.318,0.2961 4.353,2.1792 5.15,2.9202 0.62,0.5757 1.847,0.6471 2.632,0.2087 0.727,-0.4055 3.39,-0.8217 3.715,-1.0031 0.098,-0.055 0.203,-0.0556 0.288,-8e-4 0.668,0.4308 7.965,2.8438 8.43,2.8979 0.027,0.003 0.054,0.002 0.076,-0.003 0.166,-0.0373 1.105,0.1353 1.449,0.5896 0.292,0.3855 2.041,1.3247 2.377,1.7684 0.555,0.7318 1.539,1.7638 2.256,2.3243 0.68,0.5319 3.806,3.7721 4.644,4.4269 1.436,1.1231 4.347,5.7273 4.347,5.7273"
         id="path4550" />
      <path
         style="fill:none;fill-opacity:0.8;stroke:#a57ed9;stroke-width:0.366486;stroke-linecap:butt;stroke-linejoin:miter;stroke-miterlimit:4;stroke-dasharray:none;stroke-opacity:1"
         d="m 89.57618,144.77186 c 0,0 0.28,-0.662 0.307,-0.7301 0.006,-0.0127 0.017,-0.0295 0.033,-0.0458 0.121,-0.1274 0.948,-1.0242 1.048,-1.138 0.02,-0.0233 0.055,-0.0538 0.096,-0.0837 0.396,-0.289 3.701,-2.7748 4.033,-3.038 0.054,-0.0427 0.136,-0.1059 0.222,-0.1728 0.583,-0.4482 4.105,-3.2437 4.537,-3.6047 0.087,-0.0732 0.232,-0.1858 0.374,-0.2919 0.487,-0.363 2.195,-1.6786 2.511,-1.9347 0.105,-0.0852 0.289,-0.2365 0.453,-0.3716 0.41,-0.3386 1.553,-1.312 1.813,-1.5447 0.115,-0.1028 0.391,-0.2363 0.602,-0.301 0.251,-0.0771 0.698,-0.2185 0.854,-0.2707 0.133,-0.0442 0.471,-0.0222 0.667,0.0352 0.166,0.0483 0.412,0.1227 0.515,0.1553 0.124,0.0392 0.423,0.008 0.654,-0.097 0.271,-0.123 1.131,0.1154 1.429,-0.0197 0.304,-0.1384 0.653,-0.3421 0.823,-0.4877 0.268,-0.2308 2.615,-1.5195 2.954,-1.8103 0.322,-0.2765 1.065,-0.726 1.675,-1.0136 1.011,-0.477 2.99,-1.6238 3.623,-2.1345 0.235,-0.1896 1.838,-0.5274 2.039,-0.6901 0.337,-0.2716 1.096,-0.2699 1.693,-0.0391 0.273,0.1053 1.109,0.1164 1.375,0.2191 0.339,0.1309 1.124,0.4977 1.3,0.5657 0.103,0.0401 0.193,0.0904 0.245,0.1383 0.243,0.2267 4.332,1.9863 4.942,2.5536 0.475,0.4408 1.649,0.3642 2.508,-0.1149 0.794,-0.4433 3.09,-0.9051 3.445,-1.1034 0.108,-0.0601 0.206,-0.0708 0.271,-0.0289 0.512,0.3298 7.517,2.3421 8.026,2.4012 0.029,0.003 0.054,0.003 0.072,-0.001 0.126,-0.0287 0.926,0.2109 1.303,0.7075 0.319,0.4214 1.776,1.2964 2.144,1.7813 0.605,0.7999 1.519,1.8004 2.068,2.2296 0.52,0.4072 3.649,3.724 4.291,4.2253 1.1,0.8599 3.85,5.5548 3.85,5.5548"
         id="path4552" />
      <path
         style="fill:none;fill-opacity:0.8;stroke:#a57ed9;stroke-width:0.339964;stroke-linecap:butt;stroke-linejoin:miter;stroke-miterlimit:4;stroke-dasharray:none;stroke-opacity:1"
         d="m 92.38418,144.77654 c 0,0 0.27,-0.6329 0.289,-0.6792 0.003,-0.009 0.015,-0.0239 0.032,-0.0416 0.131,-0.1387 0.912,-0.9785 0.98,-1.0558 0.014,-0.0159 0.047,-0.0434 0.092,-0.0759 0.431,-0.3147 3.543,-2.6355 3.769,-2.8146 0.037,-0.0291 0.112,-0.0878 0.207,-0.1606 0.634,-0.4881 3.946,-3.0947 4.24,-3.3403 0.06,-0.0498 0.195,-0.1544 0.35,-0.2699 0.53,-0.3953 2.132,-1.6183 2.346,-1.7925 0.072,-0.058 0.244,-0.1995 0.423,-0.3466 0.446,-0.3687 1.518,-1.2735 1.694,-1.4318 0.078,-0.0699 0.346,-0.185 0.575,-0.2554 0.274,-0.0839 0.69,-0.2147 0.797,-0.2502 0.09,-0.03 0.408,0.0106 0.622,0.0731 0.18,0.0526 0.41,0.1214 0.48,0.1436 0.084,0.0266 0.355,-0.0252 0.606,-0.1393 0.295,-0.1339 1.028,-0.039 1.352,-0.1861 0.332,-0.1506 0.666,-0.3331 0.781,-0.4322 0.183,-0.157 2.57,-1.4153 2.8,-1.6131 0.219,-0.1882 0.925,-0.5881 1.588,-0.9013 1.101,-0.5193 2.997,-1.5584 3.427,-1.9059 0.16,-0.129 1.81,-0.4195 1.947,-0.5301 0.229,-0.1847 0.955,-0.1023 1.605,0.1489 0.297,0.1147 0.985,0.168 1.274,0.2799 0.369,0.1425 1.025,0.4393 1.217,0.5133 0.113,0.0437 0.199,0.0874 0.234,0.1201 0.166,0.1542 4.31,1.7848 4.725,2.1708 0.323,0.2998 1.443,0.0686 2.378,-0.4531 0.865,-0.4826 2.776,-0.9921 3.163,-1.2081 0.118,-0.0653 0.21,-0.0867 0.254,-0.0582 0.348,0.2244 7.049,1.818 7.604,1.8824 0.031,0.004 0.054,0.004 0.066,0.001 0.087,-0.0195 0.742,0.29 1.151,0.8307 0.348,0.4588 1.5,1.2668 1.9,1.7948 0.66,0.8709 1.499,1.8387 1.872,2.1306 0.354,0.277 3.487,3.6739 3.923,4.0149 0.748,0.585 3.331,5.3746 3.331,5.3746"
         id="path4554" />
      <path
         style="fill:none;fill-opacity:0.8;stroke:#a57ed9;stroke-width:0.312313;stroke-linecap:butt;stroke-linejoin:miter;stroke-miterlimit:4;stroke-dasharray:none;stroke-opacity:1"
         d="m 95.31218,144.78158 c 0,0 0.259,-0.6026 0.268,-0.6262 0.002,-0.004 0.014,-0.018 0.032,-0.0372 0.143,-0.1505 0.876,-0.9308 0.911,-0.9702 0.007,-0.008 0.038,-0.0325 0.086,-0.0678 0.468,-0.3415 3.379,-2.4903 3.494,-2.5816 0.018,-0.0148 0.088,-0.0688 0.191,-0.1479 0.688,-0.5295 3.781,-2.9393 3.931,-3.0646 0.031,-0.0254 0.157,-0.1217 0.325,-0.247 0.575,-0.4289 2.066,-1.5554 2.175,-1.6443 0.037,-0.0296 0.196,-0.1609 0.39,-0.3205 0.485,-0.4 1.482,-1.2332 1.572,-1.314 0.039,-0.0356 0.297,-0.1315 0.546,-0.2079 0.297,-0.0911 0.682,-0.2107 0.736,-0.2288 0.046,-0.0153 0.343,0.0447 0.575,0.1125 0.196,0.0571 0.409,0.12 0.444,0.1314 0.043,0.0135 0.284,-0.0595 0.557,-0.1833 0.32,-0.1452 0.921,-0.2 1.272,-0.3596 0.36,-0.1634 0.679,-0.3237 0.737,-0.3743 0.094,-0.08 2.522,-1.3067 2.639,-1.4076 0.112,-0.096 0.778,-0.4443 1.498,-0.7842 1.195,-0.5634 3.003,-1.4903 3.222,-1.6675 0.082,-0.0658 1.78,-0.3069 1.85,-0.3634 0.117,-0.0942 0.81,0.0724 1.515,0.345 0.322,0.1245 0.854,0.2218 1.168,0.3432 0.4,0.1546 0.923,0.3785 1.131,0.4588 0.122,0.0473 0.204,0.0843 0.222,0.101 0.084,0.0786 4.288,1.5748 4.499,1.7717 0.165,0.1529 1.228,-0.2395 2.242,-0.8056 0.939,-0.5237 2.45,-1.0829 2.87,-1.3172 0.127,-0.071 0.213,-0.1034 0.235,-0.0888 0.178,0.1144 6.562,1.2716 7.164,1.3414 0.034,0.004 0.055,0.005 0.061,0.004 0.044,-0.01 0.549,0.3725 0.993,0.9592 0.377,0.4978 1.212,1.2359 1.646,1.8088 0.716,0.945 1.477,1.8786 1.667,2.0275 0.181,0.1413 3.317,3.6215 3.539,3.7955 0.382,0.2983 2.789,5.1867 2.789,5.1867"
         id="path4556" />
      <path
         id="path11748"
         d="m 98.3597,144.78673 0.2482,-0.571 6e-4,-0.001 c 0.0263,-0.028 0.868,-0.913 0.868,-0.913 0,0 0.0012,-0.001 0.0037,-0.003 0.0556,-0.04 0.7268,-0.53 1.4478,-1.056 0.881,-0.642 1.837,-1.339 1.837,-1.339 0,0 0.194,-0.15 0.495,-0.381 0.867,-0.668 2.62,-2.017 3.141,-2.417 0.094,-0.073 0.148,-0.114 0.148,-0.114 0,0 1.206,-0.9 1.87,-1.395 0.252,-0.189 0.426,-0.319 0.426,-0.319 0,0 0.601,-0.496 1.109,-0.914 0.37,-0.306 0.69,-0.57 0.69,-0.57 0,0 0.473,-0.145 0.822,-0.252 0.206,-0.063 0.369,-0.113 0.369,-0.113 l 0.932,0.272 c 0,0 0.177,-0.08 0.433,-0.197 0.383,-0.173 0.943,-0.428 1.365,-0.62 0.338,-0.153 0.588,-0.266 0.588,-0.266 0,0 0.982,-0.475 1.708,-0.825 0.425,-0.206 0.763,-0.369 0.763,-0.369 0,0 1.406,-0.663 2.63,-1.241 0.7,-0.33 1.34,-0.632 1.626,-0.767 0.1,-0.047 0.156,-0.074 0.156,-0.074 0,0 1.189,-0.129 1.606,-0.174 0.089,-0.01 0.144,-0.016 0.144,-0.016 0,0 0.671,0.26 1.444,0.559 1.049,0.405 2.285,0.883 2.285,0.883 0,0 0.088,0.028 0.239,0.076 0.495,0.157 1.669,0.531 2.622,0.834 0.775,0.246 1.403,0.446 1.403,0.446 0,0 0.177,-0.099 0.463,-0.258 0.491,-0.274 1.304,-0.728 2.101,-1.173 1.177,-0.657 2.317,-1.293 2.317,-1.293 0,0 0.093,0.011 0.257,0.03 1.143,0.133 5.744,0.667 6.421,0.746 0.054,0.006 0.083,0.009 0.083,0.009 0,0 2.796,3.691 3.503,4.624 0.102,0.135 0.161,0.213 0.161,0.213 0,0 2.337,2.655 2.978,3.384 0.102,0.115 0.161,0.183 0.161,0.183 0,0 0.271,0.606 0.623,1.396 0.167,0.375 0.353,0.792 0.536,1.204 0.541,1.212 1.066,2.391 1.066,2.391"
         style="fill:none;fill-opacity:0.8;stroke:#a57ed9;stroke-width:0.283527;stroke-linecap:butt;stroke-linejoin:miter;stroke-miterlimit:4;stroke-dasharray:none;stroke-opacity:1" />
      <path
         id="path11750"
         d="m 98.3701,144.78677 0.2481,-0.571 6e-4,-0.001 c 0.0263,-0.027 0.8676,-0.912 0.8676,-0.912 0,0 0.0013,-0.001 0.0038,-0.003 0.0555,-0.041 0.7268,-0.53 1.4478,-1.056 0.88,-0.642 1.835,-1.339 1.835,-1.339 0,0 0.195,-0.149 0.495,-0.38 0.867,-0.668 2.619,-2.016 3.14,-2.416 0.095,-0.073 0.148,-0.114 0.149,-0.114 0,-10e-4 1.205,-0.9 1.868,-1.395 0.252,-0.188 0.426,-0.318 0.426,-0.318 0,0 0.601,-0.496 1.109,-0.914 0.37,-0.306 0.69,-0.57 0.69,-0.57 0,0 0.472,-0.145 0.821,-0.252 0.206,-0.063 0.369,-0.113 0.369,-0.113 l 0.932,0.272 c 0,0 0.176,-0.08 0.433,-0.197 0.382,-0.173 0.942,-0.428 1.364,-0.619 0.338,-0.153 0.587,-0.267 0.587,-0.267 0,0 0.982,-0.474 1.708,-0.824 0.425,-0.206 0.762,-0.369 0.763,-0.369 0,0 1.405,-0.663 2.629,-1.24 0.699,-0.33 1.339,-0.632 1.625,-0.767 0.1,-0.047 0.156,-0.074 0.156,-0.074 0,0 1.188,-0.129 1.606,-0.174 0.089,-0.01 0.143,-0.015 0.143,-0.015 0,0 0.671,0.259 1.444,0.558 1.048,0.405 2.284,0.882 2.284,0.882 0,0 0.088,0.028 0.238,0.076 0.495,0.157 1.669,0.53 2.622,0.833 0.774,0.247 1.402,0.446 1.402,0.446 0,0.001 0.177,-0.098 0.462,-0.257 0.491,-0.274 1.305,-0.728 2.1,-1.172 1.178,-0.657 2.317,-1.293 2.317,-1.293 0,0 0.093,0.011 0.257,0.03 1.142,0.132 5.742,0.667 6.418,0.745 0.054,0.006 0.083,0.01 0.083,0.01 10e-4,0 2.795,3.689 3.501,4.622 0.103,0.135 0.161,0.212 0.161,0.212 0,0 2.337,2.655 2.978,3.383 0.102,0.116 0.161,0.183 0.161,0.183 0,0 0.27,0.606 0.622,1.396 0.167,0.375 0.353,0.791 0.536,1.203 0.54,1.211 1.065,2.39 1.065,2.39"
         style="fill:none;fill-opacity:0.8;stroke:#a57ed9;stroke-width:0.283412;stroke-linecap:butt;stroke-linejoin:miter;stroke-miterlimit:4;stroke-dasharray:none;stroke-opacity:1" />
      <path
         id="path11752"
         d="m 98.4174,144.78689 0.2476,-0.57 6e-4,-0.001 c 0.0263,-0.027 0.866,-0.911 0.8661,-0.911 0,0 0.0012,-0.001 0.0037,-0.003 0.0554,-0.04 0.7256,-0.529 1.4446,-1.053 0.878,-0.641 1.832,-1.336 1.832,-1.337 0.001,0 0.195,-0.149 0.494,-0.38 0.866,-0.666 2.614,-2.012 3.135,-2.41 0.094,-0.072 0.148,-0.114 0.148,-0.114 0.001,0 1.204,-0.897 1.865,-1.391 0.252,-0.188 0.426,-0.317 0.426,-0.318 0,0 0.601,-0.495 1.106,-0.912 0.369,-0.305 0.689,-0.568 0.689,-0.569 0,0 0.471,-0.145 0.82,-0.252 0.205,-0.063 0.367,-0.113 0.367,-0.113 l 0.93,0.271 c 0,-0.001 0.176,-0.081 0.432,-0.197 0.381,-0.173 0.941,-0.427 1.362,-0.618 0.337,-0.153 0.586,-0.266 0.586,-0.266 0.001,0 0.981,-0.472 1.705,-0.821 0.424,-0.205 0.761,-0.368 0.761,-0.368 10e-4,-0.001 1.404,-0.663 2.625,-1.239 0.697,-0.329 1.337,-0.631 1.621,-0.765 0.1,-0.047 0.157,-0.074 0.157,-0.074 0,0 1.186,-0.129 1.602,-0.174 0.089,-0.01 0.143,-0.016 0.143,-0.015 0,0 0.671,0.258 1.441,0.556 1.046,0.404 2.28,0.88 2.28,0.88 0,0 0.088,0.028 0.238,0.075 0.494,0.158 1.667,0.529 2.617,0.832 0.772,0.245 1.399,0.445 1.4,0.445 0,0 0.176,-0.098 0.461,-0.257 0.489,-0.273 1.303,-0.726 2.097,-1.169 1.174,-0.655 2.311,-1.29 2.312,-1.29 0,-0.001 0.093,0.01 0.256,0.029 1.139,0.132 5.732,0.667 6.407,0.745 0.054,0.006 0.083,0.01 0.083,0.01 0,0 2.79,3.683 3.494,4.613 0.102,0.135 0.161,0.212 0.161,0.212 0.001,0.001 2.333,2.65 2.972,3.376 0.102,0.115 0.161,0.182 0.161,0.182 0,10e-4 0.271,0.607 0.622,1.394 0.166,0.374 0.351,0.79 0.534,1.201 0.539,1.208 1.062,2.386 1.062,2.386"
         style="fill:none;fill-opacity:0.8;stroke:#a57ed9;stroke-width:0.282892;stroke-linecap:butt;stroke-linejoin:miter;stroke-miterlimit:4;stroke-dasharray:none;stroke-opacity:1" />
      <path
         style="fill:none;fill-opacity:0.8;stroke:#a57ed9;stroke-width:0.17;stroke-linecap:butt;stroke-linejoin:miter;stroke-miterlimit:4;stroke-dasharray:none;stroke-opacity:1"
         d="m 129.40148,144.80939 0.0218,-0.0502 5e-5,-9e-5 c 0.002,-0.002 0.0762,-0.0802 0.0762,-0.0802 0,0 1.1e-4,-8e-5 3.3e-4,-2.6e-4 0.005,-0.004 0.0639,-0.0465 0.12711,-0.0926 0.0773,-0.0564 0.1612,-0.11756 0.1612,-0.11765 9e-5,0 0.0172,-0.0131 0.0435,-0.0334 0.0762,-0.0586 0.23001,-0.17704 0.27585,-0.21206 0.008,-0.006 0.013,-0.01 0.013,-0.01 9e-5,0 0.10594,-0.0789 0.1641,-0.1224 0.0222,-0.0165 0.0375,-0.0279 0.0375,-0.028 0,0 0.0529,-0.0436 0.0973,-0.0803 0.0325,-0.0268 0.0606,-0.05 0.0606,-0.0501 0,0 0.0414,-0.0128 0.0721,-0.0222 0.018,-0.006 0.0323,-0.01 0.0323,-0.01 l 0.0818,0.0239 c 0,-9e-5 0.0155,-0.007 0.038,-0.0173 0.0335,-0.0152 0.0828,-0.0376 0.11985,-0.0544 0.0297,-0.0135 0.0516,-0.0234 0.0516,-0.0234 9e-5,0 0.0863,-0.0415 0.15002,-0.0722 0.0373,-0.018 0.067,-0.0324 0.067,-0.0324 9e-5,-9e-5 0.12354,-0.0583 0.23098,-0.10902 0.0613,-0.029 0.11764,-0.0555 0.14263,-0.0673 0.009,-0.004 0.0138,-0.007 0.0138,-0.007 0,0 0.10435,-0.0114 0.14096,-0.0153 0.008,-8.8e-4 0.0126,-0.001 0.0126,-0.001 0,0 0.059,0.0227 0.1268,0.0489 0.092,0.0355 0.20061,0.0774 0.20061,0.0774 0,0 0.008,0.002 0.0209,0.007 0.0435,0.0139 0.14668,0.0465 0.23027,0.0732 0.0679,0.0216 0.1231,0.0392 0.12318,0.0392 0,0 0.0155,-0.009 0.0406,-0.0226 0.043,-0.024 0.11465,-0.0639 0.18451,-0.10286 0.10331,-0.0576 0.20335,-0.11351 0.20344,-0.11351 0,-9e-5 0.008,8.8e-4 0.0225,0.003 0.10023,0.0116 0.50437,0.0587 0.56376,0.0656 0.005,5.3e-4 0.007,8.8e-4 0.007,8.8e-4 0,0 0.2455,0.32407 0.30744,0.4059 0.009,0.0119 0.0142,0.0187 0.0142,0.0187 9e-5,9e-5 0.20528,0.23317 0.26151,0.29705 0.009,0.0101 0.0142,0.016 0.0142,0.016 0,9e-5 0.0239,0.0534 0.0547,0.12266 0.0146,0.0329 0.0309,0.0695 0.047,0.10567 0.0474,0.1063 0.0935,0.20995 0.0935,0.20995"
         id="path2150" />
      <path
         style="fill:none;fill-opacity:0.8;stroke:#a57ed9;stroke-width:0.174023;stroke-linecap:butt;stroke-linejoin:miter;stroke-miterlimit:4;stroke-dasharray:none;stroke-opacity:1"
         d="m 128.297,144.80855 0.03,-0.069 v 0 0 0 c 0.004,-0.004 0.105,-0.11 0.105,-0.11 v 0 0 0 c 0.007,-0.006 0.088,-0.064 0.174,-0.127 v 0 c 0.106,-0.077 0.221,-0.161 0.221,-0.161 v 0 c 0,-0.001 0.024,-0.018 0.059,-0.046 v 0 c 0.105,-0.08 0.315,-0.242 0.378,-0.29 v 0 c 0.011,-0.009 0.018,-0.014 0.018,-0.014 v 0 c 0.006,-0.005 0.147,-0.109 0.225,-0.168 v 0 c 0.03,-0.022 0.051,-0.038 0.051,-0.038 v 0 c 0.001,-0.001 0.073,-0.06 0.133,-0.11 v 0 c 0.045,-0.037 0.083,-0.068 0.083,-0.069 v 0 c 0.001,0 0.057,-0.017 0.099,-0.03 h 0.001 c 0.024,-0.008 0.043,-0.014 0.043,-0.014 v 0 l 0.112,0.033 h 0.001 c 0.003,-0.002 0.023,-0.011 0.051,-0.024 h 0.001 c 0.046,-0.021 0.113,-0.051 0.163,-0.074 h 0.001 c 0.04,-0.019 0.07,-0.032 0.07,-0.032 v 0 c 0.001,-0.001 0.119,-0.057 0.206,-0.099 v 0 c 0.051,-0.025 0.091,-0.044 0.091,-0.044 v 0 c 0.002,-0.001 0.17,-0.081 0.317,-0.15 v 0 c 0.084,-0.039 0.161,-0.076 0.195,-0.092 v 0 c 0.012,-0.005 0.019,-0.009 0.019,-0.009 v 0 c 0.002,0 0.143,-0.016 0.193,-0.021 v 0 c 0.011,-10e-4 0.017,-0.002 0.017,-0.002 v 0 c 0.002,0.001 0.082,0.032 0.174,0.067 v 0 c 0.126,0.049 0.274,0.106 0.274,0.106 v 0 c 0.001,0 0.012,0.003 0.029,0.01 v 0 c 0.06,0.019 0.201,0.063 0.315,0.1 v 0 c 0.093,0.03 0.169,0.054 0.169,0.054 v 0 c 0.001,-0.001 0.022,-0.013 0.056,-0.031 v 0 c 0.059,-0.033 0.157,-0.088 0.252,-0.141 v 0 c 0.142,-0.079 0.279,-0.156 0.279,-0.156 v 0 c 0,0 0.011,0.002 0.031,0.004 v 0 c 0.137,0.016 0.69,0.081 0.772,0.09 v 0 c 0.006,0.001 0.009,0.001 0.009,0.001 v 0.001 c 0.008,0.009 0.337,0.444 0.421,0.555 l 0.001,0.001 c 0.012,0.016 0.019,0.025 0.019,0.025 v 0 c 0.001,10e-4 0.281,0.319 0.358,0.407 v 0 c 0.012,0.014 0.019,0.021 0.019,0.021 l 10e-4,10e-4 c 0.002,0.006 0.034,0.077 0.074,0.167 l 0.001,0.001 c 0.019,0.045 0.042,0.095 0.064,0.144 v 0.001 c 0.065,0.145 0.128,0.287 0.128,0.287"
         id="path2382" />
      <path
         style="fill:none;fill-opacity:0.8;stroke:#a57ed9;stroke-width:0.179905;stroke-linecap:butt;stroke-linejoin:miter;stroke-miterlimit:4;stroke-dasharray:none;stroke-opacity:1"
         d="m 126.683,144.80791 0.041,-0.096 h 10e-4 v 0 0 c 0.005,-0.006 0.145,-0.153 0.145,-0.153 v -0.001 h 10e-4 v 0 c 0.01,-0.008 0.122,-0.089 0.242,-0.177 v 0 c 0.148,-0.108 0.308,-0.224 0.308,-0.224 v -0.001 c 10e-4,0 0.034,-0.025 0.083,-0.063 v 0 c 0.146,-0.112 0.439,-0.338 0.527,-0.405 v 0 c 0.016,-0.012 0.025,-0.019 0.025,-0.019 v -0.001 c 0.006,-0.004 0.204,-0.151 0.313,-0.233 h 0.001 c 0.042,-0.032 0.071,-0.053 0.071,-0.053 v -0.001 c 0.001,-0.001 0.101,-0.083 0.186,-0.153 v 0 c 0.062,-0.051 0.115,-0.095 0.115,-0.095 v 0 c 0.002,-0.001 0.08,-0.025 0.138,-0.043 h 0.001 c 0.034,-0.011 0.061,-0.019 0.061,-0.019 v 0 c 0.002,0.001 0.156,0.046 0.156,0.046 l 10e-4,-10e-4 c 0.003,-0.001 0.031,-0.014 0.071,-0.032 l 0.001,-0.001 c 0.064,-0.029 0.158,-0.071 0.228,-0.103 h 0.001 c 0.056,-0.026 0.098,-0.045 0.098,-0.045 v 0 c 0.003,-0.001 0.166,-0.08 0.286,-0.138 h 0.001 c 0.071,-0.034 0.127,-0.062 0.127,-0.062 v 0 c 0.004,-0.002 0.238,-0.112 0.441,-0.208 v 0 c 0.117,-0.055 0.225,-0.106 0.273,-0.128 v 0 c 0.017,-0.008 0.026,-0.013 0.026,-0.013 v 0 c 0.005,-0.001 0.2,-0.022 0.269,-0.029 v 0 c 0.015,-0.002 0.024,-0.003 0.024,-0.003 v 0 c 0.004,0.002 0.115,0.045 0.242,0.094 v 0 c 0.176,0.068 0.383,0.148 0.383,0.148 v 0 c 0.001,0 0.016,0.004 0.04,0.013 v 0 c 0.084,0.026 0.28,0.089 0.44,0.139 v 0 c 0.13,0.042 0.235,0.075 0.235,0.075 v 0 c 0.002,-0.001 0.031,-0.017 0.078,-0.043 v 0 c 0.082,-0.046 0.219,-0.122 0.352,-0.196 v 0 c 0.197,-0.11 0.388,-0.217 0.388,-0.217 h 0.001 c 10e-4,0 0.016,0.002 0.042,0.005 h 0.001 c 0.192,0.022 0.962,0.112 1.076,0.125 v 0 c 0.009,10e-4 0.013,0.002 0.013,0.002 h 0.001 c 0.006,0.009 0.469,0.62 0.587,0.775 v 0.001 c 0.017,0.022 0.027,0.035 0.027,0.035 v 0 c 0.003,0.004 0.392,0.445 0.499,0.567 v 0 c 0.017,0.019 0.027,0.031 0.027,0.031 v 0 c 0.003,0.006 0.047,0.105 0.104,0.234 h 0.001 c 0.028,0.063 0.059,0.133 0.089,0.202 v 0 c 0.091,0.203 0.179,0.4 0.179,0.4"
         id="path2384" />
      <path
         style="fill:none;fill-opacity:0.8;stroke:#a57ed9;stroke-width:0.18678;stroke-linecap:butt;stroke-linejoin:miter;stroke-miterlimit:4;stroke-dasharray:none;stroke-opacity:1"
         d="m 124.796,144.80638 0.055,-0.128 h 0.001 v 0 0 c 0.007,-0.008 0.193,-0.203 0.193,-0.203 v -0.001 h 0.001 v 0 c 0.014,-0.011 0.163,-0.119 0.323,-0.235 v -0.001 c 0.196,-0.143 0.409,-0.298 0.409,-0.298 h 10e-4 c 0.002,-0.002 0.044,-0.035 0.11,-0.085 v 0 c 0.194,-0.149 0.584,-0.45 0.701,-0.539 v 0 c 0.021,-0.016 0.033,-0.026 0.033,-0.026 v 0 c 0.006,-0.004 0.271,-0.201 0.417,-0.31 v -0.001 c 0.056,-0.042 0.095,-0.07 0.095,-0.071 v 0 c 0.003,-0.002 0.136,-0.111 0.247,-0.204 v 0 c 0.083,-0.068 0.154,-0.127 0.154,-0.127 v 0 c 0.002,0 0.106,-0.032 0.183,-0.056 h 0.001 c 0.046,-0.015 0.082,-0.025 0.082,-0.025 v 0 c 0.004,0.001 0.207,0.06 0.207,0.06 h 0.001 c 0.003,-0.002 0.041,-0.019 0.096,-0.044 h 0.001 c 0.085,-0.039 0.21,-0.095 0.303,-0.138 h 0.001 c 0.075,-0.034 0.131,-0.059 0.131,-0.059 v 0 c 0.004,-0.003 0.22,-0.107 0.381,-0.184 v 0 c 0.095,-0.046 0.17,-0.082 0.17,-0.082 v 0 c 0.007,-0.004 0.317,-0.15 0.587,-0.277 v 0 c 0.156,-0.074 0.299,-0.141 0.362,-0.171 v 0 c 0.023,-0.011 0.035,-0.017 0.035,-0.017 v 0 c 0.008,-0.001 0.267,-0.029 0.358,-0.039 h 0.001 c 0.019,-0.002 0.031,-0.003 0.031,-0.003 v 0 c 0.006,0.002 0.154,0.059 0.322,0.124 h 0.001 c 0.233,0.091 0.509,0.197 0.509,0.197 v 0 c 0.002,0 0.021,0.006 0.053,0.017 h 0.001 c 0.11,0.035 0.372,0.118 0.584,0.186 h 10e-4 c 0.172,0.055 0.312,0.099 0.312,0.099 v 0 c 0.004,-0.001 0.042,-0.023 0.103,-0.057 h 0.001 c 0.109,-0.061 0.291,-0.162 0.468,-0.261 v 0 c 0.263,-0.147 0.517,-0.289 0.517,-0.289 v 0 c 0.003,0 0.023,0.003 0.057,0.007 h 0.001 c 0.255,0.03 1.281,0.149 1.431,0.167 h 0.001 c 0.012,0.001 0.018,0.002 0.018,0.002 v 0 c 0.006,0.009 0.624,0.824 0.781,1.031 v 0.001 c 0.023,0.03 0.036,0.047 0.036,0.047 v 0 c 0.005,0.006 0.522,0.593 0.664,0.754 l 0.001,10e-4 c 0.022,0.025 0.035,0.04 0.035,0.04 v 10e-4 c 0.003,0.005 0.062,0.138 0.139,0.311 h 0.001 c 0.037,0.084 0.078,0.177 0.119,0.268 v 0.001 c 0.12,0.27 0.237,0.533 0.237,0.533"
         id="path2386" />
      <path
         style="fill:none;fill-opacity:0.8;stroke:#a57ed9;stroke-width:0.19439;stroke-linecap:butt;stroke-linejoin:miter;stroke-miterlimit:4;stroke-dasharray:none;stroke-opacity:1"
         d="m 122.707,144.80443 0.071,-0.163 v 0 0 0 c 0.01,-0.01 0.247,-0.26 0.247,-0.26 v 0 l 10e-4,-0.001 v 0 c 0.018,-0.013 0.208,-0.151 0.412,-0.3 v 0 c 0.25,-0.183 0.522,-0.381 0.522,-0.381 v 0 c 0.003,-0.002 0.058,-0.044 0.141,-0.108 v 0 c 0.247,-0.19 0.745,-0.574 0.893,-0.687 h 0.001 c 0.026,-0.02 0.042,-0.033 0.042,-0.033 v 0 c 0.005,-0.003 0.344,-0.256 0.531,-0.396 h 0.001 c 0.071,-0.054 0.121,-0.09 0.121,-0.091 v 0 c 0.004,-0.003 0.173,-0.142 0.315,-0.26 v 0 c 0.105,-0.087 0.196,-0.162 0.196,-0.162 v 0 c 0.003,-0.001 0.136,-0.042 0.234,-0.072 h 0.001 c 0.058,-0.018 0.103,-0.032 0.103,-0.032 h 0.001 c 0.006,0.002 0.265,0.077 0.265,0.077 v 0 c 0.003,-0.001 0.052,-0.024 0.123,-0.056 v 0 c 0.109,-0.049 0.268,-0.122 0.388,-0.176 v 0 c 0.096,-0.044 0.167,-0.076 0.167,-0.076 v 0 c 0.007,-0.003 0.282,-0.135 0.486,-0.234 h 0.001 c 0.12,-0.058 0.216,-0.105 0.216,-0.105 v 0 c 0.01,-0.004 0.404,-0.191 0.748,-0.353 v 0 c 0.199,-0.094 0.381,-0.18 0.462,-0.218 v 0 c 0.029,-0.013 0.045,-0.021 0.045,-0.021 v 0 c 0.012,-0.002 0.34,-0.037 0.456,-0.05 h 0.001 c 0.025,-0.003 0.04,-0.004 0.04,-0.004 h 0.001 c 0.008,0.004 0.196,0.076 0.41,0.159 v 0 c 0.298,0.115 0.65,0.25 0.65,0.25 v 0 c 0.002,10e-4 0.027,0.009 0.068,0.022 v 0 c 0.141,0.045 0.475,0.151 0.745,0.237 h 10e-4 c 0.22,0.07 0.398,0.127 0.399,0.127 v 0 c 0.004,-0.003 0.054,-0.03 0.131,-0.073 l 0.001,-0.001 c 0.139,-0.077 0.371,-0.206 0.597,-0.332 v -0.001 c 0.335,-0.186 0.658,-0.367 0.659,-0.367 v 0 c 0.004,0 0.029,0.003 0.073,0.009 v 0 c 0.326,0.037 1.634,0.19 1.826,0.212 v 0 c 0.016,0.002 0.023,0.003 0.023,0.003 v 0 c 0.006,0.008 0.796,1.051 0.996,1.315 v 0 c 0.029,0.038 0.046,0.06 0.046,0.06 v 0 c 0.008,0.009 0.666,0.757 0.847,0.962 v 10e-4 c 0.029,0.032 0.046,0.051 0.046,0.051 v 0.001 c 0.002,0.005 0.079,0.176 0.177,0.397 h 0.001 c 0.047,0.107 0.099,0.225 0.152,0.342 v 0 c 0.153,0.344 0.302,0.68 0.302,0.68"
         id="path2388" />
      <path
         style="fill:none;fill-opacity:0.8;stroke:#a57ed9;stroke-width:0.202599;stroke-linecap:butt;stroke-linejoin:miter;stroke-miterlimit:4;stroke-dasharray:none;stroke-opacity:1"
         d="m 120.455,144.80284 0.087,-0.2 v 0 0 -10e-4 c 0.013,-0.013 0.304,-0.32 0.304,-0.32 v 0 l 10e-4,-10e-4 h 0.001 c 0.022,-0.016 0.256,-0.187 0.507,-0.37 v 0 c 0.309,-0.225 0.644,-0.469 0.644,-0.469 v 0 c 0.003,-0.003 0.071,-0.055 0.173,-0.134 v 0 c 0.305,-0.234 0.919,-0.707 1.102,-0.847 v 0 c 0.033,-0.025 0.052,-0.04 0.052,-0.04 v 0 c 0.005,-0.003 0.424,-0.316 0.655,-0.488 v -0.001 c 0.089,-0.065 0.15,-0.111 0.15,-0.111 v 0 c 0.005,-0.004 0.213,-0.176 0.388,-0.32 v -0.001 c 0.13,-0.107 0.242,-0.199 0.242,-0.199 v 0 c 0.004,-0.002 0.167,-0.052 0.288,-0.089 h 10e-4 c 0.072,-0.022 0.128,-0.04 0.128,-0.04 v 0 c 0.008,0.003 0.327,0.096 0.327,0.096 v -0.001 c 0.003,-0.001 0.064,-0.029 0.152,-0.069 v 0 c 0.134,-0.061 0.33,-0.15 0.478,-0.217 h 10e-4 c 0.118,-0.054 0.205,-0.093 0.205,-0.093 v 0 c 0.009,-0.004 0.348,-0.168 0.599,-0.289 h 0.001 c 0.148,-0.072 0.267,-0.129 0.267,-0.129 v 0 c 0.013,-0.006 0.498,-0.235 0.922,-0.435 v 0 c 0.245,-0.116 0.47,-0.222 0.569,-0.269 v 0 c 0.036,-0.016 0.055,-0.026 0.055,-0.026 h 0.001 c 0.015,-0.002 0.419,-0.046 0.562,-0.062 h 0.001 c 0.031,-0.003 0.05,-0.005 0.05,-0.005 v 0.001 c 0.012,0.004 0.242,0.093 0.506,0.195 v 0 c 0.368,0.142 0.801,0.309 0.801,0.309 v 0 c 0.003,0.001 0.034,0.01 0.084,0.027 v 0 c 0.174,0.056 0.586,0.186 0.919,0.292 h 0.001 c 0.271,0.086 0.49,0.156 0.491,0.156 v 0 c 0.006,-0.003 0.067,-0.037 0.162,-0.09 h 0.001 c 0.172,-0.096 0.457,-0.255 0.736,-0.411 v 0 c 0.412,-0.23 0.812,-0.453 0.812,-0.453 h 0.001 c 0.004,0 0.036,0.004 0.089,0.011 h 0.001 c 0.402,0.046 2.013,0.234 2.25,0.261 h 0.001 c 0.018,0.002 0.028,0.004 0.028,0.004 v 0 c 0.005,0.007 0.981,1.295 1.227,1.621 h 0.001 c 0.035,0.047 0.056,0.074 0.056,0.074 v 0 c 0.011,0.012 0.821,0.933 1.044,1.186 v 0.001 c 0.036,0.04 0.057,0.063 0.057,0.063 v 0.001 c 0.002,0.004 0.096,0.215 0.218,0.489 h 10e-4 c 0.058,0.132 0.123,0.278 0.187,0.422 v 0 c 0.189,0.425 0.373,0.838 0.373,0.838"
         id="path2390" />
      <path
         style="fill:none;fill-opacity:0.8;stroke:#a57ed9;stroke-width:0.211317;stroke-linecap:butt;stroke-linejoin:miter;stroke-miterlimit:4;stroke-dasharray:none;stroke-opacity:1"
         d="m 118.062,144.80138 0.104,-0.241 v 0 0 l 0.001,-0.001 c 0.015,-0.016 0.365,-0.384 0.365,-0.384 v 0 l 0.001,-10e-4 h 0.001 c 0.026,-0.02 0.307,-0.224 0.608,-0.444 h 0.001 c 0.37,-0.27 0.772,-0.563 0.772,-0.564 v 0 c 0.005,-0.003 0.086,-0.065 0.209,-0.16 v 0 c 0.365,-0.281 1.102,-0.849 1.322,-1.017 v 0 c 0.039,-0.03 0.062,-0.048 0.062,-0.048 v 0 c 0.005,-0.003 0.509,-0.379 0.787,-0.586 v -0.001 c 0.106,-0.079 0.179,-0.133 0.179,-0.134 h 10e-4 c 0.006,-0.005 0.256,-0.211 0.466,-0.384 v 0 c 0.156,-0.129 0.291,-0.24 0.291,-0.24 v 0 c 0.005,-0.002 0.2,-0.062 0.345,-0.107 h 0.001 c 0.086,-0.026 0.154,-0.047 0.154,-0.047 v 0 c 0.011,0.003 0.392,0.114 0.392,0.114 h 0.001 c 0.002,-10e-4 0.075,-0.035 0.182,-0.083 v 0 c 0.161,-0.073 0.397,-0.18 0.574,-0.261 h 0.001 c 0.141,-0.064 0.246,-0.112 0.246,-0.112 h 0.001 c 0.011,-0.005 0.417,-0.201 0.718,-0.346 h 0.001 c 0.179,-0.087 0.32,-0.155 0.32,-0.155 h 10e-4 c 0.016,-0.008 0.599,-0.283 1.107,-0.523 v 0 c 0.294,-0.139 0.564,-0.266 0.683,-0.323 v 0 c 0.043,-0.019 0.066,-0.031 0.066,-0.031 h 0.001 c 0.02,-0.002 0.503,-0.055 0.675,-0.073 l 0.001,-0.001 c 0.037,-0.004 0.059,-0.006 0.059,-0.006 l 0.001,0.001 c 0.015,0.005 0.291,0.112 0.607,0.234 h 0.001 c 0.441,0.17 0.961,0.371 0.961,0.371 v 0 c 0.004,0.001 0.041,0.013 0.1,0.032 h 10e-4 c 0.209,0.067 0.703,0.223 1.103,0.351 h 0.001 c 0.325,0.103 0.589,0.188 0.59,0.188 v -0.001 c 0.008,-0.004 0.08,-0.045 0.194,-0.108 h 0.001 c 0.206,-0.116 0.549,-0.306 0.883,-0.493 h 0.001 c 0.495,-0.276 0.974,-0.544 0.975,-0.544 h 0.001 c 0.005,0 0.043,0.005 0.107,0.013 h 10e-4 c 0.482,0.056 2.416,0.281 2.701,0.314 h 0.001 c 0.022,0.002 0.034,0.004 0.034,0.004 v 0 c 0.005,0.006 1.177,1.554 1.473,1.946 h 0.001 c 0.043,0.057 0.067,0.089 0.067,0.089 h 0.001 c 0.013,0.016 0.985,1.12 1.253,1.424 v 0 c 0.043,0.049 0.068,0.077 0.068,0.077 v 0 c 0.002,0.005 0.115,0.259 0.262,0.588 v 0 c 0.07,0.158 0.148,0.333 0.225,0.506 l 0.001,0.001 c 0.227,0.509 0.447,1.006 0.447,1.006"
         id="path2392" />
      <path
         style="fill:none;fill-opacity:0.8;stroke:#a57ed9;stroke-width:0.220485;stroke-linecap:butt;stroke-linejoin:miter;stroke-miterlimit:4;stroke-dasharray:none;stroke-opacity:1"
         d="m 115.545,144.79917 0.123,-0.282 v -0.001 0 h 10e-4 c 0.018,-0.019 0.429,-0.452 0.429,-0.452 v 0 l 0.002,-10e-4 v -0.001 c 0.032,-0.023 0.362,-0.263 0.716,-0.521 v 0 c 0.436,-0.318 0.908,-0.663 0.908,-0.663 h 10e-4 c 0.005,-0.004 0.1,-0.077 0.244,-0.189 h 0.001 c 0.429,-0.33 1.296,-0.997 1.554,-1.195 v 0 c 0.046,-0.035 0.073,-0.056 0.073,-0.056 v 0 c 0.004,-0.003 0.598,-0.446 0.925,-0.69 v 0 c 0.125,-0.093 0.211,-0.157 0.211,-0.157 v -0.001 c 0.009,-0.006 0.302,-0.248 0.549,-0.452 v 0 c 0.183,-0.151 0.341,-0.281 0.341,-0.282 v 0 c 0.007,-0.002 0.236,-0.073 0.407,-0.125 v 0 c 0.102,-0.031 0.182,-0.056 0.182,-0.056 v 0 c 0.013,0.004 0.461,0.135 0.461,0.135 v -0.001 c 0.002,-0.001 0.089,-0.04 0.214,-0.097 h 0.001 c 0.188,-0.086 0.466,-0.212 0.674,-0.307 h 0.001 c 0.167,-0.076 0.29,-0.131 0.29,-0.131 v -0.001 c 0.014,-0.006 0.491,-0.236 0.845,-0.407 h 0.001 c 0.21,-0.101 0.377,-0.182 0.377,-0.182 v 0 c 0.02,-0.01 0.704,-0.333 1.301,-0.614 l 0.001,-10e-4 c 0.345,-0.163 0.662,-0.312 0.803,-0.379 v 0 c 0.05,-0.023 0.078,-0.037 0.078,-0.037 h 0.001 c 0.024,-0.002 0.591,-0.064 0.793,-0.086 h 0.001 c 0.044,-0.005 0.07,-0.008 0.07,-0.007 h 0.001 c 0.018,0.007 0.343,0.132 0.714,0.275 v 0.001 c 0.519,0.2 1.13,0.436 1.13,0.436 h 0.001 c 0.004,0.001 0.047,0.015 0.117,0.037 l 0.001,0.001 c 0.246,0.078 0.827,0.262 1.297,0.412 h 0.001 c 0.382,0.121 0.692,0.22 0.693,0.22 h 0.001 c 0.009,-0.005 0.094,-0.053 0.228,-0.127 l 0.001,-0.001 c 0.242,-0.135 0.645,-0.359 1.038,-0.579 h 0.001 c 0.582,-0.325 1.145,-0.639 1.146,-0.639 h 0.001 c 0.007,0 0.052,0.005 0.126,0.014 l 0.001,10e-4 c 0.567,0.065 2.841,0.33 3.176,0.369 h 0.001 c 0.026,0.003 0.04,0.005 0.04,0.005 v 0 c 0.004,0.005 1.383,1.827 1.732,2.287 v 0 c 0.051,0.067 0.08,0.105 0.08,0.105 v 0 c 0.017,0.019 1.159,1.317 1.473,1.674 h 0.001 c 0.05,0.057 0.079,0.09 0.079,0.09 v 0.001 c 0.002,0.004 0.136,0.303 0.309,0.691 v 0 c 0.082,0.185 0.174,0.391 0.264,0.595 h 0.001 c 0.267,0.599 0.526,1.183 0.526,1.183"
         id="path2394" />
      <path
         style="fill:none;fill-opacity:0.8;stroke:#a57ed9;stroke-width:0.230056;stroke-linecap:butt;stroke-linejoin:miter;stroke-miterlimit:4;stroke-dasharray:none;stroke-opacity:1"
         d="m 112.919,144.79731 0.142,-0.326 v -10e-4 0 0 c 0.022,-0.023 0.496,-0.522 0.496,-0.522 l 0.001,-0.001 0.002,-10e-4 v 0 c 0.037,-0.027 0.418,-0.305 0.828,-0.603 v -0.001 c 0.503,-0.367 1.05,-0.765 1.05,-0.766 v 0 c 0.007,-0.005 0.116,-0.089 0.283,-0.217 v -0.001 c 0.497,-0.382 1.498,-1.153 1.797,-1.381 v 0 c 0.053,-0.041 0.084,-0.065 0.084,-0.065 h 10e-4 c 0.003,-0.002 0.69,-0.515 1.068,-0.797 l 10e-4,-0.001 c 0.144,-0.107 0.243,-0.181 0.243,-0.182 h 10e-4 c 0.009,-0.008 0.348,-0.287 0.633,-0.522 l 10e-4,-0.001 c 0.211,-0.174 0.394,-0.325 0.394,-0.326 v 0 c 0.008,-0.002 0.273,-0.084 0.47,-0.144 h 0.001 c 0.117,-0.036 0.21,-0.065 0.21,-0.065 v 0 c 0.015,0.005 0.533,0.156 0.533,0.156 v -10e-4 c 0.001,-0.001 0.102,-0.046 0.247,-0.112 h 0.001 c 0.218,-0.1 0.539,-0.245 0.78,-0.355 v 0 c 0.193,-0.087 0.336,-0.152 0.336,-0.152 v 0 c 0.017,-0.008 0.568,-0.273 0.977,-0.471 v 0 c 0.243,-0.117 0.436,-0.21 0.436,-0.21 l 0.001,-0.001 c 0.023,-0.011 0.814,-0.384 1.504,-0.71 v 0 c 0.399,-0.188 0.766,-0.361 0.929,-0.438 v 0 c 0.057,-0.027 0.09,-0.043 0.09,-0.043 h 10e-4 c 0.028,-0.003 0.684,-0.074 0.917,-0.099 l 0.001,-0.001 c 0.05,-0.005 0.081,-0.008 0.081,-0.008 l 10e-4,0.001 c 0.021,0.008 0.396,0.152 0.825,0.318 h 0.001 c 0.599,0.232 1.306,0.504 1.306,0.504 v 0 c 0.006,0.002 0.055,0.018 0.136,0.043 l 0.002,0.001 c 0.284,0.091 0.954,0.303 1.498,0.476 l 0.001,0.001 c 0.442,0.14 0.801,0.254 0.801,0.254 h 0.001 c 0.011,-0.006 0.11,-0.061 0.264,-0.147 l 0.001,-0.001 c 0.281,-0.156 0.746,-0.416 1.201,-0.669 v -0.001 c 0.673,-0.375 1.324,-0.738 1.325,-0.738 h 0.001 c 0.008,0 0.06,0.006 0.145,0.016 l 0.002,0.001 c 0.656,0.076 3.284,0.382 3.671,0.426 l 0.001,0.001 c 0.03,0.003 0.046,0.005 0.046,0.005 v 0 c 0.004,0.005 1.6,2.112 2.003,2.644 v 0 c 0.058,0.078 0.092,0.122 0.092,0.122 v 0 c 0.02,0.022 1.34,1.522 1.703,1.935 h 0.001 c 0.058,0.066 0.092,0.104 0.092,0.104 v 0 c 0.001,0.004 0.156,0.35 0.356,0.799 v 0 c 0.095,0.215 0.201,0.453 0.306,0.688 v 0.001 c 0.309,0.692 0.609,1.367 0.609,1.367"
         id="path2396" />
      <path
         style="fill:none;fill-opacity:0.8;stroke:#a57ed9;stroke-width:0.239993;stroke-linecap:butt;stroke-linejoin:miter;stroke-miterlimit:4;stroke-dasharray:none;stroke-opacity:1"
         d="m 110.191,144.79544 0.162,-0.373 h 0.001 v 0 -0.001 c 0.025,-0.026 0.566,-0.595 0.566,-0.595 v 0 l 0.002,-0.002 h 0.001 c 0.042,-0.031 0.477,-0.348 0.943,-0.688 v 0 c 0.574,-0.419 1.197,-0.873 1.197,-0.873 v -0.001 c 0.008,-0.005 0.133,-0.101 0.323,-0.248 v 0 c 0.566,-0.435 1.708,-1.314 2.048,-1.574 l 0.001,-0.001 c 0.061,-0.047 0.096,-0.074 0.096,-0.074 v 0 c 0.003,-0.002 0.787,-0.587 1.219,-0.909 v 0 c 0.164,-0.123 0.278,-0.207 0.278,-0.208 v 0 c 0.012,-0.009 0.398,-0.327 0.723,-0.596 v 0 c 0.241,-0.199 0.45,-0.371 0.45,-0.371 v -0.001 c 0.009,-0.002 0.311,-0.095 0.536,-0.164 v 0 c 0.134,-0.042 0.24,-0.074 0.24,-0.074 v 0 c 0.017,0.005 0.607,0.177 0.607,0.177 h 10e-4 c 0.001,-0.001 0.115,-0.053 0.282,-0.129 v 0 c 0.249,-0.113 0.615,-0.279 0.89,-0.403 v -0.001 c 0.22,-0.099 0.382,-0.173 0.382,-0.173 h 0.001 c 0.019,-0.009 0.647,-0.312 1.114,-0.537 v 0 c 0.277,-0.134 0.497,-0.24 0.497,-0.24 v 0 c 0.028,-0.014 0.929,-0.439 1.715,-0.81 h 0.001 c 0.455,-0.215 0.873,-0.412 1.058,-0.5 h 10e-4 c 0.065,-0.03 0.102,-0.048 0.102,-0.048 h 0.001 c 0.033,-0.004 0.78,-0.085 1.046,-0.114 h 0.001 c 0.057,-0.006 0.092,-0.01 0.092,-0.01 l 0.001,0.001 c 0.025,0.009 0.452,0.174 0.941,0.363 h 0.001 c 0.683,0.264 1.489,0.575 1.489,0.575 v 0 c 0.007,0.002 0.063,0.02 0.155,0.049 h 0.002 c 0.324,0.104 1.088,0.346 1.708,0.544 h 0.002 c 0.503,0.16 0.912,0.29 0.913,0.29 h 0.001 c 0.013,-0.007 0.125,-0.07 0.3,-0.168 l 0.002,-0.001 c 0.32,-0.178 0.851,-0.474 1.368,-0.762 l 10e-4,-0.001 c 0.767,-0.428 1.509,-0.842 1.51,-0.842 h 0.002 c 0.009,0 0.068,0.007 0.165,0.019 h 0.002 c 0.748,0.087 3.744,0.436 4.185,0.487 h 0.002 c 0.034,0.004 0.052,0.006 0.052,0.006 v 0 c 0.003,0.004 1.824,2.407 2.283,3.014 v 0.001 c 0.067,0.088 0.105,0.138 0.105,0.138 h 0.001 c 0.023,0.026 1.527,1.735 1.941,2.206 h 0.001 c 0.066,0.075 0.105,0.119 0.105,0.119 v 0 c 0.001,0.003 0.177,0.398 0.406,0.911 v 0 c 0.109,0.244 0.229,0.516 0.349,0.785 v 0 c 0.352,0.789 0.694,1.559 0.694,1.559"
         id="path2398" />
      <path
         style="fill:none;fill-opacity:0.8;stroke:#a57ed9;stroke-width:0.250267;stroke-linecap:butt;stroke-linejoin:miter;stroke-miterlimit:4;stroke-dasharray:none;stroke-opacity:1"
         d="m 107.372,144.79349 0.182,-0.42 v -0.001 0 h 0.001 c 0.028,-0.029 0.637,-0.67 0.637,-0.67 l 0.001,-0.001 0.002,-0.002 h 0.001 c 0.047,-0.035 0.537,-0.392 1.063,-0.775 v 0 c 0.647,-0.472 1.349,-0.984 1.349,-0.985 v 0 c 0.009,-0.006 0.15,-0.115 0.364,-0.28 v 0 c 0.638,-0.491 1.925,-1.481 2.308,-1.774 l 0.001,-0.001 c 0.069,-0.052 0.108,-0.083 0.108,-0.083 h 0.001 c 0.002,-0.002 0.887,-0.661 1.373,-1.025 v 0 c 0.186,-0.138 0.314,-0.233 0.314,-0.234 v 0 c 0.013,-0.011 0.448,-0.369 0.814,-0.672 h 10e-4 c 0.271,-0.224 0.507,-0.418 0.507,-0.419 v 0 c 0.01,-0.003 0.35,-0.108 0.603,-0.185 h 0.001 c 0.15,-0.047 0.27,-0.083 0.27,-0.083 v 0 c 0.02,0.006 0.685,0.199 0.685,0.199 v 0 c 0.001,-10e-4 0.13,-0.06 0.318,-0.145 v 0 c 0.28,-0.127 0.693,-0.314 1.003,-0.455 v 0 c 0.248,-0.113 0.431,-0.196 0.431,-0.196 h 0.001 c 0.022,-0.01 0.73,-0.351 1.255,-0.604 v -0.001 c 0.312,-0.151 0.56,-0.271 0.56,-0.271 h 0.001 c 0.031,-0.015 1.047,-0.494 1.932,-0.912 h 10e-4 c 0.513,-0.242 0.984,-0.465 1.193,-0.563 l 10e-4,-0.001 c 0.073,-0.034 0.115,-0.054 0.115,-0.054 h 10e-4 c 0.038,-0.004 0.879,-0.096 1.179,-0.128 h 0.001 c 0.065,-0.008 0.104,-0.012 0.104,-0.011 h 0.001 c 0.029,0.011 0.51,0.197 1.06,0.409 l 0.001,0.001 c 0.77,0.297 1.678,0.647 1.678,0.647 l 10e-4,0.001 c 0.007,0.002 0.071,0.022 0.174,0.055 h 0.003 c 0.365,0.117 1.226,0.39 1.925,0.613 h 0.001 c 0.568,0.18 1.029,0.327 1.03,0.327 l 0.001,-0.001 c 0.015,-0.008 0.141,-0.078 0.338,-0.188 l 0.002,-10e-4 c 0.361,-0.201 0.959,-0.534 1.543,-0.86 l 10e-4,-0.001 c 0.864,-0.482 1.7,-0.949 1.701,-0.949 h 0.002 c 0.011,0.001 0.077,0.009 0.187,0.022 h 0.002 c 0.843,0.098 4.219,0.491 4.716,0.548 h 0.002 c 0.039,0.005 0.059,0.008 0.059,0.008 v 0 c 0.002,0.003 2.055,2.712 2.573,3.397 v 0 c 0.075,0.099 0.119,0.156 0.119,0.156 v 0 c 0.026,0.03 1.721,1.955 2.188,2.486 h 0.001 c 0.075,0.085 0.118,0.134 0.118,0.134 v 0 c 0.001,0.003 0.2,0.448 0.458,1.027 v 0 c 0.122,0.275 0.259,0.582 0.393,0.884 v 0 c 0.397,0.89 0.782,1.757 0.782,1.757"
         id="path2400" />
      <path
         style="fill:none;fill-opacity:0.8;stroke:#a57ed9;stroke-width:0.260855;stroke-linecap:butt;stroke-linejoin:miter;stroke-miterlimit:4;stroke-dasharray:none;stroke-opacity:1"
         d="m 104.466,144.79144 0.203,-0.469 0.001,-0.001 v 0 0 c 0.032,-0.033 0.712,-0.748 0.712,-0.748 v -0.001 l 0.003,-0.002 10e-4,-0.001 c 0.053,-0.038 0.6,-0.437 1.186,-0.864 l 10e-4,-0.001 c 0.721,-0.527 1.505,-1.097 1.505,-1.098 v -0.001 c 0.011,-0.007 0.168,-0.128 0.406,-0.312 h 0.001 c 0.712,-0.548 2.148,-1.654 2.576,-1.981 v 0 c 0.077,-0.059 0.122,-0.093 0.122,-0.093 v 0 c 0.002,-0.001 0.99,-0.738 1.532,-1.144 h 10e-4 c 0.207,-0.154 0.35,-0.26 0.35,-0.261 v 0 c 0.015,-0.012 0.5,-0.412 0.909,-0.75 v 0 c 0.303,-0.251 0.566,-0.467 0.566,-0.467 v 0 c 0.012,-0.004 0.392,-0.121 0.674,-0.208 v 0 c 0.169,-0.051 0.302,-0.092 0.302,-0.092 v 0 c 0.023,0.006 0.764,0.222 0.764,0.222 v 0 c 10e-4,-0.001 0.145,-0.066 0.355,-0.162 v 0 c 0.314,-0.142 0.774,-0.351 1.12,-0.508 v 0 c 0.277,-0.125 0.481,-0.218 0.481,-0.218 l 0.001,-0.001 c 0.025,-0.011 0.815,-0.392 1.401,-0.674 v 0 c 0.349,-0.169 0.625,-0.303 0.625,-0.303 h 0.001 c 0.036,-0.017 1.169,-0.552 2.157,-1.018 h 0.001 c 0.573,-0.271 1.098,-0.519 1.332,-0.629 v 0 c 0.082,-0.038 0.129,-0.061 0.129,-0.061 h 0.001 c 0.043,-0.005 0.981,-0.107 1.315,-0.143 h 0.002 c 0.072,-0.008 0.116,-0.013 0.116,-0.012 l 0.001,0.001 c 0.033,0.012 0.57,0.219 1.183,0.456 l 0.002,10e-4 c 0.859,0.331 1.872,0.722 1.872,0.722 l 0.001,0.001 c 0.009,0.002 0.079,0.025 0.195,0.061 l 0.002,0.001 c 0.408,0.13 1.37,0.434 2.149,0.683 l 0.002,0.001 c 0.634,0.201 1.148,0.365 1.149,0.365 l 0.002,-0.001 c 0.016,-0.009 0.157,-0.088 0.377,-0.21 l 0.002,-0.002 c 0.402,-0.224 1.07,-0.596 1.722,-0.959 l 0.001,-0.001 c 0.964,-0.538 1.898,-1.06 1.899,-1.06 h 0.002 c 0.012,0.001 0.087,0.01 0.208,0.024 l 0.003,0.001 c 0.941,0.109 4.709,0.548 5.264,0.612 h 0.002 c 0.043,0.005 0.066,0.008 0.066,0.008 v 0 c 0.001,0.002 2.293,3.027 2.872,3.792 v 0 c 0.084,0.111 0.132,0.174 0.132,0.174 h 0.001 c 0.029,0.034 1.921,2.183 2.442,2.775 v 0 c 0.084,0.094 0.132,0.149 0.132,0.149 v 10e-4 c 0.001,0.002 0.224,0.499 0.512,1.145 v 0 c 0.136,0.308 0.288,0.65 0.439,0.987 v 0.001 c 0.443,0.992 0.873,1.961 0.873,1.961"
         id="path2402" />
      <path
         style="fill:none;fill-opacity:0.8;stroke:#a57ed9;stroke-width:0.271735;stroke-linecap:butt;stroke-linejoin:miter;stroke-miterlimit:4;stroke-dasharray:none;stroke-opacity:1"
         d="m 101.479,144.789 0.226,-0.519 v -0.001 0 l 0.001,-0.001 c 0.035,-0.036 0.787,-0.828 0.787,-0.828 h 0.001 l 0.003,-0.002 0.001,-10e-4 c 0.058,-0.043 0.664,-0.484 1.313,-0.958 h 10e-4 c 0.798,-0.583 1.666,-1.215 1.666,-1.216 h 0.001 c 0.011,-0.009 0.185,-0.142 0.448,-0.346 h 10e-4 c 0.788,-0.606 2.378,-1.831 2.852,-2.193 v 0 c 0.086,-0.065 0.134,-0.103 0.134,-0.103 h 0.001 c 10e-4,-0.001 1.095,-0.817 1.696,-1.266 v 0 c 0.23,-0.171 0.388,-0.288 0.388,-0.289 v -0.001 c 0.017,-0.013 0.554,-0.456 1.006,-0.829 l 0.001,-10e-4 c 0.335,-0.277 0.626,-0.516 0.626,-0.517 h 10e-4 c 0.012,-0.004 0.433,-0.133 0.745,-0.229 v 0 c 0.187,-0.057 0.334,-0.103 0.334,-0.103 h 10e-4 c 0.025,0.008 0.845,0.247 0.845,0.247 v 0 c 10e-4,-0.001 0.161,-0.074 0.393,-0.18 h 0.001 c 0.346,-0.157 0.856,-0.388 1.239,-0.562 v 0 c 0.306,-0.139 0.533,-0.242 0.533,-0.242 h 10e-4 c 0.027,-0.013 0.902,-0.434 1.55,-0.747 v 0 c 0.386,-0.186 0.693,-0.335 0.693,-0.335 h 10e-4 c 0.039,-0.019 1.293,-0.611 2.387,-1.127 l 0.001,-0.001 c 0.634,-0.299 1.216,-0.573 1.474,-0.695 v 0 c 0.091,-0.043 0.143,-0.068 0.143,-0.068 h 0.002 c 0.048,-0.005 1.086,-0.118 1.455,-0.158 h 0.002 c 0.08,-0.009 0.129,-0.014 0.129,-0.013 h 0.001 c 0.036,0.014 0.631,0.243 1.31,0.505 l 10e-4,0.001 c 0.951,0.367 2.073,0.8 2.073,0.8 h 10e-4 c 0.009,0.003 0.088,0.028 0.216,0.068 l 0.002,0.001 c 0.451,0.144 1.516,0.481 2.379,0.756 l 0.002,0.001 c 0.701,0.223 1.271,0.404 1.272,0.404 l 0.002,-0.001 c 0.018,-0.01 0.174,-0.097 0.417,-0.233 l 0.003,-10e-4 c 0.445,-0.249 1.184,-0.66 1.905,-1.062 l 0.002,-0.001 c 1.067,-0.596 2.101,-1.173 2.102,-1.173 h 0.002 c 0.014,0.001 0.096,0.011 0.231,0.027 h 0.003 c 1.041,0.121 5.213,0.606 5.826,0.677 l 0.002,0.001 c 0.048,0.005 0.074,0.008 0.074,0.008 v 0.001 c 0,0 2.538,3.351 3.179,4.197 v 0 c 0.093,0.123 0.146,0.193 0.146,0.193 h 0.001 c 0.033,0.038 2.127,2.416 2.703,3.071 v 0 c 0.093,0.105 0.147,0.166 0.147,0.166 v 0 c 0,0.002 0.247,0.553 0.566,1.268 v 0 c 0.151,0.341 0.319,0.719 0.486,1.093 v 0 c 0.49,1.099 0.966,2.171 0.966,2.171"
         id="path2404" />
    </g>
  </g>
</svg>
