<?xml version="1.0" encoding="UTF-8" standalone="no"?>
<svg
  preserveAspectRatio="none"
   xmlns:dc="http://purl.org/dc/elements/1.1/"
   xmlns:cc="http://creativecommons.org/ns#"
   xmlns:rdf="http://www.w3.org/1999/02/22-rdf-syntax-ns#"
   xmlns:svg="http://www.w3.org/2000/svg"
   xmlns="http://www.w3.org/2000/svg"
   xmlns:sodipodi="http://sodipodi.sourceforge.net/DTD/sodipodi-0.dtd"
   xmlns:inkscape="http://www.inkscape.org/namespaces/inkscape"
   sodipodi:docname="sky.svg"
   inkscape:version="1.0 (4035a4f, 2020-05-01)"
   width="90.094986mm"
   height="34.985134mm"
   viewBox="0 0 90.094985 34.985134"
   version="1.1"
   id="svg8">
  <defs
     id="defs2">
    <inkscape:path-effect
       lpeversion="1"
       is_visible="true"
       id="path-effect855"
       effect="spiro" />
    <inkscape:path-effect
       simplify_just_coalesce="false"
       simplify_individual_paths="false"
       helper_size="0"
       smooth_angles="360"
       threshold="0.0209091"
       steps="1"
       lpeversion="1"
       is_visible="true"
       id="path-effect853"
       effect="simplify" />
    <inkscape:path-effect
       lpeversion="1"
       is_visible="true"
       id="path-effect849"
       effect="spiro" />
    <inkscape:path-effect
       simplify_just_coalesce="false"
       simplify_individual_paths="false"
       helper_size="0"
       smooth_angles="360"
       threshold="0.0209091"
       steps="1"
       lpeversion="1"
       is_visible="true"
       id="path-effect847"
       effect="simplify" />
    <inkscape:path-effect
       lpeversion="1"
       is_visible="true"
       id="path-effect843"
       effect="spiro" />
    <inkscape:path-effect
       simplify_just_coalesce="false"
       simplify_individual_paths="false"
       helper_size="0"
       smooth_angles="360"
       threshold="0.0209091"
       steps="1"
       lpeversion="1"
       is_visible="true"
       id="path-effect841"
       effect="simplify" />
    <inkscape:path-effect
       simplify_just_coalesce="false"
       simplify_individual_paths="false"
       helper_size="0"
       smooth_angles="360"
       threshold="0.0209091"
       steps="1"
       lpeversion="1"
       is_visible="true"
       id="path-effect835"
       effect="simplify" />
  </defs>
  <sodipodi:namedview
     inkscape:snap-global="false"
     inkscape:window-maximized="0"
     inkscape:window-y="54"
     inkscape:window-x="0"
     inkscape:window-height="779"
     inkscape:window-width="998"
     showgrid="false"
     inkscape:document-rotation="0"
     inkscape:current-layer="layer1"
     inkscape:document-units="mm"
     inkscape:cy="115.47417"
     inkscape:cx="158.94848"
     inkscape:zoom="1.0908583"
     inkscape:pageshadow="2"
     inkscape:pageopacity="0.0"
     borderopacity="1.0"
     bordercolor="#666666"
     pagecolor="#ffffff"
     id="base"
     inkscape:snap-bbox="true"
     inkscape:bbox-nodes="true" />
  <metadata
     id="metadata5">
    <rdf:RDF>
      <cc:Work
         rdf:about="">
        <dc:format>image/svg+xml</dc:format>
        <dc:type
           rdf:resource="http://purl.org/dc/dcmitype/StillImage" />
        <dc:title />
      </cc:Work>
    </rdf:RDF>
  </metadata>
  <g
     id="layer1"
     inkscape:groupmode="layer"
     inkscape:label="Layer 1"
     transform="translate(-54.997326,-107.25979)">
    <path
       sodipodi:nodetypes="ccccccccccccccccccc"
       style="opacity:0.675241;fill:none;fill-opacity:1;stroke:#f60dc2;stroke-width:0.4;stroke-linecap:butt;stroke-linejoin:miter;stroke-miterlimit:4;stroke-dasharray:none;stroke-opacity:0.798387"
       d="m 55.187593,123.85543 2.407416,-7.43216 3.829192,-2.86769 6.614583,10.20535 12.756698,-10.29985 3.04776,2.17477 1.073616,5.47254 2.767523,-0.93106 5.30083,-8.22815 12.662199,-1.98438 7.27605,7.18155 2.83481,-8.69345 1.91716,0.61842 1.41535,4.88779 4.84187,3.77327 3.90563,-2.32793 4.26746,-7.89649 3.12108,1.16304 8.3127,15.84588"
       id="path1026" />
    <path
       style="opacity:0.675241;fill:none;fill-opacity:1;stroke:#f60dc2;stroke-width:0.4;stroke-linecap:butt;stroke-linejoin:miter;stroke-miterlimit:4;stroke-dasharray:none;stroke-opacity:0.798387"
       d="m 55.186194,141.73957 c 0,0 2.0127,-2.269 2.9603,-2.269 0.4345,0 3.4619,-1.319 4.0578,-1.319 0.7571,0 4.8272,3.535 5.8013,3.535 0.7629,0 5.3839,-2.374 6.2532,-2.374 0.7261,0 5.4214,-1.299 6.2069,-1.299 0.4302,0 2.9472,1.193 3.392,1.193 1.361,0 10.383202,1.478 11.838402,1.478 0.5739,0 2.4589,-2.884 3.0409,-2.884 0.54,0 3.787004,-1.232 4.331004,-1.232 0.909,0 4.09,4.432 4.996,4.432 0.982,0 4.952,-4.403 5.912,-4.403 0.343,0 2.417,0.701 2.756,0.701 0.711,0 3.558,3.174 4.245,3.174 0.479,0 3.207,1.267 3.671,1.267 1.717,0 5.752,-8.308 7.174,-8.308 0.28,0 1.961,0.497 2.226,0.497 3.275,0 10.898,8.18 10.898,8.18"
       id="path1155" />
    <path
       style="fill:none;stroke:#000000;stroke-width:0.264583px;stroke-linecap:butt;stroke-linejoin:miter;stroke-opacity:1"
       d="m 94.683031,134.74851 v 0 0 0"
       id="path1180" />
    <path
       style="fill:none;stroke:#000000;stroke-width:0.264583px;stroke-linecap:butt;stroke-linejoin:miter;stroke-opacity:1"
       d="m 94.683031,134.74851 v 0 0"
       id="path1182" />
    <g
       id="g1047">
      <path
         style="opacity:0.675241;fill:none;fill-opacity:1;stroke:#f60dc2;stroke-width:0.4;stroke-linecap:butt;stroke-linejoin:miter;stroke-miterlimit:4;stroke-dasharray:none;stroke-opacity:0.798387"
         d="m 55.1876,123.911 c 0,0 0.8896,-2.735 1.5874,-4.88 0.4511,-1.39 0.8249,-2.538 0.8275,-2.539 0.0028,-0.001 1.3917,-1.04 2.4943,-1.865 0.7273,-0.544 1.3316,-0.995 1.3332,-0.994 0.0046,0.003 2.2602,3.478 4.1333,6.364 1.3347,2.057 2.4808,3.817 2.4851,3.816 0.0041,-0.002 1.5281,-1.231 3.5183,-2.837 2.1164,-1.707 4.7751,-3.846 6.6894,-5.39 1.493,-1.204 2.5426,-2.048 2.5454,-2.047 0.0016,0.001 0.6281,0.448 1.3118,0.935 0.8237,0.587 1.7325,1.235 1.7348,1.235 0.0034,0 1.0783,5.457 1.0829,5.457 0.0022,0.001 2.7634,-0.927 2.7656,-0.927 0.0058,10e-4 1.5765,-2.429 3.0051,-4.644 1.1958,-1.854 2.2962,-3.561 2.2986,-3.564 0.0011,-0.001 0.5782,-0.092 1.4847,-0.234 1.484,-0.233 3.8595,-0.607 6.032,-0.947 2.715,-0.426 5.128,-0.799 5.131,-0.795 0.003,0.003 1.309,1.292 2.811,2.774 2.043,2.014 4.456,4.386 4.461,4.382 0.003,-0.002 0.562,-1.712 1.183,-3.611 0.421,-1.289 0.876,-2.663 1.201,-3.655 0.274,-0.84 0.459,-1.402 0.46,-1.401 0.001,0 1.914,0.618 1.915,0.619 0.003,0.003 0.628,2.154 1.047,3.598 0.212,0.73 0.372,1.28 0.374,1.281 0.003,0.001 1.717,1.336 3.102,2.414 0.943,0.734 1.735,1.349 1.737,1.348 0.002,-0.002 3.898,-2.326 3.9,-2.329 0.004,-0.007 3.024,-5.593 3.98,-7.358 0.18,-0.332 0.287,-0.529 0.287,-0.529 0.002,0.001 1.412,0.526 2.334,0.869 0.45,0.167 0.784,0.292 0.785,0.292 0.011,0.003 8.319,15.822 8.319,15.822"
         id="path1013" />
      <path
         style="opacity:0.675241;fill:none;fill-opacity:1;stroke:#f60dc2;stroke-width:0.4;stroke-linecap:butt;stroke-linejoin:miter;stroke-miterlimit:4;stroke-dasharray:none;stroke-opacity:0.798387"
         d="m 55.1876,124.076 c 0,0 0.9,-2.73 1.6001,-4.855 0.4489,-1.378 0.8267,-2.517 0.8372,-2.521 0.0113,-0.004 1.3962,-1.037 2.4915,-1.854 0.7223,-0.539 1.3247,-0.984 1.3309,-0.98 0.0186,0.012 2.2762,3.473 4.1387,6.333 1.3258,2.038 2.4741,3.776 2.4911,3.768 0.0166,-0.007 1.5389,-1.23 3.5146,-2.821 2.1035,-1.691 4.7811,-3.822 6.6849,-5.351 1.4817,-1.194 2.5318,-2.025 2.5428,-2.021 0.0064,0.003 0.6312,0.447 1.3101,0.93 0.8186,0.582 1.7241,1.224 1.7333,1.225 0.0134,0.001 1.0921,5.409 1.1107,5.412 0.0088,0.001 2.7511,-0.918 2.7596,-0.916 0.0233,0.003 1.5945,-2.402 3.015,-4.597 1.1883,-1.837 2.2879,-3.541 2.2975,-3.551 0.0045,-0.005 0.5791,-0.098 1.4789,-0.239 1.4752,-0.23 3.8588,-0.612 6.0165,-0.949 2.694,-0.422 5.095,-0.779 5.109,-0.764 0.012,0.012 1.313,1.297 2.806,2.765 2.029,1.996 4.435,4.332 4.452,4.316 0.013,-0.01 0.575,-1.711 1.194,-3.592 0.42,-1.277 0.89,-2.632 1.215,-3.615 0.274,-0.832 0.46,-1.387 0.465,-1.383 0.004,0.003 1.902,0.618 1.907,0.623 0.011,0.01 0.639,2.149 1.058,3.579 0.211,0.724 0.373,1.27 0.379,1.272 0.012,0.005 1.724,1.332 3.099,2.401 0.937,0.727 1.726,1.333 1.733,1.327 0.007,-0.009 3.873,-2.32 3.882,-2.333 0.019,-0.027 3.025,-5.585 3.979,-7.333 0.179,-0.329 0.286,-0.524 0.289,-0.523 0.007,0.002 1.413,0.524 2.328,0.865 0.448,0.166 0.781,0.289 0.784,0.29 0.043,0.01 8.337,15.75 8.337,15.75"
         id="path1015" />
      <path
         style="opacity:0.675241;fill:none;fill-opacity:1;stroke:#f60dc2;stroke-width:0.4;stroke-linecap:butt;stroke-linejoin:miter;stroke-miterlimit:4;stroke-dasharray:none;stroke-opacity:0.798387"
         d="m 55.1876,124.352 c 0,0 0.9174,-2.722 1.6213,-4.814 0.4452,-1.357 0.8297,-2.483 0.8534,-2.492 0.0254,-0.009 1.4037,-1.031 2.4867,-1.836 0.714,-0.531 1.3131,-0.965 1.3271,-0.956 0.0419,0.028 2.3029,3.465 4.1477,6.28 1.3112,2.007 2.4629,3.708 2.5012,3.691 0.0373,-0.016 1.5568,-1.229 3.5084,-2.795 2.082,-1.665 4.7911,-3.783 6.6774,-5.288 1.4628,-1.175 2.5137,-1.986 2.5384,-1.976 0.0144,0.006 0.6365,0.445 1.3073,0.921 0.8099,0.572 1.7101,1.205 1.7307,1.208 0.0303,0.003 1.1152,5.33 1.157,5.336 0.02,0.003 2.7307,-0.9 2.7499,-0.897 0.0524,0.007 1.6245,-2.357 3.0313,-4.517 1.1759,-1.808 2.274,-3.507 2.2958,-3.531 0.01,-0.011 0.5805,-0.107 1.4691,-0.245 1.4606,-0.227 3.8577,-0.623 5.9897,-0.954 2.66,-0.415 5.043,-0.746 5.074,-0.712 0.025,0.027 1.32,1.306 2.796,2.751 2.006,1.965 4.4,4.24 4.44,4.205 0.027,-0.024 0.595,-1.709 1.21,-3.561 0.419,-1.257 0.914,-2.58 1.239,-3.547 0.272,-0.819 0.461,-1.363 0.472,-1.354 0.01,0.008 1.884,0.619 1.895,0.629 0.026,0.022 0.658,2.141 1.076,3.549 0.21,0.712 0.375,1.252 0.387,1.256 0.028,0.011 1.735,1.327 3.094,2.38 0.928,0.715 1.712,1.307 1.726,1.291 0.017,-0.019 3.833,-2.309 3.853,-2.338 0.042,-0.062 3.025,-5.571 3.977,-7.292 0.177,-0.324 0.285,-0.515 0.291,-0.514 0.017,0.004 1.416,0.523 2.32,0.858 0.444,0.163 0.775,0.285 0.781,0.287 0.098,0.023 8.368,15.631 8.368,15.631"
         id="path1017" />
      <path
         style="opacity:0.675241;fill:none;fill-opacity:1;stroke:#f60dc2;stroke-width:0.4;stroke-linecap:butt;stroke-linejoin:miter;stroke-miterlimit:4;stroke-dasharray:none;stroke-opacity:0.798387"
         d="m 55.1875,124.739 c 0,0 0.9418,-2.713 1.6512,-4.759 0.4399,-1.326 0.8339,-2.434 0.8759,-2.449 0.0452,-0.017 1.4143,-1.024 2.4801,-1.811 0.7023,-0.519 1.2969,-0.939 1.3217,-0.923 0.0746,0.05 2.3402,3.455 4.1603,6.207 1.2906,1.962 2.4473,3.612 2.5153,3.582 0.0663,-0.028 1.582,-1.227 3.4997,-2.758 2.0519,-1.628 4.8051,-3.728 6.667,-5.2 1.4363,-1.149 2.4884,-1.931 2.5323,-1.914 0.0256,0.01 0.6438,0.444 1.3033,0.909 0.7979,0.56 1.6905,1.18 1.727,1.184 0.0539,0.007 1.1476,5.219 1.2219,5.23 0.0355,0.005 2.7022,-0.875 2.7362,-0.87 0.0932,0.013 1.6665,-2.294 3.0542,-4.406 1.1585,-1.769 2.2547,-3.46 2.2933,-3.502 0.0178,-0.019 0.5826,-0.119 1.4556,-0.255 1.4401,-0.221 3.8561,-0.636 5.9525,-0.96 2.613,-0.405 4.969,-0.699 5.024,-0.639 0.045,0.048 1.33,1.319 2.782,2.732 1.975,1.921 4.352,4.111 4.422,4.049 0.049,-0.043 0.624,-1.707 1.234,-3.518 0.417,-1.229 0.948,-2.507 1.273,-3.453 0.27,-0.8 0.462,-1.327 0.482,-1.311 0.017,0.014 1.859,0.619 1.878,0.636 0.045,0.041 0.684,2.131 1.1,3.508 0.209,0.696 0.379,1.226 0.4,1.234 0.05,0.019 1.75,1.32 3.086,2.349 0.915,0.699 1.692,1.27 1.716,1.242 0.031,-0.033 3.778,-2.295 3.812,-2.345 0.076,-0.111 3.027,-5.553 3.975,-7.236 0.175,-0.316 0.284,-0.502 0.294,-0.5 0.03,0.007 1.42,0.52 2.309,0.848 0.438,0.16 0.766,0.28 0.777,0.282 0.174,0.042 8.41,15.464 8.41,15.464"
         id="path1019" />
      <path
         style="opacity:0.675241;fill:none;fill-opacity:1;stroke:#f60dc2;stroke-width:0.4;stroke-linecap:butt;stroke-linejoin:miter;stroke-miterlimit:4;stroke-dasharray:none;stroke-opacity:0.798387"
         d="m 55.1875,125.235 c 0,0 0.973,-2.699 1.6894,-4.685 0.4331,-1.287 0.8393,-2.372 0.9049,-2.396 0.0707,-0.027 1.428,-1.015 2.4716,-1.779 0.6873,-0.504 1.2761,-0.905 1.3149,-0.879 0.1165,0.077 2.3882,3.441 4.1765,6.113 1.2641,1.904 2.4272,3.488 2.5334,3.442 0.1036,-0.045 1.6143,-1.226 3.4885,-2.713 2.0132,-1.58 4.8231,-3.656 6.6536,-5.085 1.4023,-1.116 2.4558,-1.861 2.5244,-1.834 0.04,0.016 0.6531,0.442 1.2982,0.893 0.7824,0.543 1.6652,1.147 1.7223,1.154 0.0842,0.01 1.1893,5.077 1.3054,5.093 0.0555,0.008 2.6653,-0.843 2.7186,-0.836 0.1455,0.02 1.7203,-2.213 3.0836,-4.263 1.1361,-1.717 2.2297,-3.398 2.2901,-3.464 0.0278,-0.03 0.5852,-0.136 1.438,-0.267 1.4139,-0.215 3.8542,-0.653 5.9061,-0.968 2.55,-0.394 4.872,-0.64 4.958,-0.546 0.071,0.076 1.344,1.335 2.765,2.707 1.934,1.865 4.289,3.946 4.399,3.849 0.076,-0.067 0.661,-1.704 1.264,-3.462 0.416,-1.193 0.991,-2.413 1.317,-3.331 0.268,-0.778 0.464,-1.282 0.495,-1.257 0.027,0.021 1.826,0.618 1.856,0.646 0.071,0.063 0.718,2.116 1.132,3.453 0.207,0.676 0.382,1.194 0.416,1.207 0.077,0.029 1.769,1.309 3.075,2.308 0.899,0.679 1.666,1.223 1.705,1.18 0.047,-0.052 3.705,-2.276 3.759,-2.355 0.118,-0.174 3.029,-5.528 3.971,-7.162 0.172,-0.307 0.283,-0.487 0.298,-0.484 0.047,0.011 1.425,0.518 2.294,0.836 0.43,0.155 0.755,0.272 0.772,0.276 0.272,0.065 8.465,15.248 8.465,15.248"
         id="path1021" />
      <path
         style="opacity:0.675241;fill:none;fill-opacity:1;stroke:#f60dc2;stroke-width:0.4;stroke-linecap:butt;stroke-linejoin:miter;stroke-miterlimit:4;stroke-dasharray:none;stroke-opacity:0.798387"
         d="m 55.1874,125.843 c 0,0 1.0113,-2.684 1.7362,-4.597 0.4249,-1.24 0.8459,-2.296 0.9405,-2.331 0.1017,-0.038 1.4445,-1.003 2.4611,-1.739 0.669,-0.485 1.2507,-0.863 1.3065,-0.826 0.1677,0.11 2.4469,3.424 4.1963,5.997 1.2318,1.835 2.4026,3.338 2.5555,3.271 0.1492,-0.065 1.6538,-1.223 3.4749,-2.655 1.9658,-1.522 4.8451,-3.57 6.6371,-4.946 1.3607,-1.075 2.4161,-1.775 2.5148,-1.736 0.0577,0.023 0.6647,0.438 1.292,0.873 0.7634,0.524 1.6344,1.107 1.7166,1.117 0.1212,0.015 1.2401,4.903 1.4073,4.927 0.0799,0.011 2.6204,-0.805 2.6971,-0.795 0.2095,0.03 1.7863,-2.114 3.1196,-4.089 1.1088,-1.653 2.1992,-3.322 2.2862,-3.417 0.0401,-0.044 0.5884,-0.156 1.4166,-0.283 1.3817,-0.207 3.8517,-0.674 5.8473,-0.977 2.475,-0.38 4.756,-0.567 4.88,-0.433 0.102,0.11 1.359,1.356 2.743,2.677 1.885,1.797 4.213,3.744 4.372,3.605 0.11,-0.097 0.705,-1.701 1.301,-3.394 0.413,-1.149 1.043,-2.299 1.369,-3.183 0.265,-0.749 0.467,-1.226 0.512,-1.19 0.038,0.03 1.785,0.618 1.829,0.658 0.101,0.09 0.759,2.099 1.171,3.387 0.205,0.651 0.386,1.154 0.435,1.173 0.111,0.041 1.792,1.297 3.062,2.259 0.879,0.654 1.634,1.165 1.69,1.103 0.068,-0.075 3.617,-2.253 3.695,-2.367 0.17,-0.25 3.031,-5.498 3.967,-7.072 0.168,-0.296 0.281,-0.468 0.304,-0.463 0.067,0.016 1.431,0.514 2.275,0.82 0.421,0.149 0.742,0.263 0.766,0.269 0.391,0.094 8.532,14.986 8.532,14.986"
         id="path1023" />
      <path
         style="opacity:0.675241;fill:none;fill-opacity:1;stroke:#f60dc2;stroke-width:0.4;stroke-linecap:butt;stroke-linejoin:miter;stroke-miterlimit:4;stroke-dasharray:none;stroke-opacity:0.798387"
         d="m 55.1874,126.56 c 0,0 1.0565,-2.665 1.7914,-4.491 0.4152,-1.184 0.8538,-2.206 0.9824,-2.254 0.1385,-0.052 1.4641,-0.989 2.4488,-1.692 0.6473,-0.463 1.2206,-0.814 1.2966,-0.764 0.2283,0.15 2.5163,3.404 4.2197,5.861 1.1936,1.752 2.3736,3.16 2.5817,3.069 0.2031,-0.089 1.7005,-1.221 3.4588,-2.588 1.9098,-1.453 4.8711,-3.468 6.6177,-4.782 1.3115,-1.026 2.3691,-1.673 2.5034,-1.62 0.0785,0.031 0.6782,0.436 1.2846,0.851 0.741,0.499 1.598,1.059 1.7098,1.073 0.165,0.02 1.3003,4.697 1.5278,4.729 0.1088,0.015 2.5673,-0.759 2.6717,-0.745 0.2852,0.04 1.8642,-1.997 3.1621,-3.883 1.0765,-1.579 2.1632,-3.234 2.2816,-3.363 0.0545,-0.059 0.5923,-0.179 1.3914,-0.3 1.3437,-0.198 3.8487,-0.7 5.7791,-0.989 2.386,-0.362 4.617,-0.48 4.786,-0.298 0.138,0.149 1.379,1.379 2.719,2.641 1.825,1.715 4.122,3.506 4.338,3.315 0.149,-0.131 0.758,-1.696 1.345,-3.312 0.409,-1.097 1.105,-2.164 1.432,-3.008 0.261,-0.715 0.469,-1.161 0.53,-1.112 0.052,0.042 1.738,0.619 1.798,0.672 0.138,0.123 0.807,2.08 1.216,3.309 0.203,0.622 0.392,1.108 0.459,1.133 0.15,0.056 1.819,1.283 3.047,2.202 0.855,0.624 1.596,1.096 1.672,1.012 0.093,-0.102 3.513,-2.226 3.619,-2.382 0.232,-0.339 3.033,-5.463 3.963,-6.965 0.163,-0.283 0.278,-0.446 0.309,-0.439 0.091,0.022 1.438,0.51 2.253,0.802 0.411,0.143 0.726,0.253 0.759,0.261 0.533,0.127 8.611,14.674 8.611,14.674"
         id="path1025" />
      <path
         style="opacity:0.675241;fill:none;fill-opacity:1;stroke:#f60dc2;stroke-width:0.4;stroke-linecap:butt;stroke-linejoin:miter;stroke-miterlimit:4;stroke-dasharray:none;stroke-opacity:0.798387"
         d="m 55.1873,127.388 c 0,0 1.1087,-2.643 1.8552,-4.37 0.4039,-1.12 0.8628,-2.103 1.0308,-2.165 0.181,-0.068 1.4867,-0.973 2.4346,-1.637 0.6223,-0.438 1.1859,-0.758 1.2852,-0.693 0.2982,0.196 2.5962,3.381 4.2466,5.705 1.1496,1.656 2.3401,2.954 2.6119,2.835 0.2653,-0.116 1.7544,-1.218 3.4402,-2.511 1.8452,-1.374 4.9011,-3.349 6.5953,-4.591 1.2548,-0.97 2.3148,-1.556 2.4904,-1.487 0.1025,0.041 0.6937,0.432 1.276,0.824 0.7151,0.473 1.5559,1.005 1.702,1.023 0.2155,0.027 1.3696,4.459 1.6669,4.502 0.142,0.02 2.506,-0.707 2.6422,-0.688 0.3726,0.052 1.9542,-1.863 3.2112,-3.646 1.0392,-1.493 2.1216,-3.131 2.2763,-3.299 0.0712,-0.078 0.5967,-0.207 1.3622,-0.321 1.2999,-0.187 3.8454,-0.729 5.7007,-1.003 2.283,-0.342 4.457,-0.38 4.678,-0.142 0.18,0.195 1.4,1.407 2.689,2.599 1.758,1.622 4.018,3.231 4.301,2.982 0.194,-0.172 0.819,-1.691 1.395,-3.219 0.406,-1.038 1.177,-2.007 1.504,-2.806 0.258,-0.676 0.472,-1.085 0.553,-1.021 0.067,0.054 1.683,0.619 1.76,0.688 0.18,0.161 0.864,2.057 1.27,3.219 0.199,0.588 0.398,1.054 0.485,1.086 0.196,0.074 1.851,1.267 3.029,2.136 0.828,0.59 1.553,1.018 1.653,0.908 0.121,-0.134 3.393,-2.196 3.531,-2.399 0.302,-0.443 3.036,-5.422 3.957,-6.843 0.158,-0.267 0.275,-0.419 0.316,-0.41 0.119,0.028 1.447,0.505 2.228,0.781 0.399,0.135 0.708,0.241 0.751,0.251 0.696,0.166 8.702,14.316 8.702,14.316"
         id="path1027" />
      <path
         style="opacity:0.675241;fill:none;fill-opacity:1;stroke:#f60dc2;stroke-width:0.4;stroke-linecap:butt;stroke-linejoin:miter;stroke-miterlimit:4;stroke-dasharray:none;stroke-opacity:0.798387"
         d="m 55.1872,128.326 c 0,0 1.1678,-2.618 1.9275,-4.232 0.3912,-1.047 0.873,-1.985 1.0857,-2.065 0.229,-0.085 1.5123,-0.954 2.4184,-1.575 0.594,-0.41 1.1466,-0.694 1.2723,-0.612 0.3774,0.249 2.6869,3.356 4.2771,5.527 1.0997,1.548 2.3022,2.721 2.6462,2.571 0.3358,-0.146 1.8154,-1.214 3.4191,-2.422 1.772,-1.285 4.9351,-3.216 6.5699,-4.377 1.1905,-0.906 2.2534,-1.423 2.4755,-1.335 0.1297,0.051 0.7115,0.427 1.2665,0.794 0.6857,0.442 1.5081,0.943 1.693,0.965 0.2728,0.034 1.4483,4.191 1.8245,4.244 0.1798,0.026 2.4365,-0.647 2.609,-0.623 0.4715,0.066 2.056,-1.71 3.2668,-3.377 0.9969,-1.395 2.0745,-3.014 2.2703,-3.227 0.0901,-0.098 0.6017,-0.238 1.3291,-0.345 1.2502,-0.174 3.8416,-0.761 5.6109,-1.017 2.166,-0.32 4.276,-0.268 4.556,0.034 0.228,0.246 1.425,1.437 2.656,2.552 1.681,1.516 3.9,2.918 4.258,2.604 0.246,-0.217 0.888,-1.685 1.452,-3.114 0.402,-0.969 1.258,-1.83 1.586,-2.576 0.253,-0.632 0.476,-1 0.578,-0.919 0.085,0.069 1.62,0.619 1.719,0.707 0.227,0.204 0.927,2.03 1.329,3.116 0.196,0.55 0.405,0.993 0.515,1.034 0.249,0.094 1.888,1.249 3.01,2.06 0.797,0.552 1.504,0.929 1.63,0.79 0.154,-0.169 3.257,-2.16 3.431,-2.417 0.383,-0.562 3.039,-5.376 3.951,-6.704 0.152,-0.25 0.273,-0.39 0.324,-0.378 0.151,0.035 1.456,0.498 2.199,0.757 0.385,0.126 0.688,0.226 0.742,0.239 0.881,0.211 8.806,13.91 8.806,13.91"
         id="path1029" />
      <path
         style="opacity:0.675241;fill:none;fill-opacity:1;stroke:#f60dc2;stroke-width:0.4;stroke-linecap:butt;stroke-linejoin:miter;stroke-miterlimit:4;stroke-dasharray:none;stroke-opacity:0.798387"
         d="m 55.1872,129.375 c 0,0 1.2338,-2.591 2.0081,-4.079 0.377,-0.965 0.8845,-1.854 1.147,-1.952 0.2828,-0.105 1.5411,-0.934 2.4005,-1.506 0.5623,-0.378 1.1027,-0.623 1.2578,-0.521 0.4659,0.307 2.7883,3.326 4.3113,5.328 1.0439,1.427 2.2598,2.461 2.6844,2.276 0.4145,-0.181 1.8837,-1.211 3.3955,-2.325 1.6903,-1.184 4.9732,-3.065 6.5415,-4.136 1.1187,-0.835 2.1848,-1.274 2.459,-1.166 0.1602,0.063 0.7313,0.423 1.2557,0.761 0.6529,0.407 1.4549,0.873 1.6831,0.901 0.3367,0.042 1.5362,3.89 2.0006,3.956 0.222,0.031 2.3589,-0.581 2.5718,-0.551 0.5821,0.081 2.1699,-1.54 3.329,-3.076 0.9497,-1.286 2.0218,-2.884 2.2635,-3.147 0.1113,-0.122 0.6073,-0.273 1.2922,-0.371 1.1947,-0.161 3.8373,-0.799 5.5108,-1.034 2.036,-0.295 4.074,-0.142 4.42,0.231 0.281,0.304 1.452,1.472 2.619,2.499 1.595,1.398 3.767,2.57 4.209,2.181 0.305,-0.268 0.966,-1.678 1.517,-2.995 0.397,-0.894 1.349,-1.632 1.677,-2.32 0.248,-0.582 0.48,-0.905 0.605,-0.804 0.106,0.084 1.552,0.619 1.673,0.727 0.281,0.252 0.998,2.001 1.397,3.002 0.192,0.507 0.413,0.925 0.548,0.976 0.307,0.115 1.929,1.228 2.988,1.976 0.762,0.509 1.449,0.828 1.605,0.657 0.189,-0.209 3.104,-2.121 3.32,-2.438 0.472,-0.694 3.042,-5.325 3.943,-6.549 0.146,-0.23 0.27,-0.357 0.333,-0.342 0.186,0.043 1.467,0.492 2.167,0.73 0.37,0.116 0.665,0.211 0.732,0.227 1.087,0.26 8.922,13.455 8.922,13.455"
         id="path1031" />
      <path
         style="opacity:0.675241;fill:none;fill-opacity:1;stroke:#f60dc2;stroke-width:0.4;stroke-linecap:butt;stroke-linejoin:miter;stroke-miterlimit:4;stroke-dasharray:none;stroke-opacity:0.798387"
         d="m 55.1871,130.534 c 0,0 1.3068,-2.561 2.0974,-3.909 0.3613,-0.874 0.8972,-1.709 1.2148,-1.827 0.3421,-0.128 1.5727,-0.912 2.3805,-1.431 0.5273,-0.342 1.0541,-0.544 1.2418,-0.42 0.5638,0.371 2.9003,3.294 4.3491,5.108 0.9822,1.293 2.2129,2.173 2.7267,1.949 0.5016,-0.219 1.9591,-1.206 3.3695,-2.216 1.5999,-1.073 5.0152,-2.899 6.5101,-3.87 1.0393,-0.757 2.1088,-1.11 2.4407,-0.979 0.1937,0.076 0.7531,0.417 1.2437,0.724 0.6167,0.369 1.396,0.797 1.6722,0.831 0.4074,0.05 1.6333,3.557 2.1952,3.637 0.2686,0.038 2.2731,-0.507 2.5308,-0.472 0.7043,0.098 2.2957,-1.35 3.3976,-2.743 0.8975,-1.165 1.9636,-2.74 2.2561,-3.059 0.1346,-0.146 0.6135,-0.31 1.2514,-0.399 1.1333,-0.146 3.8326,-0.839 5.4003,-1.053 1.892,-0.268 3.851,-0.003 4.269,0.449 0.341,0.367 1.483,1.51 2.578,2.441 1.5,1.266 3.622,2.184 4.156,1.714 0.369,-0.324 1.052,-1.671 1.588,-2.865 0.392,-0.81 1.449,-1.413 1.778,-2.037 0.243,-0.527 0.484,-0.799 0.636,-0.677 0.127,0.102 1.474,0.619 1.621,0.75 0.34,0.305 1.077,1.969 1.471,2.876 0.188,0.459 0.421,0.849 0.585,0.911 0.372,0.139 1.974,1.204 2.964,1.883 0.723,0.461 1.388,0.718 1.577,0.51 0.229,-0.252 2.936,-2.077 3.197,-2.461 0.571,-0.839 3.046,-5.268 3.935,-6.377 0.139,-0.209 0.266,-0.321 0.343,-0.303 0.225,0.052 1.478,0.485 2.131,0.701 0.354,0.105 0.64,0.194 0.721,0.213 1.316,0.315 9.05,12.954 9.05,12.954"
         id="path1033" />
      <path
         style="opacity:0.675241;fill:none;fill-opacity:1;stroke:#f60dc2;stroke-width:0.4;stroke-linecap:butt;stroke-linejoin:miter;stroke-miterlimit:4;stroke-dasharray:none;stroke-opacity:0.798387"
         d="m 55.187,131.804 c 0,0 1.3868,-2.528 2.1952,-3.724 0.344,-0.775 0.911,-1.549 1.289,-1.69 0.4071,-0.152 1.6074,-0.888 2.3587,-1.348 0.489,-0.303 1.0009,-0.457 1.2243,-0.31 0.6709,0.442 3.023,3.259 4.3904,4.868 0.9146,1.146 2.1616,1.858 2.773,1.591 0.597,-0.261 2.0417,-1.202 3.341,-2.097 1.5009,-0.951 5.0612,-2.718 6.4757,-3.579 0.9523,-0.671 2.0257,-0.93 2.4206,-0.775 0.2306,0.091 0.7771,0.412 1.2307,0.684 0.577,0.327 1.3315,0.713 1.6602,0.753 0.4849,0.06 1.7396,3.194 2.4084,3.288 0.3197,0.046 2.1792,-0.426 2.4858,-0.383 0.8381,0.116 2.4336,-1.145 3.4728,-2.379 0.8404,-1.033 1.8999,-2.584 2.248,-2.963 0.1602,-0.174 0.6203,-0.352 1.2067,-0.431 1.066,-0.129 3.8275,-0.883 5.2785,-1.073 1.735,-0.237 3.607,0.151 4.104,0.687 0.406,0.438 1.517,1.552 2.534,2.378 1.396,1.123 3.461,1.762 4.097,1.202 0.439,-0.386 1.146,-1.663 1.666,-2.721 0.386,-0.719 1.558,-1.174 1.889,-1.727 0.236,-0.468 0.488,-0.683 0.669,-0.538 0.152,0.121 1.39,0.619 1.565,0.775 0.405,0.363 1.163,1.933 1.553,2.737 0.183,0.407 0.43,0.767 0.625,0.84 0.442,0.166 2.023,1.18 2.937,1.781 0.681,0.409 1.322,0.597 1.546,0.35 0.273,-0.3 2.752,-2.029 3.063,-2.486 0.68,-0.999 3.05,-5.206 3.926,-6.19 0.132,-0.185 0.262,-0.28 0.353,-0.259 0.269,0.062 1.492,0.478 2.093,0.669 0.335,0.093 0.613,0.175 0.709,0.198 1.566,0.375 9.19,12.403 9.19,12.403"
         id="path1035" />
      <path
         style="opacity:0.675241;fill:none;fill-opacity:1;stroke:#f60dc2;stroke-width:0.4;stroke-linecap:butt;stroke-linejoin:miter;stroke-miterlimit:4;stroke-dasharray:none;stroke-opacity:0.798387"
         d="m 55.1869,133.184 c 0,0 1.4737,-2.492 2.3014,-3.522 0.3253,-0.667 0.9261,-1.377 1.3697,-1.542 0.4778,-0.178 1.6451,-0.861 2.335,-1.257 0.4473,-0.261 0.9432,-0.363 1.2053,-0.19 0.7874,0.518 3.1563,3.22 4.4353,4.605 0.8412,0.988 2.1058,1.516 2.8234,1.203 0.7006,-0.306 2.1315,-1.197 3.3099,-1.968 1.3933,-0.819 5.1113,-2.521 6.4385,-3.262 0.8577,-0.578 1.9353,-0.735 2.3988,-0.552 0.2706,0.106 0.803,0.405 1.2164,0.639 0.5339,0.282 1.2614,0.622 1.6472,0.67 0.569,0.07 1.8553,2.797 2.6401,2.908 0.3752,0.053 2.077,-0.338 2.4369,-0.288 0.9836,0.136 2.5834,-0.92 3.5546,-1.983 0.7782,-0.89 1.8305,-2.413 2.2391,-2.857 0.188,-0.205 0.6276,-0.398 1.1581,-0.466 0.993,-0.112 3.8214,-0.932 5.1474,-1.095 1.563,-0.204 3.34,0.316 3.924,0.946 0.476,0.514 1.553,1.597 2.486,2.309 1.282,0.966 3.287,1.302 4.033,0.646 0.515,-0.453 1.248,-1.655 1.75,-2.566 0.38,-0.619 1.678,-0.914 2.01,-1.39 0.229,-0.403 0.493,-0.558 0.705,-0.388 0.178,0.143 1.299,0.62 1.504,0.803 0.475,0.426 1.256,1.895 1.641,2.587 0.178,0.351 0.441,0.677 0.669,0.763 0.519,0.194 2.076,1.152 2.908,1.67 0.636,0.352 1.25,0.465 1.513,0.176 0.32,-0.353 2.551,-1.978 2.916,-2.514 0.799,-1.172 3.055,-5.138 3.918,-5.985 0.123,-0.16 0.257,-0.238 0.364,-0.213 0.315,0.073 1.506,0.47 2.051,0.634 0.315,0.081 0.582,0.155 0.695,0.182 1.838,0.44 9.342,11.806 9.342,11.806"
         id="path1037" />
      <path
         style="opacity:0.675241;fill:none;fill-opacity:1;stroke:#f60dc2;stroke-width:0.4;stroke-linecap:butt;stroke-linejoin:miter;stroke-miterlimit:4;stroke-dasharray:none;stroke-opacity:0.798387"
         d="m 55.1867,134.674 c 0,0 1.5677,-2.453 2.4163,-3.303 0.305,-0.551 0.9423,-1.19 1.4568,-1.382 0.5542,-0.207 1.6858,-0.833 2.3093,-1.16 0.4024,-0.215 0.8808,-0.261 1.1848,-0.061 0.9133,0.601 3.3004,3.179 4.4839,4.323 0.7619,0.816 2.0455,1.146 2.8777,0.783 0.8125,-0.355 2.2285,-1.192 3.2765,-1.828 1.277,-0.676 5.1652,-2.308 6.3981,-2.92 0.7556,-0.477 1.8377,-0.525 2.3752,-0.312 0.3139,0.123 0.8312,0.398 1.2011,0.591 0.4873,0.233 1.1857,0.524 1.6331,0.579 0.6599,0.081 1.9802,2.37 2.8904,2.499 0.4351,0.062 1.9667,-0.244 2.384,-0.186 1.1409,0.159 2.7453,-0.677 3.643,-1.555 0.7111,-0.735 1.7557,-2.228 2.2295,-2.744 0.218,-0.237 0.6356,-0.446 1.1056,-0.502 0.9141,-0.092 3.816,-0.985 5.005,-1.119 1.378,-0.169 3.053,0.495 3.73,1.226 0.552,0.596 1.593,1.646 2.434,2.233 1.16,0.799 3.099,0.808 3.965,0.046 0.597,-0.525 1.358,-1.645 1.84,-2.398 0.374,-0.511 1.807,-0.632 2.14,-1.025 0.222,-0.333 0.499,-0.422 0.745,-0.225 0.206,0.165 1.2,0.62 1.438,0.832 0.551,0.494 1.357,1.853 1.736,2.425 0.172,0.289 0.452,0.579 0.717,0.679 0.602,0.226 2.133,1.123 2.877,1.55 0.586,0.291 1.171,0.324 1.477,-0.012 0.371,-0.409 2.334,-1.922 2.758,-2.544 0.926,-1.359 3.06,-5.065 3.907,-5.764 0.114,-0.132 0.253,-0.191 0.377,-0.162 0.365,0.085 1.52,0.461 2.005,0.597 0.293,0.066 0.55,0.132 0.681,0.163 2.131,0.511 9.506,11.161 9.506,11.161"
         id="path1039" />
      <path
         style="opacity:0.675241;fill:none;fill-opacity:1;stroke:#f60dc2;stroke-width:0.4;stroke-linecap:butt;stroke-linejoin:miter;stroke-miterlimit:4;stroke-dasharray:none;stroke-opacity:0.798387"
         d="m 55.1866,136.275 c 0,0 1.6685,-2.412 2.5395,-3.069 0.2834,-0.426 0.9598,-0.99 1.5504,-1.21 0.6362,-0.237 1.7296,-0.802 2.2819,-1.055 0.354,-0.166 0.8137,-0.152 1.1627,0.078 1.0483,0.69 3.455,3.135 4.5359,4.02 0.6768,0.63 1.9808,0.748 2.9362,0.331 0.9327,-0.407 2.3326,-1.185 3.2405,-1.678 1.1522,-0.523 5.2233,-2.079 6.3548,-2.552 0.6459,-0.37 1.7328,-0.298 2.3499,-0.055 0.3603,0.142 0.8614,0.392 1.1846,0.541 0.4373,0.18 1.1044,0.418 1.618,0.481 0.7576,0.093 2.1143,1.911 3.1592,2.059 0.4995,0.071 1.8482,-0.142 2.3273,-0.076 1.3096,0.182 2.9191,-0.416 3.7378,-1.095 0.6391,-0.569 1.6753,-2.03 2.2192,-2.622 0.2503,-0.273 0.6442,-0.499 1.0493,-0.543 0.8293,-0.071 3.8092,-1.04 4.8522,-1.144 1.18,-0.131 2.745,0.688 3.522,1.527 0.634,0.684 1.634,1.699 2.377,2.153 1.029,0.617 2.898,0.275 3.891,-0.599 0.686,-0.603 1.477,-1.636 1.939,-2.218 0.367,-0.395 1.945,-0.33 2.279,-0.634 0.215,-0.258 0.505,-0.277 0.787,-0.05 0.237,0.19 1.094,0.62 1.367,0.864 0.633,0.566 1.466,1.807 1.839,2.25 0.167,0.224 0.464,0.475 0.768,0.589 0.691,0.26 2.196,1.092 2.843,1.422 0.534,0.225 1.088,0.171 1.439,-0.214 0.426,-0.47 2.102,-1.862 2.588,-2.576 1.063,-1.56 3.065,-4.986 3.896,-5.527 0.104,-0.102 0.248,-0.14 0.39,-0.107 0.42,0.097 1.537,0.45 1.957,0.556 0.27,0.051 0.515,0.108 0.666,0.144 2.446,0.586 9.682,10.467 9.682,10.467"
         id="path1041" />
      <path
         style="opacity:0.675241;fill:none;fill-opacity:1;stroke:#f60dc2;stroke-width:0.4;stroke-linecap:butt;stroke-linejoin:miter;stroke-miterlimit:4;stroke-dasharray:none;stroke-opacity:0.798387"
         d="m 55.1865,137.986 c 0,0 1.7762,-2.367 2.6713,-2.818 0.2601,-0.293 0.9784,-0.776 1.6504,-1.027 0.7238,-0.269 1.7763,-0.768 2.2524,-0.942 0.3024,-0.114 0.7421,-0.035 1.1391,0.226 1.1929,0.785 3.6204,3.088 4.5917,3.695 0.5858,0.433 1.9116,0.324 2.9986,-0.15 1.0613,-0.464 2.444,-1.18 3.202,-1.518 1.0188,-0.359 5.2854,-1.835 6.3085,-2.16 0.5288,-0.254 1.6208,-0.056 2.3229,0.221 0.41,0.162 0.8937,0.384 1.1671,0.487 0.3838,0.123 1.0173,0.304 1.6017,0.376 0.862,0.107 2.2577,1.421 3.4466,1.589 0.5683,0.081 1.7216,-0.034 2.2666,0.042 1.4901,0.207 3.105,-0.138 3.8392,-0.604 0.5621,-0.391 1.5894,-1.818 2.2083,-2.492 0.2848,-0.31 0.6533,-0.555 0.9889,-0.585 0.7388,-0.049 3.8022,-1.1 4.6892,-1.172 0.967,-0.089 2.415,0.894 3.299,1.848 0.721,0.779 1.68,1.756 2.317,2.068 0.889,0.424 2.682,-0.294 3.813,-1.289 0.78,-0.686 1.603,-1.625 2.043,-2.025 0.359,-0.271 2.092,-0.007 2.428,-0.216 0.206,-0.177 0.511,-0.12 0.833,0.137 0.269,0.216 0.98,0.62 1.291,0.898 0.72,0.644 1.581,1.76 1.948,2.063 0.16,0.154 0.476,0.364 0.823,0.494 0.786,0.295 2.261,1.058 2.807,1.285 0.477,0.154 0.998,0.008 1.397,-0.431 0.485,-0.534 1.854,-1.797 2.407,-2.61 1.209,-1.775 3.071,-4.902 3.884,-5.274 0.094,-0.07 0.243,-0.086 0.405,-0.049 0.477,0.111 1.554,0.441 1.905,0.513 0.244,0.035 0.477,0.083 0.648,0.125 2.784,0.666 9.872,9.725 9.872,9.725"
         id="path1043" />
      <path
         style="opacity:0.675241;fill:none;fill-opacity:1;stroke:#f60dc2;stroke-width:0.4;stroke-linecap:butt;stroke-linejoin:miter;stroke-miterlimit:4;stroke-dasharray:none;stroke-opacity:0.798387"
         d="m 55.1863,139.808 c 0,0 1.891,-2.32 2.8116,-2.552 0.2354,-0.151 0.9983,-0.548 1.7569,-0.831 0.8171,-0.304 1.8261,-0.733 2.2211,-0.822 0.2474,-0.059 0.6658,0.088 1.1141,0.383 1.3465,0.887 3.7964,3.038 4.651,3.35 0.4888,0.223 1.8378,-0.128 3.065,-0.664 1.1981,-0.523 2.5625,-1.172 3.1611,-1.346 0.8767,-0.185 5.3513,-1.575 6.2592,-1.743 0.4039,-0.13 1.5015,0.202 2.2941,0.515 0.4628,0.183 0.928,0.376 1.1483,0.429 0.3268,0.063 0.9248,0.184 1.5845,0.265 0.9731,0.12 2.4103,0.898 3.7525,1.088 0.6415,0.091 1.5867,0.082 2.202,0.168 1.6822,0.234 3.3028,0.158 3.9472,-0.082 0.48,-0.201 1.4979,-1.592 2.1965,-2.352 0.3216,-0.35 0.6631,-0.616 0.9249,-0.631 0.6422,-0.025 3.7947,-1.164 4.5157,-1.201 0.74,-0.046 2.063,1.112 3.062,2.19 0.814,0.879 1.727,1.815 2.253,1.976 0.739,0.218 2.452,-0.9 3.728,-2.023 0.881,-0.774 1.738,-1.614 2.155,-1.819 0.351,-0.14 2.25,0.336 2.587,0.229 0.197,-0.091 0.518,0.045 0.881,0.336 0.304,0.244 0.86,0.62 1.21,0.934 0.813,0.727 1.705,1.708 2.065,1.865 0.154,0.079 0.49,0.244 0.881,0.391 0.887,0.334 2.332,1.022 2.769,1.139 0.416,0.079 0.903,-0.165 1.353,-0.661 0.547,-0.603 1.589,-1.729 2.214,-2.646 1.365,-2.004 3.076,-4.813 3.872,-5.005 0.082,-0.035 0.237,-0.028 0.419,0.014 0.539,0.125 1.573,0.429 1.849,0.467 0.219,0.018 0.438,0.056 0.632,0.102 3.142,0.752 10.072,8.937 10.072,8.937"
         id="path1045" />
    </g>
  </g>
</svg>
